<svg width="103" height="46" viewBox="0 0 103 46" fill="none" xmlns="http://www.w3.org/2000/svg">
<g clip-path="url(#clip0_352_7601)">
<path d="M0.939781 19.7686C0.939781 19.1984 0.939781 18.6281 0.751825 18.248C0.563869 17.8678 0.375912 17.4876 0 17.1075L2.81934 16.7273V25.0909C2.81934 25.0909 2.81934 25.281 3.0073 25.281C3.0073 25.281 3.19526 25.0909 3.38321 24.9008C3.57117 24.7108 3.75912 24.3306 4.13504 24.1405C4.51095 23.9504 4.88686 23.5703 5.26277 23.3802C5.63869 23.1901 6.20255 23 6.76642 23C7.51825 23 8.27007 23.1901 8.83394 23.5703C9.39781 23.9504 9.77372 24.5207 10.1496 25.0909C10.5255 25.6612 10.7135 26.4215 10.9015 26.9918C11.0894 27.7521 11.0894 28.5124 11.0894 29.0827C11.0894 30.0331 10.9015 30.7934 10.7135 31.5537C10.5255 32.3141 10.1496 33.0744 9.77372 33.6447C9.39781 34.2149 8.83394 34.7851 8.08212 35.1653C7.33029 35.5455 6.57847 35.7356 5.63869 35.7356C5.26277 35.7356 4.88686 35.7356 4.51095 35.7356C4.13504 35.7356 3.75912 35.7356 3.38321 35.5455C3.0073 35.5455 2.63139 35.3554 2.25547 35.3554C1.87956 35.3554 1.50365 35.3554 0.939781 35.3554C0.939781 34.2149 0.939781 33.0744 0.939781 31.9339C0.939781 30.7934 0.939781 29.6529 0.939781 28.5124V19.7686ZM8.64599 27.9422C8.45803 27.3719 8.27007 26.8017 8.08212 26.2314C7.89416 25.6612 7.51825 25.281 7.14234 25.0909C6.76642 24.9008 6.20256 24.7108 5.63869 24.7108C4.69891 24.7108 3.94708 25.0909 3.57117 25.8513C3.0073 26.6116 2.81934 27.562 2.81934 28.8926V30.9835C2.81934 31.5537 2.81934 31.9339 2.81934 32.5042C2.81934 33.0744 3.0073 33.4546 3.19526 33.8347C3.38321 34.2149 3.57117 34.405 3.94708 34.7851C4.32299 34.9752 4.69891 35.1653 5.45073 35.1653C6.20256 35.1653 6.57847 34.9752 7.14234 34.5951C7.51825 34.2149 7.89416 33.8347 8.08212 33.2645C8.27007 32.6942 8.45803 32.124 8.64599 31.5537C8.64599 30.9835 8.83394 30.4132 8.83394 29.843C8.64599 29.0827 8.64599 28.5124 8.64599 27.9422Z" fill="black"/>
<path d="M14.0971 21.8596C14.0971 21.2894 14.0971 20.7191 14.0971 19.9588C14.0971 19.3885 13.9091 18.8183 13.5332 18.248H17.1044C16.7285 18.6282 16.7285 19.1985 16.5405 19.9588C16.5405 20.529 16.5405 21.2894 16.5405 21.8596V26.0414C16.9164 26.0414 17.1044 25.8514 17.4803 25.6613C17.8562 25.4712 18.2321 25.091 18.608 24.7109C18.9839 24.3307 19.3598 23.9505 19.7358 23.5704C20.1117 23.1902 20.4876 22.81 20.6755 22.4299C21.4274 21.6695 21.9912 20.9092 22.3671 20.339C22.7431 19.7687 22.931 19.3885 22.931 19.0084C22.931 18.8183 22.931 18.8183 22.931 18.6282V18.4381H26.1263C25.5624 19.0084 24.9985 19.5786 24.4347 19.9588C23.8708 20.339 23.3069 20.9092 22.7431 21.6695L18.608 26.2315L22.931 32.5042C23.3069 33.0745 23.6828 33.4547 24.0588 34.0249C24.4347 34.5952 24.8106 34.9753 25.3744 35.5456H22.5551C22.3671 35.5456 22.1792 35.5456 21.9912 35.3555C21.8033 35.1654 21.8033 34.9753 21.6153 34.7852L16.9164 27.372L16.7285 27.1819C16.7285 26.9918 16.5405 26.9918 16.5405 26.9918V27.1819V31.934C16.5405 32.5042 16.5405 33.0745 16.5405 33.8348C16.5405 34.4051 16.7285 34.9753 17.1044 35.5456H13.5332C13.9091 35.1654 13.9091 34.5952 14.0971 33.8348C14.0971 33.2646 14.0971 32.5042 14.0971 31.934V21.8596Z" fill="black"/>
<path d="M33.2684 35.5456C33.0804 34.9753 33.0804 34.5951 33.0804 34.4051C33.0804 34.0249 33.0804 34.0249 32.8925 34.0249C32.8925 34.0249 32.8925 34.0249 32.7045 34.0249C32.5166 34.215 32.3286 34.5951 32.1406 34.7852C31.9527 34.9753 31.7647 35.1654 31.5768 35.3555C31.3888 35.5456 31.0129 35.7356 30.8249 35.7356C30.449 35.9257 30.0731 35.9257 29.6972 35.9257C28.7574 35.9257 28.0056 35.7356 27.4417 35.1654C26.8779 34.5951 26.502 33.8348 26.502 32.8844C26.502 32.3142 26.6899 31.7439 27.0658 31.3637C27.4417 30.9836 27.8176 30.6034 28.1936 30.2232C28.7574 29.8431 29.1333 29.653 29.6972 29.4629C30.2611 29.2728 30.8249 29.0827 31.2009 28.7026C31.5768 28.5125 31.9527 28.3224 32.1406 28.3224C32.3286 28.1323 32.5166 28.1323 32.7045 27.9423C32.8925 27.7522 32.8925 27.5621 33.0804 27.372C33.0804 27.1819 33.0804 26.8018 33.0804 26.4216C33.0804 25.8513 32.8925 25.2811 32.7045 24.7108C32.3286 24.3307 31.9527 23.9505 31.0129 23.9505C30.449 23.9505 29.8852 24.1406 29.6972 24.3307C29.5093 24.5208 29.3213 24.9009 29.1333 25.2811C28.9454 25.6613 28.9454 25.8513 28.7574 26.2315C28.5695 26.4216 28.3815 26.6117 27.8176 26.6117C27.4417 26.6117 27.2538 26.6117 27.0658 26.4216C26.8779 26.2315 26.8779 26.0414 26.8779 25.6613C26.8779 25.2811 27.0658 24.9009 27.2538 24.5208C27.6297 24.1406 28.0056 23.9505 28.3815 23.7604C28.7574 23.5704 29.3213 23.3803 29.8852 23.3803C30.449 23.3803 31.0129 23.1902 31.3888 23.1902C31.9527 23.1902 32.3286 23.1902 32.7045 23.1902C33.0804 23.1902 33.4563 23.3803 33.8322 23.5704C34.2082 23.7604 34.3961 23.9505 34.5841 24.3307C34.772 24.7108 34.772 24.9009 34.772 25.4712V31.3637C34.772 32.1241 34.772 32.8844 34.772 33.6447C34.772 34.4051 34.96 34.9753 35.5238 35.5456H33.2684ZM29.1333 33.8348C29.5093 34.215 30.0731 34.215 30.637 34.215C31.0129 34.215 31.3888 34.215 31.5768 34.0249C31.9527 33.8348 32.1406 33.6447 32.3286 33.2646C32.5166 33.0745 32.7045 32.6943 32.7045 32.3142C32.8925 31.934 32.8925 31.5538 32.8925 31.1737V28.5125L31.3888 29.2728C30.8249 29.4629 30.449 29.653 30.0731 30.0332C29.6972 30.2232 29.3213 30.4133 29.1333 30.6034C28.9454 30.7935 28.7574 30.9836 28.5695 31.3637C28.3815 31.5538 28.3815 31.934 28.3815 32.3142C28.5695 33.0745 28.7574 33.6447 29.1333 33.8348Z" fill="black"/>
<path d="M40.0346 26.8018C40.2225 27.182 40.5984 27.5621 40.9744 27.7522C41.3503 27.9423 41.7262 28.3225 42.2901 28.5125C42.8539 28.7026 43.2298 29.0828 43.6057 29.2729C43.9817 29.653 44.3576 30.0332 44.5455 30.4134C44.7335 30.7935 44.9214 31.3638 44.9214 31.934C44.9214 32.5043 44.7335 33.0745 44.5455 33.6448C44.3576 34.0249 43.9817 34.5952 43.4178 34.7853C43.0419 35.1654 42.478 35.3555 41.9141 35.5456C41.3503 35.7357 40.7864 35.7357 40.2225 35.7357C39.6587 35.7357 39.2828 35.7357 38.7189 35.5456C38.343 35.3555 37.7791 35.3555 37.2152 35.1654C37.0273 35.1654 37.0273 34.9753 36.8393 34.9753C36.8393 34.9753 36.6514 34.7853 36.6514 34.5952C36.6514 34.215 36.6514 34.0249 36.6514 33.6448C36.6514 33.2646 36.6514 33.0745 36.6514 32.6944C36.8393 33.0745 37.0273 33.2646 37.2152 33.6448C37.4032 33.8349 37.5911 34.215 37.7791 34.4051C37.9671 34.5952 38.343 34.7853 38.5309 34.7853C38.9068 34.9753 39.2828 34.9753 39.6587 34.9753C40.4105 34.9753 40.9744 34.7853 41.5382 34.4051C41.9141 34.0249 42.1021 33.4547 42.1021 32.6944C42.1021 32.1241 41.9141 31.7439 41.7262 31.3638C41.5382 30.9836 41.1623 30.6034 40.7864 30.4134C40.4105 30.2233 40.0346 29.8431 39.4707 29.653C39.0948 29.463 38.5309 29.0828 38.155 28.8927C37.7791 28.5125 37.4032 28.1324 37.2152 27.7522C37.7791 27.182 37.5911 26.6117 37.5911 25.8514C37.5911 24.901 37.9671 24.1406 38.7189 23.5704C39.4707 23.1902 40.4105 22.8101 41.7262 22.8101C42.1021 22.8101 42.478 22.8101 42.8539 22.8101C43.2298 22.8101 43.6057 23.0001 43.9817 23.0001H44.1696C44.3576 23.0001 44.3576 23.0001 44.3576 23.1902C44.3576 23.3803 44.3576 23.7605 44.3576 24.1406C44.3576 24.5208 44.3576 24.7109 44.3576 25.091C44.1696 24.7109 43.7937 24.5208 43.6057 24.3307C43.4178 24.1406 43.2298 23.9506 43.0419 23.7605C42.8539 23.5704 42.666 23.5704 42.478 23.5704C42.2901 23.5704 41.9141 23.5704 41.7262 23.5704C41.1623 23.5704 40.7864 23.7605 40.4105 23.9506C40.0346 24.1406 39.8466 24.7109 39.8466 25.2811C39.6587 26.0415 39.6587 26.4216 40.0346 26.8018Z" fill="black"/>
<path d="M56.3871 32.5042C56.3871 33.0744 56.3871 33.4546 56.3871 34.0248C56.3871 34.5951 56.575 34.9752 56.763 35.3554H54.5075V27.9422C54.5075 27.562 54.5075 26.9918 54.5075 26.6116C54.5075 26.2314 54.3195 25.8513 54.1316 25.4711C53.9436 25.0909 53.7557 24.9008 53.3798 24.7108C53.0039 24.5207 52.6279 24.3306 52.0641 24.3306C51.5002 24.3306 51.1243 24.5207 50.7484 24.7108C50.3725 24.9008 50.1845 25.281 49.9966 25.6612C49.8086 26.0413 49.6206 26.4215 49.6206 26.8017C49.6206 27.1818 49.6206 27.7521 49.6206 28.1323V32.5042C49.6206 33.0744 49.6206 33.4546 49.6206 34.0248C49.6206 34.5951 49.8086 34.9752 49.9966 35.3554H47.1772C47.3652 34.9752 47.5531 34.5951 47.5531 34.0248C47.5531 33.4546 47.5531 33.0744 47.5531 32.5042V19.7686C47.5531 19.1984 47.5531 18.6281 47.5531 18.248C47.5531 17.6777 47.3652 17.2975 46.9893 17.1075L49.6206 16.7273V24.3306C49.6206 24.5207 49.6206 24.5207 49.6206 24.7108V24.9008C49.6206 24.9008 49.8086 24.9008 49.9966 24.7108C50.1845 24.5207 50.3725 24.3306 50.5604 24.1405C50.7484 23.9504 51.1243 23.7604 51.6882 23.5703C52.0641 23.3802 52.6279 23.3802 53.1918 23.3802C54.1316 23.3802 55.0714 23.5703 55.6352 24.1405C56.1991 24.7108 56.575 25.6612 56.575 26.8017V32.5042H56.3871Z" fill="black"/>
<path d="M53.9434 0L76.1222 2.85124L70.8594 21.6694L53.9434 0Z" fill="#D83768"/>
<path d="M76.874 3.04126L93.4141 25.2809L74.2426 34.595L71.9871 24.7107C71.9871 24.7107 71.4232 21.0991 72.363 18.438L76.874 3.04126Z" fill="#D83768"/>
<path d="M94.1654 25.091L87.9629 16.3472L98.3005 14.6365L94.1654 25.091Z" fill="#B01117"/>
<path d="M99.0529 14.6365L103 18.8183H97.3613L99.0529 14.6365Z" fill="#B01117"/>
<path d="M77.8135 33.8346L93.4138 26.0413L93.0379 27.752L77.8135 33.8346Z" fill="#D83A2B"/>
<path d="M70.8597 23.5703L64.2812 46.0001L74.2429 38.0166L70.8597 23.5703Z" fill="#9D0B0F"/>
<path d="M62.5893 11.9753L56.0108 3.80176H53.5674L62.5893 11.9753Z" fill="#B01117"/>
<path d="M71.7988 23.5703C71.7988 24.3306 71.9868 24.9009 71.9868 24.9009L74.4302 34.5951L93.6017 25.2811L93.4138 25.091L71.7988 23.5703Z" fill="#C3161C"/>
</g>
<defs>
<clipPath id="clip0_352_7601">
<rect width="103" height="46" fill="white"/>
</clipPath>
</defs>
</svg>
