<svg width="11" height="11" viewBox="0 0 11 11" fill="none" xmlns="http://www.w3.org/2000/svg">
<g clip-path="url(#clip0_426_206)">
<path d="M5.61748 3.90826C5.29921 3.90826 4.9881 4.00264 4.72347 4.17946C4.45885 4.35627 4.2526 4.60759 4.13081 4.90162C4.00901 5.19566 3.97715 5.51921 4.03924 5.83135C4.10133 6.1435 4.25458 6.43022 4.47963 6.65527C4.70467 6.88031 4.9914 7.03357 5.30354 7.09566C5.61569 7.15775 5.93924 7.12588 6.23327 7.00409C6.52731 6.8823 6.77862 6.67605 6.95544 6.41142C7.13226 6.1468 7.22663 5.83568 7.22663 5.51742C7.22663 5.09065 7.0571 4.68135 6.75532 4.37958C6.45355 4.0778 6.04425 3.90826 5.61748 3.90826ZM5.61748 6.322C5.45834 6.322 5.30279 6.27481 5.17048 6.18641C5.03816 6.098 4.93504 5.97234 4.87414 5.82532C4.81324 5.6783 4.79731 5.51653 4.82836 5.36046C4.8594 5.20438 4.93603 5.06102 5.04855 4.9485C5.16107 4.83598 5.30444 4.75935 5.46051 4.7283C5.61658 4.69726 5.77836 4.71319 5.92537 4.77409C6.07239 4.83498 6.19805 4.93811 6.28646 5.07042C6.37487 5.20273 6.42205 5.35829 6.42205 5.51742C6.42205 5.73081 6.33729 5.93546 6.1864 6.08635C6.03551 6.23723 5.83086 6.322 5.61748 6.322Z" fill="currentColor"/>
<path d="M9.35635 6.28183L9.17773 6.17884C9.25814 5.74133 9.25814 5.29282 9.17773 4.85531L9.35635 4.75232C9.4937 4.67308 9.61411 4.56756 9.71068 4.44178C9.80726 4.316 9.87811 4.17244 9.9192 4.01928C9.9603 3.86612 9.97082 3.70636 9.95017 3.54914C9.92952 3.39191 9.87811 3.24029 9.79887 3.10294C9.71962 2.96558 9.6141 2.84518 9.48832 2.7486C9.36255 2.65202 9.21898 2.58117 9.06582 2.54008C8.91266 2.49898 8.75291 2.48846 8.59568 2.50911C8.43845 2.52976 8.28683 2.58117 8.14948 2.66042L7.97046 2.7638C7.63235 2.47493 7.24379 2.25099 6.82434 2.10325V1.89687C6.82434 1.57679 6.69718 1.26982 6.47085 1.04349C6.24452 0.817154 5.93755 0.690002 5.61747 0.690002C5.29739 0.690002 4.99041 0.817154 4.76408 1.04349C4.53775 1.26982 4.4106 1.57679 4.4106 1.89687V2.10325C3.99117 2.25152 3.60274 2.47601 3.26488 2.76541L3.08505 2.66122C2.80765 2.50118 2.47803 2.45789 2.16871 2.54088C1.85939 2.62387 1.59571 2.82634 1.43567 3.10374C1.27563 3.38114 1.23234 3.71076 1.31533 4.02008C1.39832 4.3294 1.60078 4.59309 1.87819 4.75313L2.0568 4.85611C1.97639 5.29363 1.97639 5.74213 2.0568 6.17965L1.87819 6.28263C1.60078 6.44267 1.39832 6.70636 1.31533 7.01568C1.23234 7.325 1.27563 7.65461 1.43567 7.93202C1.59571 8.20942 1.85939 8.41189 2.16871 8.49488C2.47803 8.57787 2.80765 8.53458 3.08505 8.37454L3.26407 8.27115C3.6023 8.56007 3.991 8.78401 4.4106 8.93171V9.13808C4.4106 9.45816 4.53775 9.76514 4.76408 9.99147C4.99041 10.2178 5.29739 10.345 5.61747 10.345C5.93755 10.345 6.24452 10.2178 6.47085 9.99147C6.69718 9.76514 6.82434 9.45816 6.82434 9.13808V8.93171C7.24377 8.78344 7.63219 8.55895 7.97006 8.26954L8.14988 8.37333C8.42728 8.53337 8.7569 8.57666 9.06622 8.49367C9.37554 8.41068 9.63923 8.20822 9.79927 7.93081C9.95931 7.65341 10.0026 7.32379 9.91961 7.01447C9.83662 6.70515 9.63415 6.44146 9.35675 6.28142L9.35635 6.28183ZM8.33131 4.76278C8.46755 5.25642 8.46755 5.77773 8.33131 6.27137C8.30753 6.35728 8.31295 6.44867 8.34674 6.53117C8.38052 6.61367 8.44076 6.68261 8.51797 6.72716L8.95406 6.97899C9.04651 7.03234 9.11398 7.12023 9.14163 7.22332C9.16928 7.32642 9.15484 7.43627 9.1015 7.52872C9.04815 7.62117 8.96026 7.68864 8.85717 7.71629C8.75407 7.74395 8.64422 7.72951 8.55177 7.67616L8.11488 7.42352C8.0376 7.37876 7.94762 7.36099 7.85912 7.37301C7.77063 7.38503 7.68864 7.42615 7.6261 7.4899C7.26803 7.85544 6.81692 8.11626 6.32147 8.24419C6.23499 8.26643 6.15837 8.3168 6.10367 8.38738C6.04897 8.45795 6.01931 8.54472 6.01935 8.63401V9.13808C6.01935 9.24478 5.97697 9.3471 5.90153 9.42254C5.82608 9.49799 5.72376 9.54037 5.61706 9.54037C5.51037 9.54037 5.40805 9.49799 5.3326 9.42254C5.25716 9.3471 5.21478 9.24478 5.21478 9.13808V8.63442C5.21482 8.54512 5.18516 8.45836 5.13046 8.38778C5.07576 8.3172 4.99913 8.26683 4.91266 8.2446C4.41717 8.11614 3.9662 7.85476 3.60843 7.4887C3.54589 7.42495 3.46391 7.38382 3.37541 7.3718C3.28691 7.35979 3.19693 7.37756 3.11965 7.42232L2.68357 7.67455C2.6378 7.70138 2.58718 7.7189 2.53461 7.72609C2.48205 7.73327 2.42858 7.72999 2.37729 7.71643C2.326 7.70287 2.27789 7.6793 2.23575 7.64707C2.1936 7.61484 2.15825 7.5746 2.13172 7.52865C2.1052 7.48271 2.08802 7.43197 2.08118 7.37936C2.07434 7.32675 2.07798 7.2733 2.09188 7.2221C2.10578 7.1709 2.12967 7.12296 2.16218 7.08103C2.19468 7.0391 2.23516 7.00401 2.28128 6.97779L2.71736 6.72595C2.79458 6.6814 2.85481 6.61246 2.8886 6.52996C2.92239 6.44746 2.92781 6.35608 2.90402 6.27016C2.76779 5.77653 2.76779 5.25521 2.90402 4.76157C2.92738 4.67584 2.9217 4.58478 2.88786 4.50262C2.85402 4.42045 2.79392 4.3518 2.71696 4.30739L2.28088 4.05556C2.18843 4.00221 2.12096 3.91432 2.09331 3.81123C2.06566 3.70813 2.08009 3.59828 2.13344 3.50583C2.18679 3.41338 2.27467 3.34591 2.37777 3.31826C2.48086 3.29061 2.59072 3.30504 2.68317 3.35839L3.12005 3.61103C3.19712 3.65589 3.28692 3.67387 3.37532 3.66214C3.46372 3.65042 3.54572 3.60966 3.60843 3.54626C3.96651 3.18071 4.41761 2.9199 4.91306 2.79197C4.9998 2.76966 5.07663 2.71905 5.13135 2.64815C5.18608 2.57724 5.21558 2.4901 5.21518 2.40054V1.89687C5.21518 1.79018 5.25756 1.68785 5.33301 1.61241C5.40845 1.53697 5.51077 1.49458 5.61747 1.49458C5.72416 1.49458 5.82648 1.53697 5.90193 1.61241C5.97737 1.68785 6.01976 1.79018 6.01976 1.89687V2.40054C6.01971 2.48983 6.04938 2.5766 6.10407 2.64717C6.15877 2.71775 6.2354 2.76812 6.32188 2.79036C6.8175 2.91875 7.26862 3.18013 7.6265 3.54626C7.68905 3.61001 7.77103 3.65113 7.85953 3.66315C7.94802 3.67517 8.038 3.6574 8.11528 3.61264L8.55136 3.3604C8.59713 3.33357 8.64776 3.31605 8.70032 3.30887C8.75289 3.30168 8.80635 3.30496 8.85765 3.31852C8.90894 3.33208 8.95704 3.35566 8.99919 3.38788C9.04133 3.42011 9.07668 3.46035 9.10321 3.5063C9.12974 3.55225 9.14692 3.60298 9.15375 3.6556C9.16059 3.70821 9.15696 3.76165 9.14306 3.81285C9.12916 3.86405 9.10526 3.912 9.07276 3.95393C9.04025 3.99586 8.99977 4.03094 8.95365 4.05717L8.51757 4.309C8.44075 4.35353 8.38083 4.42223 8.34714 4.50439C8.31345 4.58654 8.30788 4.67754 8.33131 4.76318V4.76278Z" fill="currentColor"/>
</g>
<defs>
<clipPath id="clip0_426_206">
<rect width="9.65495" height="9.65495" fill="white" transform="translate(0.789978 0.690094)"/>
</clipPath>
</defs>
</svg>
