<svg width="24" height="24" viewBox="0 0 29 29" fill="none" xmlns="http://www.w3.org/2000/svg">
<g clip-path="url(#clip0_331_355)">
<path d="M8.45832 29.0001C9.79301 29.0001 10.875 27.9181 10.875 26.5834C10.875 25.2487 9.79301 24.1667 8.45832 24.1667C7.12363 24.1667 6.04166 25.2487 6.04166 26.5834C6.04166 27.9181 7.12363 29.0001 8.45832 29.0001Z" fill="currentColor"/>
<path d="M20.5417 29.0001C21.8764 29.0001 22.9583 27.9181 22.9583 26.5834C22.9583 25.2487 21.8764 24.1667 20.5417 24.1667C19.207 24.1667 18.125 25.2487 18.125 26.5834C18.125 27.9181 19.207 29.0001 20.5417 29.0001Z" fill="currentColor"/>
<path d="M28.6194 1.61428C28.3928 1.38775 28.0855 1.2605 27.7651 1.2605C27.4447 1.2605 27.1374 1.38775 26.9108 1.61428L20.677 7.85412L18.8029 5.89782C18.6929 5.78341 18.5615 5.69179 18.4161 5.62817C18.2707 5.56455 18.1142 5.53019 17.9556 5.52705C17.7969 5.52391 17.6392 5.55204 17.4914 5.60986C17.3436 5.66767 17.2087 5.75402 17.0943 5.86399C16.9799 5.97396 16.8882 6.10538 16.8246 6.25076C16.761 6.39613 16.7266 6.55262 16.7235 6.71128C16.7172 7.0317 16.8384 7.34152 17.0604 7.57257L19.0107 9.60137C19.2185 9.82582 19.4697 10.0058 19.749 10.1304C20.0284 10.255 20.3301 10.3217 20.6359 10.3264H20.6758C20.9755 10.3274 21.2725 10.2688 21.5494 10.1541C21.8263 10.0394 22.0777 9.87081 22.2889 9.65816L28.6194 3.32287C28.8459 3.09627 28.9731 2.78898 28.9731 2.46857C28.9731 2.14817 28.8459 1.84088 28.6194 1.61428Z" fill="currentColor"/>
<path d="M26.4625 10.8943C26.3063 10.8661 26.146 10.8689 25.9909 10.9027C25.8358 10.9364 25.6888 11.0004 25.5584 11.0909C25.428 11.1815 25.3167 11.2969 25.2309 11.4305C25.1452 11.564 25.0865 11.7132 25.0584 11.8695L24.9038 12.7262C24.753 13.5627 24.3131 14.3197 23.6609 14.8648C23.0086 15.4099 22.1856 15.7085 21.3355 15.7083H6.54675L5.41092 6.04167H13.2917C13.6121 6.04167 13.9195 5.91436 14.1461 5.68775C14.3727 5.46115 14.5 5.1538 14.5 4.83333C14.5 4.51286 14.3727 4.20552 14.1461 3.97891C13.9195 3.75231 13.6121 3.625 13.2917 3.625H5.12575L5.075 3.19967C4.97087 2.31831 4.54703 1.50577 3.88381 0.916042C3.22059 0.326316 2.36407 0.000378011 1.47658 0L1.20833 0C0.887863 0 0.580519 0.127306 0.353913 0.353913C0.127306 0.580519 0 0.887863 0 1.20833C0 1.5288 0.127306 1.83615 0.353913 2.06275C0.580519 2.28936 0.887863 2.41667 1.20833 2.41667H1.47658C1.77254 2.41671 2.0582 2.52536 2.27937 2.72203C2.50053 2.9187 2.64183 3.1897 2.67646 3.48362L4.33913 17.6211C4.51174 19.0914 5.21816 20.4472 6.32431 21.431C7.43045 22.4149 8.85933 22.9584 10.3397 22.9583H22.9583C23.2788 22.9583 23.5861 22.831 23.8128 22.6044C24.0394 22.3778 24.1667 22.0705 24.1667 21.75C24.1667 21.4295 24.0394 21.1222 23.8128 20.8956C23.5861 20.669 23.2788 20.5417 22.9583 20.5417H10.3397C9.58996 20.5418 8.85861 20.3095 8.2464 19.8767C7.6342 19.4439 7.17125 18.8319 6.92133 18.125H21.3355C22.7521 18.1251 24.1236 17.6274 25.2105 16.719C26.2973 15.8106 27.0305 14.5492 27.2817 13.1551L27.4364 12.2972C27.4931 11.9821 27.4224 11.6573 27.2398 11.3942C27.0571 11.1312 26.7776 10.9514 26.4625 10.8943Z" fill="currentColor"/></g>
</svg>