<svg width="24" height="24" viewBox="0 0 25 25" fill="none" xmlns="http://www.w3.org/2000/svg">
    <path d="M12.5 0C10.0277 0 7.61099 0.733112 5.55538 2.10663C3.49976 3.48015 1.89761 5.43238 0.951511 7.71646C0.00541608 10.0005 -0.242126 12.5139 0.24019 14.9386C0.722505 17.3634 1.91301 19.5907 3.66117 21.3388C5.40933 23.087 7.63661 24.2775 10.0614 24.7598C12.4861 25.2421 14.9995 24.9946 17.2835 24.0485C19.5676 23.1024 21.5199 21.5002 22.8934 19.4446C24.2669 17.389 25 14.9723 25 12.5C24.9964 9.18589 23.6783 6.00855 21.3349 3.66512C18.9915 1.3217 15.8141 0.00358446 12.5 0ZM21.5073 7.29167H18.1521C17.401 5.55103 16.4121 3.92301 15.2135 2.45417C17.8661 3.17597 20.1274 4.91403 21.5073 7.29167ZM17.1875 12.5C17.179 13.5606 17.0118 14.6139 16.6917 15.625H8.30834C7.98818 14.6139 7.82106 13.5606 7.81251 12.5C7.82106 11.4394 7.98818 10.3861 8.30834 9.375H16.6917C17.0118 10.3861 17.179 11.4394 17.1875 12.5ZM9.14376 17.7083H15.8563C14.9721 19.4539 13.8418 21.0634 12.5 22.4875C11.1577 21.0638 10.0273 19.4542 9.14376 17.7083ZM9.14376 7.29167C10.0279 5.54612 11.1582 3.93662 12.5 2.5125C13.8423 3.93622 14.9727 5.54579 15.8563 7.29167H9.14376ZM9.79167 2.45417C8.59132 3.92269 7.60061 5.55073 6.84792 7.29167H3.49271C4.87381 4.91295 7.13715 3.17474 9.79167 2.45417ZM2.56355 9.375H6.14584C5.87579 10.3949 5.7358 11.4449 5.72917 12.5C5.7358 13.5551 5.87579 14.6051 6.14584 15.625H2.56355C1.92328 13.5909 1.92328 11.4091 2.56355 9.375ZM3.49271 17.7083H6.84792C7.60061 19.4493 8.59132 21.0773 9.79167 22.5458C7.13715 21.8253 4.87381 20.0871 3.49271 17.7083ZM15.2135 22.5458C16.4121 21.077 17.401 19.449 18.1521 17.7083H21.5073C20.1274 20.086 17.8661 21.824 15.2135 22.5458ZM22.4365 15.625H18.8542C19.1242 14.6051 19.2642 13.5551 19.2708 12.5C19.2642 11.4449 19.1242 10.3949 18.8542 9.375H22.4344C23.0747 11.4091 23.0747 13.5909 22.4344 15.625H22.4365Z" fill="currentColor"/>
</svg>
