<svg width="24" height="24" viewBox="0 0 29 29" fill="none" xmlns="http://www.w3.org/2000/svg">
    <g clip-path="url(#clip0_331_368)">
    <path d="M6.64584 20.5417C7.64686 20.5417 8.45834 19.7303 8.45834 18.7292C8.45834 17.7282 7.64686 16.9167 6.64584 16.9167C5.64483 16.9167 4.83334 17.7282 4.83334 18.7292C4.83334 19.7303 5.64483 20.5417 6.64584 20.5417Z" fill="currentColor"/>
    <path d="M22.9583 3.625H6.04167C4.43991 3.62692 2.9043 4.26407 1.77168 5.39668C0.639066 6.5293 0.00191866 8.06491 0 9.66667L0 19.3333C0.00191866 20.9351 0.639066 22.4707 1.77168 23.6033C2.9043 24.7359 4.43991 25.3731 6.04167 25.375H22.9583C24.5601 25.3731 26.0957 24.7359 27.2283 23.6033C28.3609 22.4707 28.9981 20.9351 29 19.3333V9.66667C28.9981 8.06491 28.3609 6.5293 27.2283 5.39668C26.0957 4.26407 24.5601 3.62692 22.9583 3.625ZM6.04167 6.04167H22.9583C23.9197 6.04167 24.8418 6.42359 25.5216 7.1034C26.2014 7.78322 26.5833 8.70526 26.5833 9.66667H2.41667C2.41667 8.70526 2.79859 7.78322 3.4784 7.1034C4.15822 6.42359 5.08026 6.04167 6.04167 6.04167ZM22.9583 22.9583H6.04167C5.08026 22.9583 4.15822 22.5764 3.4784 21.8966C2.79859 21.2168 2.41667 20.2947 2.41667 19.3333V12.0833H26.5833V19.3333C26.5833 20.2947 26.2014 21.2168 25.5216 21.8966C24.8418 22.5764 23.9197 22.9583 22.9583 22.9583Z" fill="currentColor"/>
    </g>
</svg>
