<svg width="24" height="24" viewBox="0 0 29 29" fill="none" xmlns="http://www.w3.org/2000/svg">
    <g clip-path="url(#clip0_331_348)">
    <path d="M24.5431 18.5975C24.6732 18.294 24.9706 18.097 25.2961 18.0958H25.4052C27.3873 18.0958 29 16.4831 29 14.5009C29 12.5188 27.3873 10.9062 25.4052 10.9062H25.2039C24.9245 10.905 24.6687 10.7639 24.5177 10.5366C24.501 10.4541 24.4755 10.3734 24.4413 10.2959C24.3045 9.98609 24.3681 9.62966 24.6034 9.38639L24.6676 9.32216C24.6694 9.32046 24.6712 9.3187 24.6729 9.31695C25.3514 8.6376 25.7249 7.73464 25.7243 6.77442C25.7238 5.81584 25.3505 4.91475 24.6734 4.23654C24.6715 4.23473 24.6698 4.23297 24.668 4.23116C23.9891 3.553 23.087 3.17969 22.1276 3.17969H22.1255C21.1653 3.1802 20.2627 3.55465 19.5846 4.23354L19.5175 4.30071C19.2743 4.53583 18.9179 4.59949 18.608 4.46276C18.6041 4.46112 18.6003 4.45942 18.5964 4.45777C18.293 4.32773 18.096 4.03031 18.0948 3.70486V3.59577C18.0948 1.61364 16.4821 0.000976562 14.4999 0.000976562C12.5177 0.000976562 10.9051 1.61364 10.9051 3.59577V3.79712C10.904 4.07647 10.7628 4.33232 10.5356 4.48321C10.4531 4.49992 10.3724 4.52552 10.2949 4.55967C9.98512 4.69646 9.62862 4.63279 9.38535 4.39762L9.31591 4.32813C8.63697 3.64997 7.73497 3.27665 6.77548 3.27665H6.77339C5.81316 3.27716 4.9106 3.65161 4.23012 4.33288C3.55152 5.01217 3.17809 5.91513 3.17865 6.87535C3.17916 7.83558 3.55361 8.73808 4.2325 9.41618L4.29962 9.4833C4.53479 9.72657 4.59846 10.0829 4.46173 10.3928C4.4517 10.4154 4.44252 10.4383 4.43397 10.4615C4.31707 10.7792 4.02475 10.9908 3.68723 11.003H3.59473C1.61266 11.003 0 12.6157 0 14.5978C0 16.58 1.61266 18.1927 3.5949 18.1925H3.7962C4.12642 18.1939 4.42372 18.3908 4.55377 18.6942C4.55541 18.6981 4.55711 18.702 4.55875 18.7058C4.69554 19.0156 4.63187 19.372 4.39665 19.6153L4.32953 19.6824C4.328 19.684 4.32647 19.6856 4.32488 19.6872C3.64775 20.3662 3.27517 21.2682 3.27568 22.2273C3.27619 23.1875 3.65064 24.0901 4.32998 24.7686C4.33162 24.7703 4.33332 24.772 4.33502 24.7737C5.73766 26.1715 8.01585 26.1692 9.4152 24.7682L9.48238 24.701C9.72559 24.4659 10.082 24.4021 10.3919 24.539C10.4144 24.5489 10.4373 24.5581 10.4604 24.5667C10.7783 24.6836 10.9898 24.9759 11.002 25.3135V25.4059C11.002 27.3881 12.6147 29.0008 14.5968 29.0008C16.5791 29.0008 18.1917 27.3881 18.1917 25.406V25.2048C18.1931 24.8746 18.39 24.5772 18.6934 24.4472C18.6973 24.4455 18.7011 24.4438 18.7049 24.4422C19.0148 24.3054 19.3712 24.369 19.6145 24.6042L19.684 24.6737C20.3629 25.3518 21.2649 25.7252 22.2244 25.7251H22.2265C23.1867 25.7246 24.0893 25.3502 24.7698 24.669C26.1705 23.2665 26.1693 20.9859 24.7674 19.5855L24.7003 19.5184C24.4652 19.2752 24.4015 18.9188 24.5382 18.6088C24.5399 18.6051 24.5416 18.6013 24.5431 18.5975ZM23.0288 21.1604C23.0318 21.1635 23.0349 21.1666 23.0379 21.1696L23.111 21.2427C23.5993 21.7306 23.5998 22.5248 23.11 23.0151C22.8737 23.2518 22.5594 23.3821 22.225 23.3823C21.8908 23.3823 21.5759 23.2523 21.338 23.0147L21.2654 22.942C21.2623 22.9389 21.2593 22.9359 21.2561 22.9329C20.3255 22.0227 18.9555 21.7732 17.7642 22.2964C16.6053 22.7959 15.8537 23.9331 15.8486 25.2001V25.406C15.8486 26.0964 15.287 26.6579 14.5967 26.6579C13.9064 26.6579 13.3448 26.0963 13.3448 25.406V25.297C13.3448 25.2879 13.3447 25.2787 13.3445 25.2696C13.3142 23.9718 12.5145 22.8419 11.3039 22.3809C10.1192 21.874 8.76344 22.1268 7.84032 23.0298C7.83726 23.0328 7.8342 23.0358 7.83114 23.0389L7.75796 23.112C7.27018 23.6004 6.47591 23.6009 5.9875 23.113C5.98609 23.1116 5.98325 23.1089 5.98325 23.1089C5.74814 22.8728 5.61866 22.5594 5.61843 22.2262C5.61821 21.8918 5.74831 21.5774 5.98461 21.3408L5.98864 21.3368L6.05876 21.2666C6.06181 21.2635 6.06487 21.2605 6.06787 21.2573C6.97803 20.3269 7.22753 18.9569 6.70445 17.7655C6.205 16.6066 5.06772 15.8549 3.80068 15.8498H3.59468C2.9044 15.8498 2.34281 15.2882 2.34281 14.5979C2.34281 13.9076 2.90446 13.3461 3.59468 13.346H3.70377C3.71288 13.346 3.72206 13.3459 3.73118 13.3457C5.02909 13.3153 6.15895 12.5157 6.61989 11.305C7.12671 10.1203 6.87398 8.7647 5.97102 7.84158C5.96802 7.83852 5.96496 7.83546 5.9619 7.8324L5.88878 7.75922C5.65219 7.52286 5.52181 7.20857 5.52164 6.87416C5.52141 6.53982 5.65151 6.22535 5.88974 5.98684C6.1261 5.75025 6.4404 5.61986 6.7748 5.61969C7.10898 5.61969 7.4239 5.74974 7.66173 5.98735L7.73446 6.06002C7.73746 6.06307 7.74058 6.06613 7.74363 6.06913C8.61686 6.92327 9.8771 7.1956 11.0137 6.79351C11.1211 6.77974 11.2264 6.75114 11.3264 6.70826C12.4887 6.21011 13.2431 5.07113 13.2481 3.80194V3.59594C13.2481 2.90566 13.8097 2.34407 14.5 2.34407C15.1902 2.34407 15.7519 2.90572 15.7519 3.59599V3.70973C15.7569 4.97207 16.5086 6.10935 17.6675 6.60886C18.859 7.1321 20.2289 6.88243 21.1594 5.97228C21.1625 5.96928 21.1655 5.96622 21.1686 5.96316L21.2418 5.89004C21.4781 5.65345 21.7925 5.52307 22.1268 5.5229C22.4599 5.5229 22.774 5.65215 23.0102 5.88698L23.0141 5.891C23.2508 6.12736 23.3812 6.44166 23.3813 6.77606C23.3816 7.10956 23.2522 7.42312 23.0172 7.65948L23.0137 7.66294L22.941 7.73566C22.938 7.73866 22.935 7.74172 22.9319 7.74484C22.0778 8.61806 21.8054 9.87836 22.2075 11.0149C22.2213 11.1224 22.2499 11.2277 22.2928 11.3277C22.791 12.49 23.93 13.2443 25.1992 13.2494H25.4051C26.0954 13.2494 26.657 13.811 26.657 14.5012C26.657 15.1915 26.0954 15.7532 25.4051 15.7532H25.2914C24.0291 15.7581 22.8919 16.5099 22.3923 17.6687C21.8691 18.8598 22.1187 20.2299 23.0288 21.1604Z" fill="currentColor"/>
    <path d="M14.5 9.6936C11.8497 9.6936 9.69348 11.8498 9.69348 14.5001C9.69348 17.1504 11.8497 19.3066 14.5 19.3066C17.1503 19.3066 19.3065 17.1504 19.3065 14.5001C19.3065 11.8498 17.1502 9.6936 14.5 9.6936ZM14.5 16.9636C13.1416 16.9636 12.0364 15.8585 12.0364 14.5C12.0364 13.1416 13.1416 12.0365 14.5 12.0365C15.8584 12.0365 16.9635 13.1416 16.9635 14.5C16.9635 15.8585 15.8584 16.9636 14.5 16.9636Z" fill="currentColor"/>
    </g>
  </svg>