<svg width="24" height="24" viewBox="0 0 29 27" fill="none" xmlns="http://www.w3.org/2000/svg">
    <path d="M22.9583 5.04159H20.4486C20.0426 2.74213 18.3304 0.843835 16.0092 0.246919C15.37 0.0813769 14.7054 0.47046 14.5375 1.11571C14.3707 1.76217 14.761 2.42071 15.4075 2.58625C17.0073 2.99829 18.125 4.44225 18.125 6.09767V19.5416H4.83333C3.50054 19.5416 2.41667 18.4577 2.41667 17.1249V12.2916H5.4375C6.10571 12.2916 6.64583 11.7503 6.64583 11.0833C6.64583 10.4163 6.10571 9.87492 5.4375 9.87492H2.41667C1.08387 9.87492 0 10.9588 0 12.2916V17.1249C0 19.3966 1.57567 21.307 3.69146 21.8217C3.64796 22.0646 3.625 22.3123 3.625 22.5624C3.625 24.8945 5.52208 26.7916 7.85417 26.7916C10.1863 26.7916 12.0833 24.8945 12.0833 22.5624C12.0833 22.3582 12.0676 22.1576 12.0386 21.9583H16.9614C16.9324 22.1576 16.9167 22.3582 16.9167 22.5624C16.9167 24.8945 18.8138 26.7916 21.1458 26.7916C23.4779 26.7916 25.375 24.8945 25.375 22.5624C25.375 22.3123 25.352 22.0646 25.3085 21.8217C27.4243 21.307 29 19.3966 29 17.1249V11.0833C29 7.75188 26.2897 5.04159 22.9583 5.04159ZM26.5833 11.0833V12.2916H20.5417V7.45825H22.9583C24.9569 7.45825 26.5833 9.08467 26.5833 11.0833ZM9.66667 22.5624C9.66667 23.5617 8.85346 24.3749 7.85417 24.3749C6.85488 24.3749 6.04167 23.5617 6.04167 22.5624C6.04167 22.334 6.08638 22.1323 6.15163 21.9583H9.55792C9.62317 22.1323 9.66788 22.334 9.66788 22.5624H9.66667ZM21.1458 24.3749C20.1465 24.3749 19.3333 23.5617 19.3333 22.5624C19.3333 22.334 19.378 22.1323 19.4433 21.9583H22.8496C22.9148 22.1323 22.9595 22.334 22.9595 22.5624C22.9595 23.5617 22.1451 24.3749 21.1458 24.3749ZM24.1667 19.5416H20.5417V14.7083H26.5833V17.1249C26.5833 18.4577 25.4995 19.5416 24.1667 19.5416ZM0 1.41659C0 0.749585 0.540125 0.208252 1.20833 0.208252H11.0611C11.7293 0.208252 12.2694 0.749585 12.2694 1.41659C12.2694 2.08359 11.7293 2.62492 11.0611 2.62492H1.20833C0.540125 2.62492 0 2.08359 0 1.41659ZM0 6.24992C0 5.58292 0.540125 5.04159 1.20833 5.04159H8.64442C9.31263 5.04159 9.85275 5.58292 9.85275 6.24992C9.85275 6.91692 9.31263 7.45825 8.64442 7.45825H1.20833C0.540125 7.45825 0 6.91692 0 6.24992Z" fill="currentColor"/>
</svg>
