<svg width="59" height="59" viewBox="0 0 59 59" fill="none" xmlns="http://www.w3.org/2000/svg">
<g clip-path="url(#clip0_426_194)">
<path d="M48.1244 5.08154H11.3744C7.99651 5.08154 5.24944 7.82861 5.24944 11.2065V47.9565C5.24944 51.3345 7.99651 54.0815 11.3744 54.0815H48.1244C51.5024 54.0815 54.2494 51.3345 54.2494 47.9565V11.2065C54.2494 7.82861 51.5024 5.08154 48.1244 5.08154Z" fill="#1976D2"/>
<path d="M46.5935 29.5815H38.9372V23.4565C38.9372 21.766 40.3092 21.9253 41.9997 21.9253H45.0622V14.269H38.9372C33.8627 14.269 29.7497 18.3819 29.7497 23.4565V29.5815H23.6247V37.2378H29.7497V54.0815H38.9372V37.2378H43.531L46.5935 29.5815Z" fill="#FAFAFA"/>
</g>
<defs>
<clipPath id="clip0_426_194">
<rect width="49" height="49" fill="white" transform="translate(5.24944 5.08154)"/>
</clipPath>
</defs>
</svg>
