<svg width="145" height="147" viewBox="0 0 145 147" fill="none" xmlns="http://www.w3.org/2000/svg">
<g clip-path="url(#clip0_426_139)">
<path d="M36.4737 34.2219H18.4755C18.4755 103.812 74.8838 160.231 144.474 160.231V142.23C84.8227 142.23 36.4737 93.8729 36.4737 34.2219Z" fill="#F6F7F9" fill-opacity="0.5"/>
<path d="M144.474 -37.7684V-55.7693C94.7642 -55.7693 54.4746 -15.4797 54.4746 34.2219C54.4746 83.9314 94.7642 124.232 144.474 124.232V106.231C104.706 106.231 72.4755 73.9926 72.4755 34.2245C72.4755 -5.53031 104.705 -37.7684 144.474 -37.7684Z" fill="#F6F7F9" fill-opacity="0.5"/>
<path d="M144.474 -19.7704C114.644 -19.7704 90.4737 4.39982 90.4737 34.2216C90.4737 64.0513 114.644 88.2295 144.474 88.2295V34.2295L198.474 34.2216C198.474 4.39982 174.306 -19.7704 144.474 -19.7704Z" fill="#F6F7F9" fill-opacity="0.5"/>
</g>
<defs>
<clipPath id="clip0_426_139">
<rect width="216" height="216" fill="white" transform="translate(0.474609 -55.7693)"/>
</clipPath>
</defs>
</svg>
