<?xml version="1.0"?>
<svg xmlns="http://www.w3.org/2000/svg" xmlns:xlink="http://www.w3.org/1999/xlink" xmlns:svgjs="http://svgjs.com/svgjs" version="1.1" width="512" height="512" x="0" y="0" viewBox="0 0 64 64" style="enable-background:new 0 0 512 512" xml:space="preserve" class=""><g><g xmlns="http://www.w3.org/2000/svg"><g><g><circle cx="53.98" cy="9.99" fill="#3b5892" r="8" data-original="#ff826e" class=""/></g><g><path d="m39.98 9.99v29h-2-2v-30c0-.56-.45-1-1-1h-5v-4h6c2.2 0 4 1.79 4 4z" fill="#5cd6b3" data-original="#5cd6b3" class=""/></g><g><path d="m31.98 54.99v1h-26c-2.21 0-4-1.8-4-4v-44c0-2.21 1.79-4 4-4h6v4h-5c-.56 0-1 .44-1 1v42c0 .55.44 1 1 1h25z" fill="#5cd6b3" data-original="#5cd6b3" class=""/></g><g><path d="m35.98 8.99v30h-4v13h-25c-.56 0-1-.45-1-1v-42c0-.56.44-1 1-1h5c0 1.1.89 2 2 2h14c1.1 0 2-.9 2-2h5c.55 0 1 .44 1 1z" fill="#e6e9ed" data-original="#e6e9ed" class=""/></g><g><path d="m9.98 39.99h10v8h-10z" fill="#597cc4" data-original="#fcd770" class=""/></g><g><path d="m29.98 3.99v4c0 1.1-.9 2-2 2h-14c-1.11 0-2-.9-2-2v-4c0-1.11.89-2 2-2h14c1.1 0 2 .89 2 2z" fill="#aab2bd" data-original="#aab2bd" class=""/></g><g><path d="m31.98 54.99h18 12v2c0 1.1-.9 2-2 2h-2c0-1.66-1.35-3-3-3-1.66 0-3 1.34-3 3h-10c0-1.66-1.35-3-3-3-1.66 0-3 1.34-3 3h-2c-1.11 0-2-.9-2-2v-1z" fill="#ccd1d9" data-original="#ccd1d9" class=""/></g><g><circle cx="54.98" cy="58.99" fill="#969faa" r="3" data-original="#969faa"/></g><g><circle cx="38.98" cy="58.99" fill="#969faa" r="3" data-original="#969faa"/></g><g><path d="m61.98 46.99v8h-12v-12h4 5z" fill="#3b5892" data-original="#ff826e" class=""/></g><g><path d="m31.98 38.99h18v16h-18z" fill="#3b5892" data-original="#d3a06c" class=""/></g><g><path d="m39.98 38.99h4v4h-6v-4z" fill="#597cc4" data-original="#b27946" class=""/></g></g><g><path d="m58.682 7.692-1.414-1.414-5.293 5.293-1.293-1.293-1.414 1.414 2.707 2.707z" fill="#000000" data-original="#000000" class=""/><path d="m17.775 13.585-1.6-1.199-5.308 7.077-1.185-1.185-1.414 1.414 2.815 2.816z" fill="#000000" data-original="#000000" class=""/><path d="m54.975 41.985v-23.059c4.493-.499 8-4.316 8-8.941 0-4.963-4.038-9-9-9-4.624 0-8.442 3.507-8.941 8h-4.059v-1c0-2.757-2.243-5-5-5h-5.184c-.414-1.161-1.514-2-2.816-2h-14c-1.302 0-2.402.839-2.816 2h-5.184c-2.757 0-5 2.243-5 5v44c0 2.757 2.243 5 5 5h25c0 1.654 1.346 3 3 3h1.142c.447 1.721 2 3 3.858 3s3.411-1.279 3.858-3h8.284c.447 1.721 2 3 3.858 3s3.411-1.279 3.858-3h1.142c1.654 0 3-1.346 3-3v-10.333l-3.5-4.667zm-1-39c3.86 0 7 3.141 7 7s-3.14 7-7 7-7-3.141-7-7 3.14-7 7-7zm-8.941 8c.463 4.165 3.777 7.478 7.941 7.941v23.059h-2v-4h-10v-27zm-12.059 43v-14h4v4h8v-4h4v14zm-21.816-45c.414 1.161 1.514 2 2.816 2h14c1.302 0 2.402-.839 2.816-2h4.184v29h-4v13h-24v-42zm27.816 31h4v2h-4zm0-32v30h-2v-29c0-1.103-.897-2-2-2h-4v-2h5c1.654 0 3 1.346 3 3zm-26-4c0-.552.449-1 1-1h14c.551 0 1 .448 1 1v4c0 .552-.449 1-1 1h-14c-.551 0-1-.448-1-1zm-7 51c-1.654 0-3-1.346-3-3v-44c0-1.654 1.346-3 3-3h5v2h-4c-1.103 0-2 .897-2 2v42c0 1.103.897 2 2 2h24v1 1zm29.142 3h-1.142c-.551 0-1-.448-1-1v-1h3.382c-.597.522-1.035 1.211-1.24 2zm3.858 3c-1.103 0-2-.897-2-2s.897-2 2-2 2 .897 2 2-.897 2-2 2zm12.142-3h-8.284c-.205-.79-.643-1.479-1.24-2h10.764c-.597.522-1.035 1.211-1.24 2zm3.858 3c-1.103 0-2-.897-2-2s.897-2 2-2 2 .897 2 2-.897 2-2 2zm5-3h-1.142c-.205-.79-.643-1.479-1.24-2h3.382v1c0 .552-.449 1-1 1zm1-4h-10v-10h7.5l2.5 3.333z" fill="#000000" data-original="#000000" class=""/><path d="m19.975 12.985h13v2h-13z" fill="#000000" data-original="#000000" class=""/><path d="m30.975 16.985h2v2h-2z" fill="#000000" data-original="#000000" class=""/><path d="m19.975 16.985h9v2h-9z" fill="#000000" data-original="#000000" class=""/><path d="m19.975 20.985h13v2h-13z" fill="#000000" data-original="#000000" class=""/><path d="m17.775 25.585-1.6-1.199-5.308 7.077-1.185-1.185-1.414 1.414 2.815 2.816z" fill="#000000" data-original="#000000" class=""/><path d="m19.975 24.985h13v2h-13z" fill="#000000" data-original="#000000" class=""/><path d="m30.975 28.985h2v2h-2z" fill="#000000" data-original="#000000" class=""/><path d="m19.975 28.985h9v2h-9z" fill="#000000" data-original="#000000" class=""/><path d="m19.975 32.985h13v2h-13z" fill="#000000" data-original="#000000" class=""/><path d="m8.975 48.985h12v-10h-12zm2-8h8v6h-8z" fill="#000000" data-original="#000000" class=""/><path d="m22.975 38.985h6v2h-6z" fill="#000000" data-original="#000000" class=""/><path d="m22.975 42.985h6v2h-6z" fill="#000000" data-original="#000000" class=""/><path d="m22.975 46.985h6v2h-6z" fill="#000000" data-original="#000000" class=""/></g></g></g></svg>
