<svg id="Layer_3" height="512" viewBox="0 0 64 64" width="512" xmlns="http://www.w3.org/2000/svg" data-name="Layer 3"><path d="m32 4h30v42h-30z" fill="#d3d9ea"/><path d="m18 34.001 3 14h22l3-14z" fill="#f2f2f2"/><path d="m4 34h4.4a2 2 0 0 1 1.95 1.556l3.939 17.33a4 4 0 0 0 3.904 3.114h25.807a2 2 0 0 0 2-2 2 2 0 0 0 -2-2h-24.4a2 2 0 0 1 -1.951-1.557l-3.942-17.33a4 4 0 0 0 -3.901-3.113h-5.806a2 2 0 0 0 -2 2 2 2 0 0 0 2 2z" fill="#3b5892"/><path d="m46.777 33.372a1 1 0 0 0 -.777-.372h-28a1 1 0 0 0 -.977 1.209l3 14a1 1 0 0 0 .977.791h22a1 1 0 0 0 .978-.791l3-14a1 1 0 0 0 -.201-.837zm-3.086 6.628h-4.538l.715-5h4.895zm-12.691 2v5h-3.132l-.715-5zm-4.132-2-.715-5h4.847v5zm6.132 2h3.847l-.715 5h-3.132zm0-2v-5h4.847l-.715 5zm-8.868-5 .715 5h-4.538l-1.072-5zm-3.4 7h4.4l.715 5h-4.038zm21.455 5h-4.034l.715-5h4.395z" fill="#5e87ca"/><circle cx="24" cy="59.001" fill="#686868" r="3"/><circle cx="40" cy="59.001" fill="#686868" r="3"/><path d="m41 2h12v4h-12z" fill="#5e87ca"/><path d="m51 3v-1h-10v2h9a1 1 0 0 0 1-1z" fill="#78a0d4"/><g fill="#9da1bf"><path d="m37 10h18v2h-18z"/><path d="m35 14h24v2h-24z"/><path d="m35 18h24v2h-24z"/><path d="m35 22h24v2h-24z"/><path d="m35 26h24v2h-24z"/><path d="m57 10h2v2h-2z"/></g><circle cx="15" cy="12" fill="#4d8c28" r="10"/><ellipse cx="14" cy="12" fill="#559b2d" rx="9" ry="9.95"/><path d="m9 13 4 4 8-8-2-2-6 6-2-2z" fill="#f2f2f2"/></svg>