<?xml version="1.0"?>
<svg xmlns="http://www.w3.org/2000/svg" xmlns:xlink="http://www.w3.org/1999/xlink" xmlns:svgjs="http://svgjs.com/svgjs" version="1.1" width="512" height="512" x="0" y="0" viewBox="0 0 64 64" style="enable-background:new 0 0 512 512" xml:space="preserve" class=""><g><path xmlns="http://www.w3.org/2000/svg" d="m22 52 1-1a4.242 4.242 0 0 0 0-6l-.161-.161a53.242 53.242 0 0 0 -4.639 3.366z" fill="#4a6fb8" data-original="#f0ae42" class=""/><path xmlns="http://www.w3.org/2000/svg" d="m18.2 48.205 7.8 7.795 2.172-2.172a2.828 2.828 0 0 1 2-.828 2.828 2.828 0 0 1 2.828 2.828 2.828 2.828 0 0 1 -.828 2l-2.758 2.758a4.828 4.828 0 0 1 -3.414 1.414 4.828 4.828 0 0 1 -3.414-1.414l-8.586-8.586.071-.07a53.312 53.312 0 0 1 4.129-3.725z" fill="#3b5892" data-original="#d5883e" class=""/><path xmlns="http://www.w3.org/2000/svg" d="m17 21-.007.021a53.478 53.478 0 0 1 -9.193 16.779l10.4 10.405a53.478 53.478 0 0 1 16.774-9.2l.026-.005-.021.007-17.986-17.986z" fill="#cccccc" data-original="#cccccc" class=""/><path xmlns="http://www.w3.org/2000/svg" d="m18.2 44.205a53.492 53.492 0 0 1 13.86-8.118l-15.067-15.066a53.478 53.478 0 0 1 -7.466 14.505z" fill="#d8d8d8" data-original="#d8d8d8" class=""/><path xmlns="http://www.w3.org/2000/svg" d="m18.2 48.205-10.4-10.405a53.312 53.312 0 0 1 -3.724 4.134 7.072 7.072 0 0 0 -2.071 5h-.005a7.071 7.071 0 0 0 7.071 7.066 7.072 7.072 0 0 0 5-2.071 53.312 53.312 0 0 1 4.129-3.724z" fill="#4a6fb8" data-original="#f0ae42" class=""/><path xmlns="http://www.w3.org/2000/svg" d="m39.172 35.172-18.344-18.344a2.831 2.831 0 0 0 -2-.828 2.828 2.828 0 0 0 -2.828 2.828 2.827 2.827 0 0 0 .828 2l18.344 18.344a2.827 2.827 0 0 0 2 .828 2.828 2.828 0 0 0 2.828-2.828 2.831 2.831 0 0 0 -.828-2z" fill="#4a6fb8" data-original="#f0ae42" class=""/><path xmlns="http://www.w3.org/2000/svg" d="m26.5 22.5.5-.5a4.242 4.242 0 0 1 6 0 4.242 4.242 0 0 1 0 6l-.5.5" fill="#4298f0" data-original="#fce797" class=""/><path xmlns="http://www.w3.org/2000/svg" d="m62 15a4.913 4.913 0 0 0 -1.027-3.013 5.953 5.953 0 0 1 -1.351-3.087 4.938 4.938 0 0 0 -4.522-4.522 5.954 5.954 0 0 1 -3.087-1.351 4.933 4.933 0 0 0 -6.026 0 5.954 5.954 0 0 1 -3.087 1.351 4.938 4.938 0 0 0 -4.522 4.522 5.953 5.953 0 0 1 -1.351 3.088 4.933 4.933 0 0 0 0 6.026 5.953 5.953 0 0 1 1.351 3.086 4.938 4.938 0 0 0 4.522 4.522 5.953 5.953 0 0 1 3.088 1.351 4.933 4.933 0 0 0 6.026 0 5.953 5.953 0 0 1 3.086-1.351 4.938 4.938 0 0 0 4.522-4.522 5.954 5.954 0 0 1 1.351-3.087 4.915 4.915 0 0 0 1.027-3.013z" fill="#4a6fb8" data-original="#d23f34" class=""/><path xmlns="http://www.w3.org/2000/svg" d="m52.586 9.414-9.172 9.172a1.415 1.415 0 0 0 -.414 1 1.414 1.414 0 0 0 1.414 1.414 1.415 1.415 0 0 0 1-.414l9.172-9.172a1.415 1.415 0 0 0 .414-1 1.414 1.414 0 0 0 -1.414-1.414 1.415 1.415 0 0 0 -1 .414z" fill="#f2f2f2" data-original="#f2f2f2" class=""/><circle xmlns="http://www.w3.org/2000/svg" cx="44" cy="10" fill="#f2f2f2" r="2" data-original="#f2f2f2" class=""/><circle xmlns="http://www.w3.org/2000/svg" cx="54" cy="20" fill="#f2f2f2" r="2" data-original="#f2f2f2" class=""/><g xmlns="http://www.w3.org/2000/svg" fill="#fce797"><path d="m27 15h-2v-.929a15.968 15.968 0 0 0 -4.707-11.364l1.414-1.414a17.953 17.953 0 0 1 5.293 12.778z" fill="#4298f0" data-original="#fce797" class=""/><path d="m31 17h-2a20.18 20.18 0 0 1 5.95-14.364l1.343-1.343 1.414 1.414-1.343 1.343a18.194 18.194 0 0 0 -5.364 12.95z" fill="#4298f0" data-original="#fce797" class=""/><path d="m58.293 39.707a22.75 22.75 0 0 0 -16.193-6.707h-.1v-2h.1a24.736 24.736 0 0 1 17.606 7.293z" fill="#4298f0" data-original="#fce797" class=""/><path d="m52 54h-2a18.194 18.194 0 0 0 -5.364-12.95l-2.343-2.343 1.414-1.414 2.343 2.343a20.18 20.18 0 0 1 5.95 14.364z" fill="#4298f0" data-original="#fce797" class=""/><path d="m14.105 13.447a20.456 20.456 0 0 0 -11.905-10.327l-.514-.171.632-1.9.515.172a22.445 22.445 0 0 1 13.067 11.332z" fill="#4298f0" data-original="#fce797" class=""/></g><path xmlns="http://www.w3.org/2000/svg" d="m33.893 28.479a5.22 5.22 0 0 0 -7.372-7.372l-4.986-4.986a3.818 3.818 0 0 0 -5.678 5.094 52.75 52.75 0 0 1 -12.493 20.007 8.066 8.066 0 0 0 10.577 12.133l7.938 7.938a5.828 5.828 0 0 0 8.242 0l2.757-2.757a3.828 3.828 0 1 0 -5.414-5.414l-1.464 1.464-2.586-2.586.293-.293a5.248 5.248 0 0 0 .643-6.626 52.664 52.664 0 0 1 10.436-4.938 3.789 3.789 0 0 0 2.386.857 3.828 3.828 0 0 0 2.707-6.535zm-1.6-5.772a3.236 3.236 0 0 1 .186 4.358l-4.544-4.544a3.237 3.237 0 0 1 4.358.186zm-14 24.167-9.167-9.162a54.834 54.834 0 0 0 8.275-14.9l15.784 15.788a54.834 54.834 0 0 0 -14.897 8.274zm-15.293.055a6.03 6.03 0 0 1 1.778-4.293c1.076-1.076 2.088-2.212 3.069-3.375l8.892 8.892c-1.163.981-2.3 1.993-3.375 3.069a6.071 6.071 0 0 1 -10.364-4.293zm23.707 9.778 2.171-2.171a1.829 1.829 0 1 1 2.586 2.586l-2.757 2.757a3.921 3.921 0 0 1 -5.414 0l-7.86-7.86q1.317-1.273 2.725-2.447l7.135 7.135a1 1 0 0 0 1.414 0zm-4.414-6.414-.293.293-2.283-2.286c.96-.744 1.95-1.448 2.96-2.124a3.244 3.244 0 0 1 -.384 4.117zm14.878-11.293a1.815 1.815 0 0 1 -1.292-.535l-18.344-18.344a1.829 1.829 0 0 1 2.586-2.586l18.344 18.344a1.829 1.829 0 0 1 -1.294 3.121z" fill="#000000" data-original="#000000" class=""/><path xmlns="http://www.w3.org/2000/svg" d="m61.765 11.376a4.933 4.933 0 0 1 -1.147-2.559 5.936 5.936 0 0 0 -5.436-5.435 4.925 4.925 0 0 1 -2.558-1.148 6.026 6.026 0 0 0 -7.248 0 4.93 4.93 0 0 1 -2.559 1.147 5.936 5.936 0 0 0 -5.435 5.436 4.928 4.928 0 0 1 -1.148 2.558 5.937 5.937 0 0 0 0 7.248 4.933 4.933 0 0 1 1.147 2.559 5.936 5.936 0 0 0 5.436 5.435 4.928 4.928 0 0 1 2.558 1.148 5.937 5.937 0 0 0 7.248 0 4.933 4.933 0 0 1 2.559-1.147 5.936 5.936 0 0 0 5.435-5.436 4.925 4.925 0 0 1 1.148-2.558 5.937 5.937 0 0 0 0-7.248zm-1.584 6.024a6.822 6.822 0 0 0 -1.556 3.616 3.936 3.936 0 0 1 -3.606 3.606 6.825 6.825 0 0 0 -3.619 1.559 4 4 0 0 1 -4.806 0 6.825 6.825 0 0 0 -3.616-1.556 3.936 3.936 0 0 1 -3.606-3.606 6.825 6.825 0 0 0 -1.553-3.619 3.935 3.935 0 0 1 0-4.806 6.825 6.825 0 0 0 1.556-3.616 3.936 3.936 0 0 1 3.606-3.606 6.822 6.822 0 0 0 3.619-1.553 3.935 3.935 0 0 1 4.806 0 6.822 6.822 0 0 0 3.616 1.556 3.936 3.936 0 0 1 3.606 3.606 6.825 6.825 0 0 0 1.553 3.619 3.935 3.935 0 0 1 0 4.806z" fill="#000000" data-original="#000000" class=""/><path xmlns="http://www.w3.org/2000/svg" d="m56 10.414a2.414 2.414 0 0 0 -4.121-1.707l-9.172 9.172a2.414 2.414 0 0 0 3.414 3.414l9.172-9.172a2.4 2.4 0 0 0 .707-1.707zm-2.121.293-9.172 9.172a.43.43 0 0 1 -.707-.293.417.417 0 0 1 .121-.293l9.172-9.172a.414.414 0 0 1 .586.586z" fill="#000000" data-original="#000000" class=""/><path xmlns="http://www.w3.org/2000/svg" d="m47 10a3 3 0 1 0 -3 3 3 3 0 0 0 3-3zm-4 0a1 1 0 1 1 1 1 1 1 0 0 1 -1-1z" fill="#000000" data-original="#000000" class=""/><path xmlns="http://www.w3.org/2000/svg" d="m54 17a3 3 0 1 0 3 3 3 3 0 0 0 -3-3zm0 4a1 1 0 1 1 1-1 1 1 0 0 1 -1 1z" fill="#000000" data-original="#000000" class=""/><path xmlns="http://www.w3.org/2000/svg" d="m25 15h2v-.929a17.953 17.953 0 0 0 -5.293-12.778l-1.414 1.414a15.968 15.968 0 0 1 4.707 11.364z" fill="#000000" data-original="#000000" class=""/><path xmlns="http://www.w3.org/2000/svg" d="m36.364 4.05 1.343-1.343-1.414-1.414-1.343 1.343a20.18 20.18 0 0 0 -5.95 14.364h2a18.194 18.194 0 0 1 5.364-12.95z" fill="#000000" data-original="#000000" class=""/><path xmlns="http://www.w3.org/2000/svg" d="m42 31v2h.1a22.75 22.75 0 0 1 16.192 6.707l1.414-1.414a24.736 24.736 0 0 0 -17.606-7.293z" fill="#000000" data-original="#000000" class=""/><path xmlns="http://www.w3.org/2000/svg" d="m43.707 37.293-1.414 1.414 2.343 2.343a18.194 18.194 0 0 1 5.364 12.95h2a20.18 20.18 0 0 0 -5.95-14.364z" fill="#000000" data-original="#000000" class=""/><path xmlns="http://www.w3.org/2000/svg" d="m14.105 13.447 1.79-.894a22.445 22.445 0 0 0 -13.064-11.33l-.515-.172-.632 1.9.516.169a20.456 20.456 0 0 1 11.905 10.327z" fill="#000000" data-original="#000000" class=""/></g></svg>
