<svg width="24" height="24" viewBox="0 0 24 24" fill="none" xmlns="http://www.w3.org/2000/svg">
<g clip-path="url(#clip0_347_279)">
<path d="M16.6667 5.33333H7.33333C5.49333 5.33333 4 6.82666 4 8.66666V15.3333C4 17.1733 5.49333 18.6667 7.33333 18.6667H16.6667C18.5067 18.6667 20 17.1733 20 15.3333V8.66666C20 6.82666 18.5067 5.33333 16.6667 5.33333ZM7.33333 6.66666H16.6667C17.7667 6.66666 18.6667 7.56666 18.6667 8.66666H5.33333C5.33333 7.56666 6.23333 6.66666 7.33333 6.66666ZM16.6667 17.3333H7.33333C6.23333 17.3333 5.33333 16.4333 5.33333 15.3333V9.99999H18.6667V15.3333C18.6667 16.4333 17.7667 17.3333 16.6667 17.3333ZM10.6667 12C10.6667 12.3667 10.3667 12.6667 10 12.6667H9.33333V15.3333C9.33333 15.7 9.03333 16 8.66667 16C8.3 16 8 15.7 8 15.3333V12.6667H7.33333C6.96667 12.6667 6.66667 12.3667 6.66667 12C6.66667 11.6333 6.96667 11.3333 7.33333 11.3333H10C10.3667 11.3333 10.6667 11.6333 10.6667 12ZM17.3333 12C17.3333 12.3667 17.0333 12.6667 16.6667 12.6667H12.6667C12.3 12.6667 12 12.3667 12 12C12 11.6333 12.3 11.3333 12.6667 11.3333H16.6667C17.0333 11.3333 17.3333 11.6333 17.3333 12ZM17.3333 14.6667C17.3333 15.0333 17.0333 15.3333 16.6667 15.3333H12.6667C12.3 15.3333 12 15.0333 12 14.6667C12 14.3 12.3 14 12.6667 14H16.6667C17.0333 14 17.3333 14.3 17.3333 14.6667Z" fill="#D9D9D9"/>
</g>
<defs>
<clipPath id="clip0_347_279">
<rect width="16" height="16" fill="white" transform="translate(4 4)"/>
</clipPath>
</defs>
</svg>
