<svg width="24" height="24" viewBox="0 0 24 24" fill="none" xmlns="http://www.w3.org/2000/svg">
<path fill-rule="evenodd" clip-rule="evenodd" d="M16.2789 14.7907V17.3953C16.2789 18.1142 15.6962 18.6976 14.9766 18.6976H9.02315C8.30352 18.6976 7.72083 18.1142 7.72083 17.3953V14.7907C7.72083 13.853 8.09292 12.954 8.75598 12.291C9.41905 11.6279 10.318 11.2558 11.2557 11.2558H12.7441C13.6817 11.2558 14.5807 11.6279 15.2438 12.291C15.9068 12.954 16.2789 13.853 16.2789 14.7907Z" fill="white"/>
<path d="M11.9999 10.8837C13.5412 10.8837 14.7906 9.63428 14.7906 8.09303C14.7906 6.55177 13.5412 5.30234 11.9999 5.30234C10.4587 5.30234 9.20923 6.55177 9.20923 8.09303C9.20923 9.63428 10.4587 10.8837 11.9999 10.8837Z" fill="white"/>
<path d="M17.5813 10.8837C18.6088 10.8837 19.4418 10.0507 19.4418 9.02321C19.4418 7.99571 18.6088 7.16275 17.5813 7.16275C16.5538 7.16275 15.7209 7.99571 15.7209 9.02321C15.7209 10.0507 16.5538 10.8837 17.5813 10.8837Z" fill="white"/>
<path d="M6.41844 10.8837C7.44595 10.8837 8.2789 10.0507 8.2789 9.02321C8.2789 7.99571 7.44595 7.16275 6.41844 7.16275C5.39094 7.16275 4.55798 7.99571 4.55798 9.02321C4.55798 10.0507 5.39094 10.8837 6.41844 10.8837Z" fill="white"/>
<path fill-rule="evenodd" clip-rule="evenodd" d="M6.98492 17.5814H5.30232C4.95702 17.5814 4.62586 17.4444 4.38177 17.1996C4.13693 16.9555 4 16.6243 4 16.279V13.3023C4 12.7598 4.21581 12.2389 4.59907 11.8549C4.98307 11.4716 5.504 11.2558 6.0465 11.2558H6.79069C7.31013 11.2558 7.80948 11.4538 8.18827 11.8072C7.41208 12.6057 6.97673 13.6759 6.97673 14.7907V17.3953C6.97673 17.4578 6.97971 17.5203 6.98492 17.5814Z" fill="white"/>
<path fill-rule="evenodd" clip-rule="evenodd" d="M15.8116 11.8072C16.1904 11.4538 16.6898 11.2558 17.2092 11.2558H17.9534C18.4959 11.2558 19.0168 11.4716 19.4008 11.8549C19.7841 12.2389 19.9999 12.7598 19.9999 13.3023V16.279C19.9999 16.6243 19.863 16.9555 19.6181 17.1996C19.3741 17.4444 19.0429 17.5814 18.6976 17.5814H17.015C17.0202 17.5203 17.0232 17.4578 17.0232 17.3953V14.7907C17.0232 13.6759 16.5878 12.6057 15.8116 11.8072Z" fill="white"/>
</svg>
