<svg width="24" height="24" viewBox="0 0 24 24" fill="none" xmlns="http://www.w3.org/2000/svg">
<path d="M11.9999 10.4691C13.4987 10.4691 14.718 9.2498 14.718 7.75104C14.718 6.25228 13.4987 5.03296 11.9999 5.03296C10.5012 5.03296 9.28186 6.25228 9.28186 7.75104C9.28186 9.2498 10.5012 10.4691 11.9999 10.4691ZM11.9999 5.97023C12.9819 5.97023 13.7808 6.7691 13.7808 7.75104C13.7808 8.73299 12.9819 9.53185 11.9999 9.53185C11.018 9.53185 10.2191 8.73299 10.2191 7.75104C10.2191 6.7691 11.018 5.97023 11.9999 5.97023Z" fill="#D9D9D9"/>
<path d="M17.4984 10.4691C18.4459 10.4691 19.2167 9.69822 19.2167 8.75074C19.2167 7.80325 18.4459 7.03241 17.4984 7.03241C16.5509 7.03241 15.7801 7.80325 15.7801 8.75074C15.7801 9.69822 16.5509 10.4691 17.4984 10.4691ZM17.4984 7.96968C17.9291 7.96968 18.2795 8.32006 18.2795 8.75074C18.2795 9.18141 17.9291 9.5318 17.4984 9.5318C17.0677 9.5318 16.7174 9.18141 16.7174 8.75074C16.7174 8.32006 17.0677 7.96968 17.4984 7.96968Z" fill="#D9D9D9"/>
<path d="M17.8767 11.5313H17.1518C16.2977 11.5313 15.5604 12.036 15.2244 12.7608C14.5327 12.0057 13.5391 11.5313 12.4367 11.5313H11.5633C10.4609 11.5313 9.46733 12.0057 8.77559 12.7608C8.43958 12.036 7.70226 11.5313 6.84813 11.5313H6.12331C4.95359 11.5313 4.00195 12.4772 4.00195 13.6399V17.0519C4.00195 17.5566 4.41416 17.9673 4.92085 17.9673H7.78662C7.83467 18.5265 8.30493 18.967 8.87644 18.967H15.1236C15.6951 18.967 16.1653 18.5265 16.2134 17.9673H19.0464C19.5712 17.9673 19.9981 17.5421 19.9981 17.0194V13.6399C19.998 12.4772 19.0464 11.5313 17.8767 11.5313ZM4.93922 13.6399C4.93922 12.994 5.47041 12.4686 6.12331 12.4686H6.84813C7.50103 12.4686 8.03221 12.994 8.03221 13.6399V13.9608C7.71707 14.7813 7.78227 15.2731 7.78227 17.03H4.93922V13.6399ZM15.2804 17.8729C15.2804 17.9594 15.2101 18.0297 15.1236 18.0297H8.87641C8.7899 18.0297 8.71954 17.9594 8.71954 17.8729V15.3124C8.71954 13.7443 9.99523 12.4686 11.5633 12.4686H12.4367C14.0047 12.4686 15.2804 13.7443 15.2804 15.3123V17.8729ZM19.0608 17.0194C19.0608 17.0355 19.2355 17.03 16.2177 17.03C16.2177 15.2601 16.2824 14.78 15.9678 13.9608V13.6399C15.9678 12.994 16.4989 12.4686 17.1518 12.4686H17.8767C18.5296 12.4686 19.0608 12.994 19.0608 13.6399V17.0194Z" fill="#D9D9D9"/>
<path d="M6.50147 10.4691C7.44896 10.4691 8.2198 9.69822 8.2198 8.75074C8.2198 7.80325 7.44896 7.03241 6.50147 7.03241C5.55398 7.03241 4.78314 7.80325 4.78314 8.75074C4.78314 9.69822 5.55398 10.4691 6.50147 10.4691ZM6.50147 7.96968C6.93215 7.96968 7.28253 8.32006 7.28253 8.75074C7.28253 9.18141 6.93215 9.5318 6.50147 9.5318C6.07079 9.5318 5.72041 9.18141 5.72041 8.75074C5.72041 8.32006 6.07079 7.96968 6.50147 7.96968Z" fill="#D9D9D9"/>
</svg>
