<svg width="24" height="24" viewBox="0 0 24 24" fill="none" xmlns="http://www.w3.org/2000/svg">
<path d="M11.0616 15.7349C11.61 16.1741 12.3898 16.1739 12.9379 15.7343L18.5422 11.2393C19.2894 10.6432 19.2906 9.50795 18.5447 8.91027L12.9379 4.41777C12.3898 3.97855 11.6102 3.97855 11.0621 4.41777L5.44988 8.91461C4.70589 9.51074 4.70541 10.6426 5.44889 11.2393L11.0616 15.7349Z" fill="white"/>
<path fill-rule="evenodd" clip-rule="evenodd" d="M12.9287 18.0611C12.3806 18.5002 11.6012 18.5003 11.053 18.0612L6.08409 14.0814C5.73038 13.798 5.21297 13.8605 4.93678 14.2198C4.66468 14.5738 4.73075 15.0813 5.08441 15.3538L11.083 19.9761C11.6225 20.3918 12.3744 20.3919 12.9139 19.9763L18.9096 15.3579C19.2663 15.0832 19.3327 14.5714 19.058 14.2147C18.7796 13.8531 18.2585 13.7905 17.9023 14.0759L12.9287 18.0611Z" fill="white"/>
</svg>
