<svg width="24" height="24" viewBox="0 0 24 24" fill="none" xmlns="http://www.w3.org/2000/svg">
<g clip-path="url(#clip0_347_219)">
<path d="M16.3333 6H15.9053C15.758 5.42924 15.4256 4.92339 14.9603 4.56153C14.4949 4.19968 13.9228 4.00221 13.3333 4H10.6667C10.0772 4.00221 9.50506 4.19968 9.03971 4.56153C8.57437 4.92339 8.24203 5.42924 8.09467 6H7.66667C6.69453 6.00106 5.76252 6.38771 5.07511 7.07511C4.38771 7.76252 4.00106 8.69453 4 9.66667L4 16.3333C4.00106 17.3055 4.38771 18.2375 5.07511 18.9249C5.76252 19.6123 6.69453 19.9989 7.66667 20H16.3333C17.3054 19.9988 18.2373 19.6121 18.9247 18.9247C19.6121 18.2373 19.9988 17.3054 20 16.3333V9.66667C19.9988 8.69459 19.6121 7.76267 18.9247 7.07531C18.2373 6.38794 17.3054 6.00124 16.3333 6ZM7.66667 8H16.3333C16.7754 8 17.1993 8.17559 17.5118 8.48816C17.8244 8.80072 18 9.22464 18 9.66667V11.3333H6V9.66667C6 9.22464 6.17559 8.80072 6.48816 8.48816C6.80072 8.17559 7.22464 8 7.66667 8ZM16.3333 18H7.66667C7.22464 18 6.80072 17.8244 6.48816 17.5118C6.17559 17.1993 6 16.7754 6 16.3333V13.3333H10.6667C10.6667 13.687 10.8071 14.0261 11.0572 14.2761C11.3072 14.5262 11.6464 14.6667 12 14.6667C12.3536 14.6667 12.6928 14.5262 12.9428 14.2761C13.1929 14.0261 13.3333 13.687 13.3333 13.3333H18V16.3333C18 16.7754 17.8244 17.1993 17.5118 17.5118C17.1993 17.8244 16.7754 18 16.3333 18Z" fill="#D9D9D9"/>
</g>
<defs>
<clipPath id="clip0_347_219">
<rect width="16" height="16" fill="white" transform="translate(4 4)"/>
</clipPath>
</defs>
</svg>
