<svg width="24" height="24" viewBox="0 0 24 24" fill="none" xmlns="http://www.w3.org/2000/svg">
<g clip-path="url(#clip0_347_252)">
<path d="M10 12C12.206 12 14 10.206 14 8C14 5.794 12.206 4 10 4C7.794 4 6 5.794 6 8C6 10.206 7.794 12 10 12ZM10 5.33333C11.4707 5.33333 12.6667 6.52933 12.6667 8C12.6667 9.47067 11.4707 10.6667 10 10.6667C8.52933 10.6667 7.33333 9.47067 7.33333 8C7.33333 6.52933 8.52933 5.33333 10 5.33333ZM11.1667 14.8133C10.788 14.716 10.3953 14.6667 10 14.6667C7.42667 14.6667 5.33333 16.76 5.33333 19.3333C5.33333 19.7013 5.03467 20 4.66667 20C4.29867 20 4 19.7013 4 19.3333C4 16.0253 6.692 13.3333 10 13.3333C10.508 13.3333 11.0127 13.3967 11.5 13.5227C11.8567 13.6147 12.0707 13.978 11.9793 14.3347C11.888 14.6913 11.526 14.9053 11.1673 14.814L11.1667 14.8133ZM19.414 11.9193C18.658 11.1633 17.3407 11.1633 16.5853 11.9193L12.114 16.3907C11.6107 16.894 11.3327 17.564 11.3327 18.2767V19.334C11.3327 19.702 11.6313 20.0007 11.9993 20.0007H13.0567C13.7693 20.0007 14.4387 19.7227 14.942 19.2193L19.4133 14.748C19.7913 14.37 19.9993 13.868 19.9993 13.3333C19.9993 12.7987 19.7913 12.2967 19.414 11.9193ZM18.4707 13.8047L13.9987 18.276C13.7473 18.528 13.4127 18.6667 13.056 18.6667H12.6653V18.276C12.6653 17.92 12.804 17.5853 13.056 17.3333L17.528 12.862C17.7793 12.61 18.2187 12.61 18.4707 12.862C18.5967 12.9873 18.666 13.1547 18.666 13.3333C18.666 13.512 18.5967 13.6787 18.4707 13.8047Z" fill="#D9D9D9"/>
</g>
<defs>
<clipPath id="clip0_347_252">
<rect width="16" height="16" fill="white" transform="translate(4 4)"/>
</clipPath>
</defs>
</svg>
