<svg width="24" height="24" viewBox="0 0 24 24" fill="none" xmlns="http://www.w3.org/2000/svg">
<g clip-path="url(#clip0_347_255)">
<path d="M10 12C7.794 12 6 10.206 6 8C6 5.794 7.794 4 10 4C12.206 4 14 5.794 14 8C14 10.206 12.206 12 10 12ZM12.8467 16.9867C12.3047 17.5287 12 18.2633 12 19.03V20H12.97C13.7367 20 14.4713 19.6953 15.0133 19.1533L19.5513 14.6153C20.1493 14.0173 20.1493 13.0467 19.5513 12.4487C18.9533 11.8507 17.9827 11.8507 17.3847 12.4487L12.8467 16.9867ZM10.6667 19.03C10.6667 17.902 11.106 16.8413 11.9033 16.044L13.4873 14.46C12.5033 13.7533 11.3013 13.3327 10 13.3327C6.692 13.3333 4 16.0253 4 19.3333C4 19.7013 4.29867 20 4.66667 20H10.6667V19.03Z" fill="white"/>
</g>
<defs>
<clipPath id="clip0_347_255">
<rect width="16" height="16" fill="white" transform="translate(4 4)"/>
</clipPath>
</defs>
</svg>
