<svg width="24" height="24" viewBox="0 0 24 24" fill="none" xmlns="http://www.w3.org/2000/svg">
<g clip-path="url(#clip0_347_303)">
<path d="M18.6667 11.9667V16C18.6667 16.3473 18.4007 16.636 18.0553 16.6647C18.0367 16.666 18.018 16.6667 18 16.6667C17.6773 16.6667 17.3973 16.4333 17.3433 16.11C17.084 14.5547 14.93 14 13.0007 14H10.0007V6.66667H13.0007C14.93 6.66667 17.084 6.11267 17.3433 4.55667C17.4007 4.21467 17.7133 3.97 18.056 4.002C18.402 4.03067 18.6673 4.31934 18.6673 4.66667V8.7C19.428 8.85467 20.0007 9.52667 20.0007 10.3333C20.0007 11.14 19.4273 11.812 18.6667 11.9667ZM8.66667 14V6.66667H7.66667C5.64467 6.66667 4 8.31134 4 10.3333C4 12.3553 5.64467 14 7.66667 14H8.66667ZM9.682 15.3333H7.66667C7.08133 15.3333 6.51933 15.232 5.99667 15.046L7.444 18.9073C7.596 19.324 7.90133 19.6567 8.30333 19.844C8.52667 19.948 8.76467 20 9.00333 20C9.19533 20 9.388 19.966 9.57333 19.8987C9.99 19.7467 10.3227 19.4413 10.51 19.0393C10.6973 18.6367 10.7167 18.186 10.5647 17.77L9.68133 15.3327L9.682 15.3333Z" fill="white"/>
</g>
<defs>
<clipPath id="clip0_347_303">
<rect width="16" height="16" fill="white" transform="translate(4 4)"/>
</clipPath>
</defs>
</svg>
