<svg width="24" height="24" viewBox="0 0 24 24" fill="none" xmlns="http://www.w3.org/2000/svg">
<g clip-path="url(#clip0_347_285)">
<path d="M20 10.3333C20 9.52734 19.4273 8.85467 18.6667 8.7V4.66667C18.6667 4.31934 18.4007 4.03067 18.0553 4.002C17.7127 3.97 17.4 4.21467 17.3427 4.55667C17.0833 6.112 14.9293 6.66667 13 6.66667H7.66667C5.64467 6.66667 4 8.31134 4 10.3333C4 11.434 4.488 12.4233 5.25867 13.096L7.35333 18.6847C7.536 19.186 7.904 19.5873 8.388 19.8127C8.65667 19.938 8.94333 20.0007 9.23067 20.0007C9.462 20.0007 9.69333 19.96 9.91733 19.8787C10.4187 19.696 10.82 19.328 11.0453 18.844C11.2707 18.3593 11.294 17.8167 11.1113 17.316L9.90933 14H13C14.9293 14 17.0833 14.554 17.3427 16.11C17.3967 16.4333 17.6767 16.6667 17.9993 16.6667C18.018 16.6667 18.0367 16.6667 18.0547 16.6647C18.4007 16.636 18.666 16.3473 18.666 16V11.9667C19.4267 11.812 20 11.14 20 10.3333ZM7.66667 8H8.664L8.644 12.6667H7.66733C6.38067 12.6667 5.334 11.62 5.334 10.3333C5.334 9.04667 6.38 8 7.66667 8ZM9.85867 17.7713C9.91933 17.938 9.912 18.1193 9.83667 18.2807C9.76133 18.442 9.628 18.5647 9.46067 18.626C9.294 18.6873 9.11267 18.6793 8.95133 18.604C8.79 18.5287 8.66733 18.3953 8.604 18.2227L6.99867 13.9393C7.21533 13.9793 7.43867 14.0007 7.66667 14.0007H8.49133L9.85867 17.772V17.7713ZM17.3333 13.7993C16.342 13.0693 14.8533 12.6667 13 12.6667H9.97667L9.99667 8H12.9993C14.8527 8 16.3413 7.59734 17.3327 6.86734V13.7987L17.3333 13.7993Z" fill="#D9D9D9"/>
</g>
<defs>
<clipPath id="clip0_347_285">
<rect width="16" height="16" fill="white" transform="translate(4 4)"/>
</clipPath>
</defs>
</svg>
