<svg width="24" height="24" viewBox="0 0 24 24" fill="none" xmlns="http://www.w3.org/2000/svg">
<g clip-path="url(#clip0_347_228)">
<path d="M16 20H10.958L11.152 19.18C11.2518 18.7937 11.3125 18.3984 11.3333 18C11.3333 17.6464 11.1929 17.3072 10.9428 17.0572C10.6928 16.8071 10.3536 16.6667 10 16.6667C9.64638 16.6667 9.30724 16.8071 9.05719 17.0572C8.80714 17.3072 8.66667 17.6464 8.66667 18C8.68748 18.3984 8.74823 18.7937 8.848 19.18L9.042 20H4V10C4 9.46957 4.21071 8.96086 4.58579 8.58579C4.96086 8.21071 5.46957 8 6 8H7.51467C7.40909 7.56287 7.34833 7.11612 7.33333 6.66667C7.33333 5.95942 7.61428 5.28115 8.11438 4.78105C8.61448 4.28095 9.29276 4 10 4C10.7072 4 11.3855 4.28095 11.8856 4.78105C12.3857 5.28115 12.6667 5.95942 12.6667 6.66667C12.6517 7.11612 12.5909 7.56287 12.4853 8H14C14.5304 8 15.0391 8.21071 15.4142 8.58579C15.7893 8.96086 16 9.46957 16 10V11.1813C16.4372 11.0762 16.8839 11.0154 17.3333 11C18.0406 11 18.7189 11.281 19.219 11.781C19.719 12.2811 20 12.9594 20 13.6667C20 14.3739 19.719 15.0522 19.219 15.5523C18.7189 16.0524 18.0406 16.3333 17.3333 16.3333C16.8839 16.3179 16.4372 16.2572 16 16.152V20ZM12.6093 18.6667H14.6667V14.388L15.5273 14.6493C16.1126 14.8401 16.7192 14.9578 17.3333 15C17.687 15 18.0261 14.8595 18.2761 14.6095C18.5262 14.3594 18.6667 14.0203 18.6667 13.6667C18.6667 13.313 18.5262 12.9739 18.2761 12.7239C18.0261 12.4738 17.687 12.3333 17.3333 12.3333C16.7192 12.3755 16.1126 12.4933 15.5273 12.684L14.6667 12.9453V10C14.6667 9.82319 14.5964 9.65362 14.4714 9.5286C14.3464 9.40357 14.1768 9.33333 14 9.33333H10.7213L10.9827 8.47267C11.1736 7.88742 11.2913 7.28082 11.3333 6.66667C11.3333 6.31304 11.1929 5.97391 10.9428 5.72386C10.6928 5.47381 10.3536 5.33333 10 5.33333C9.64638 5.33333 9.30724 5.47381 9.05719 5.72386C8.80714 5.97391 8.66667 6.31304 8.66667 6.66667C8.70866 7.28082 8.82644 7.88742 9.01733 8.47267L9.27867 9.33333H6C5.82319 9.33333 5.65362 9.40357 5.5286 9.5286C5.40357 9.65362 5.33333 9.82319 5.33333 10V18.6667H7.39067C7.35596 18.4461 7.3368 18.2233 7.33333 18C7.33333 17.2928 7.61428 16.6145 8.11438 16.1144C8.61448 15.6143 9.29276 15.3333 10 15.3333C10.7072 15.3333 11.3855 15.6143 11.8856 16.1144C12.3857 16.6145 12.6667 17.2928 12.6667 18C12.6632 18.2233 12.644 18.4461 12.6093 18.6667Z" fill="#D9D9D9"/>
</g>
<defs>
<clipPath id="clip0_347_228">
<rect width="16" height="16" fill="white" transform="translate(4 4)"/>
</clipPath>
</defs>
</svg>
