<svg width="24" height="24" viewBox="0 0 24 24" fill="none" xmlns="http://www.w3.org/2000/svg">
<g clip-path="url(#clip0_347_231)">
<path d="M17.3333 11C16.8839 11.0154 16.4372 11.0762 16 11.1813V10C16 9.46957 15.7893 8.96086 15.4142 8.58579C15.0391 8.21071 14.5304 8 14 8H12.4853C12.5909 7.56287 12.6517 7.11612 12.6667 6.66667C12.6667 5.95942 12.3857 5.28115 11.8856 4.78105C11.3855 4.28095 10.7072 4 10 4C9.29276 4 8.61448 4.28095 8.11438 4.78105C7.61428 5.28115 7.33333 5.95942 7.33333 6.66667C7.34833 7.11612 7.40909 7.56287 7.51467 8H6C5.46957 8 4.96086 8.21071 4.58579 8.58579C4.21071 8.96086 4 9.46957 4 10V20H8.35733L8.2 19.3333C8.08753 18.897 8.02051 18.4502 8 18C8 17.4696 8.21071 16.9609 8.58579 16.5858C8.96086 16.2107 9.46957 16 10 16C10.5304 16 11.0391 16.2107 11.4142 16.5858C11.7893 16.9609 12 17.4696 12 18C11.9795 18.4502 11.9125 18.897 11.8 19.3333L11.642 20H16V16.152C16.4372 16.2572 16.8839 16.3179 17.3333 16.3333C18.0406 16.3333 18.7189 16.0524 19.219 15.5523C19.719 15.0522 20 14.3739 20 13.6667C20 12.9594 19.719 12.2811 19.219 11.781C18.7189 11.281 18.0406 11 17.3333 11Z" fill="white"/>
</g>
<defs>
<clipPath id="clip0_347_231">
<rect width="16" height="16" fill="white" transform="translate(4 4)"/>
</clipPath>
</defs>
</svg>
