<svg width="24" height="24" viewBox="0 0 24 24" fill="none" xmlns="http://www.w3.org/2000/svg">
<g clip-path="url(#clip0_347_276)">
<path d="M19.7474 8.55733L18.846 6.67333C18.6134 6.18666 18.186 5.80933 17.674 5.63866L13.476 4.23933C12.524 3.92199 11.476 3.92199 10.524 4.23933L6.3267 5.63866C5.81403 5.80933 5.3867 6.18733 5.15403 6.67466L4.2967 8.47933C3.9787 9.00733 3.9187 9.64066 4.13203 10.2187C4.33803 10.7787 4.7747 11.212 5.33336 11.416L5.33003 15.6253C5.3287 17.064 6.2447 18.336 7.6087 18.7907L10.5187 19.7607C10.9947 19.9193 11.4947 19.9987 11.9947 19.9987C12.4947 19.9987 12.9947 19.9193 13.4707 19.7607L16.3834 18.7893C17.7454 18.3353 18.6614 17.066 18.6627 15.63L18.666 11.4167C19.23 11.2187 19.6714 10.786 19.8787 10.2233C20.09 9.65133 20.0314 9.02399 19.7474 8.55733ZM10.946 5.50466C11.626 5.27799 12.3747 5.27799 13.054 5.50466L15.886 6.44866L12.0047 7.74866L8.11536 6.44866L10.946 5.50466ZM5.46936 9.11066L6.35403 7.25599C6.38603 7.27266 11.0587 8.83799 11.0587 8.83799L9.97803 11.01C9.8187 11.2753 9.48803 11.398 9.19603 11.2993L5.8087 10.1707C5.6107 10.1047 5.45536 9.95399 5.3827 9.75799C5.31003 9.56199 5.3307 9.34733 5.4687 9.11133L5.46936 9.11066ZM8.03003 17.526C7.21136 17.2533 6.66203 16.49 6.6627 15.6273L6.66603 11.862L8.77403 12.5647C9.67003 12.8633 10.6354 12.5067 11.1467 11.6507L11.332 11.2793L11.3287 18.6C11.1974 18.5733 11.068 18.5393 10.9414 18.4967L8.0307 17.5267L8.03003 17.526ZM15.9614 17.5253L13.048 18.4967C12.9214 18.5387 12.792 18.5733 12.6607 18.6L12.664 11.27L12.8767 11.6967C13.2474 12.3153 13.898 12.6693 14.584 12.6693C14.7967 12.6693 15.0127 12.6353 15.224 12.5647L17.3314 11.8627L17.328 15.63C17.328 16.4913 16.7774 17.2533 15.96 17.526L15.9614 17.5253ZM18.628 9.76266C18.558 9.95266 18.4074 10.0987 18.2154 10.1627L14.8034 11.3C14.5114 11.398 14.1807 11.2767 14.046 11.0567L12.9427 8.84133C12.9427 8.84133 17.6134 7.27399 17.6454 7.25666L18.574 9.19066C18.6787 9.36466 18.698 9.57333 18.628 9.76333V9.76266Z" fill="#D9D9D9"/>
</g>
<defs>
<clipPath id="clip0_347_276">
<rect width="16" height="16" fill="white" transform="translate(4 4)"/>
</clipPath>
</defs>
</svg>
