<svg width="24" height="24" viewBox="0 0 24 24" fill="none" xmlns="http://www.w3.org/2000/svg">
<path d="M12.0004 7.85115L6.00497 5.84599L10.9408 4.20092C11.625 3.97286 12.3652 3.97286 13.0494 4.20092L17.9966 5.84999L12.0004 7.85115ZM9.87859 11.6007L11.3289 9.18414L6.03031 7.41771C5.61887 7.28034 5.1681 7.44772 4.94471 7.81914L4.19319 9.07278C3.74841 9.8143 4.1045 10.7765 4.9247 11.0499L8.31287 12.1795C8.90568 12.3769 9.55718 12.1362 9.87859 11.6007ZM5.99363 5.84199V5.84932L6.00497 5.84599L5.99363 5.84199ZM11.3283 19.9701V11.7761L11.0215 12.2869C10.5267 13.1111 9.65853 13.5839 8.74431 13.5839C8.46091 13.5839 8.1735 13.5392 7.89077 13.4445L5.3268 12.5903V15.6297C5.3268 17.0648 6.24503 18.3391 7.6067 18.7925L10.5641 19.7781C10.8135 19.8588 11.0695 19.9248 11.3283 19.9695V19.9701ZM19.8104 9.09479L19.0448 7.81914C18.8221 7.44772 18.3707 7.28034 17.9592 7.41771L12.6613 9.18348L14.1116 11.6001C14.433 12.1362 15.0839 12.3769 15.6767 12.1789L19.0895 11.0413C19.8971 10.7719 20.2478 9.8243 19.8097 9.09412L19.8104 9.09479ZM15.2459 13.5846C14.3317 13.5846 13.4635 13.1124 12.9687 12.2876L12.6619 11.7768V19.9668C12.9433 19.9175 13.2221 19.8454 13.4861 19.7574H13.4928L16.3835 18.7932C17.7452 18.3391 18.6634 17.0654 18.6634 15.6304V12.5903L16.0995 13.4452C15.8167 13.5399 15.5293 13.5846 15.2459 13.5846Z" fill="white"/>
</svg>
