<svg width="24" height="24" viewBox="0 0 24 24" fill="none" xmlns="http://www.w3.org/2000/svg">
<g clip-path="url(#clip0_347_270)">
<path d="M13.3333 8.66667V4.30667C13.942 4.53733 14.502 4.89267 14.9766 5.36667L17.2993 7.69067C17.774 8.16467 18.1293 8.72467 18.36 9.33333H14C13.632 9.33333 13.3333 9.034 13.3333 8.66667ZM18.6506 10.6667H14C12.8973 10.6667 12 9.76933 12 8.66667V4.016C11.8926 4.00867 11.7853 4 11.6766 4H8.66665C6.82865 4 5.33331 5.49533 5.33331 7.33333V13.3333H7.97665L9.11198 11.63C9.24331 11.4327 9.47331 11.3147 9.70798 11.3347C9.94531 11.3493 10.1566 11.4893 10.2633 11.702L11.7493 14.6747L12.4453 13.6307C12.5693 13.4453 12.7773 13.334 13 13.334H16C16.368 13.334 16.6666 13.6327 16.6666 14.0007C16.6666 14.3687 16.368 14.6673 16 14.6673H13.3566L12.2213 16.3707C12.0973 16.5567 11.8886 16.6673 11.6666 16.6673C11.6526 16.6673 11.6386 16.6673 11.6253 16.666C11.388 16.6513 11.1766 16.5113 11.07 16.2987L9.58398 13.326L8.88798 14.37C8.76398 14.5553 8.55598 14.6667 8.33331 14.6667H5.33331V16.6667C5.33331 18.5047 6.82865 20 8.66665 20H15.3333C17.1713 20 18.6666 18.5047 18.6666 16.6667V10.99C18.6666 10.8813 18.658 10.774 18.6506 10.6667Z" fill="white"/>
</g>
<defs>
<clipPath id="clip0_347_270">
<rect width="16" height="16" fill="white" transform="translate(4 4)"/>
</clipPath>
</defs>
</svg>
