<svg width="24" height="24" viewBox="0 0 24 24" fill="none" xmlns="http://www.w3.org/2000/svg">
<path d="M8.33333 14.6667H4.66667C4.29867 14.6667 4 14.368 4 14C4 13.632 4.29867 13.3333 4.66667 13.3333H7.97667L9.112 11.63C9.24333 11.4327 9.47333 11.3147 9.708 11.3347C9.94533 11.3493 10.1567 11.4893 10.2633 11.702L11.7493 14.6747L12.4453 13.6307C12.5693 13.4453 12.7773 13.334 13 13.334H16C16.368 13.334 16.6667 13.6327 16.6667 14.0007C16.6667 14.3687 16.368 14.6673 16 14.6673H13.3567L12.2213 16.3707C12.0973 16.5567 11.8887 16.6673 11.6667 16.6673C11.6527 16.6673 11.6387 16.6673 11.6253 16.666C11.388 16.6513 11.1767 16.5113 11.07 16.2987L9.584 13.326L8.888 14.37C8.764 14.5553 8.556 14.6667 8.33333 14.6667ZM18.6667 10.99V16.6667C18.6667 18.5047 17.1713 20 15.3333 20H8.66667C6.82867 20 5.33333 18.5047 5.33333 16.6667C5.33333 16.2987 5.632 16 6 16C6.368 16 6.66667 16.2987 6.66667 16.6667C6.66667 17.7693 7.564 18.6667 8.66667 18.6667H15.3333C16.436 18.6667 17.3333 17.7693 17.3333 16.6667V10.99C17.3333 10.8813 17.328 10.7733 17.318 10.6667H14C12.8973 10.6667 12 9.76933 12 8.66667V5.34867C11.8933 5.33867 11.7853 5.33333 11.6767 5.33333H8.66667C7.564 5.33333 6.66667 6.23067 6.66667 7.33333V11.3333C6.66667 11.7013 6.368 12 6 12C5.632 12 5.33333 11.7013 5.33333 11.3333V7.33333C5.33333 5.49533 6.82867 4 8.66667 4H11.6767C12.9233 4 14.0947 4.48533 14.9767 5.36667L17.3 7.69C18.1813 8.57133 18.6667 9.74333 18.6667 10.99ZM16.894 9.33333C16.7487 9.08067 16.5693 8.84467 16.3573 8.63333L14.034 6.31C13.822 6.098 13.5867 5.91867 13.334 5.77333V8.66733C13.334 9.03467 13.6333 9.334 14.0007 9.334H16.8947L16.894 9.33333Z" fill="#D9D9D9"/>
</svg>
