<svg width="24" height="24" viewBox="0 0 24 24" fill="none" xmlns="http://www.w3.org/2000/svg">
<g clip-path="url(#clip0_347_292)">
<path d="M5.07134 16C5.62277 16.9571 6.84568 17.2859 7.80274 16.7344C7.8034 16.7341 7.80402 16.7337 7.80468 16.7333L8.10134 16.562C8.66134 17.0411 9.30502 17.4127 9.99999 17.658V18C9.99999 19.1046 10.8954 20 12 20C13.1046 20 14 19.1046 14 18V17.658C14.6951 17.4123 15.3388 17.0403 15.8986 16.5607L16.1966 16.7327C17.1539 17.2849 18.3777 16.9566 18.93 15.9993C19.4823 15.042 19.154 13.8182 18.1966 13.266L17.9006 13.0953C18.0339 12.3703 18.0339 11.627 17.9006 10.902L18.1966 10.7313C19.1539 10.179 19.4823 8.95528 18.93 7.99797C18.3777 7.04069 17.154 6.71234 16.1966 7.26463L15.9 7.43597C15.3394 6.95744 14.6953 6.58656 14 6.342V6C14 4.89544 13.1046 4 12 4C10.8954 4 9.99999 4.89544 9.99999 6V6.342C9.30493 6.58772 8.66121 6.95972 8.10134 7.43934L7.80334 7.26669C6.84602 6.71438 5.62227 7.04272 5.06999 8C4.51771 8.95728 4.84602 10.1811 5.80334 10.7333L6.09934 10.904C5.96609 11.629 5.96609 12.3723 6.09934 13.0973L5.80334 13.268C4.84868 13.8217 4.52143 15.0431 5.07134 16ZM12 9.33334C13.4727 9.33334 14.6666 10.5273 14.6666 12C14.6666 13.4727 13.4727 14.6667 12 14.6667C10.5272 14.6667 9.33334 13.4727 9.33334 12C9.33334 10.5273 10.5272 9.33334 12 9.33334Z" fill="white"/>
</g>
<defs>
<clipPath id="clip0_347_292">
<rect width="16" height="16" fill="white" transform="translate(4 4)"/>
</clipPath>
</defs>
</svg>
