<svg width="24" height="24" viewBox="0 0 24 24" fill="none" xmlns="http://www.w3.org/2000/svg">
<path d="M11.5567 4.01815C9.24201 3.86281 6.97268 4.71017 5.33869 6.34689C3.70402 7.98428 2.85869 10.2517 3.01936 12.5691C3.31269 16.8052 7.05402 20 11.722 20H15.6667C17.5047 20 19 18.5046 19 16.6666V12.2264C18.9993 7.90694 15.73 4.30216 11.5567 4.01815ZM8.25135 12.9878C8.14468 13.5871 7.57202 14.0225 6.89135 14.0225C6.34869 14.0225 5.82669 13.7865 5.47535 13.4091C5.40869 13.3351 5.36602 13.2398 5.36602 13.1331C5.36602 12.9031 5.55269 12.7164 5.78269 12.7164C5.90469 12.7164 6.01135 12.7704 6.08802 12.8538C6.27869 13.0638 6.58002 13.1891 6.89202 13.1891C7.19068 13.1891 7.40135 13.0124 7.43202 12.8418C7.47335 12.6118 7.13135 12.4671 7.02535 12.4278C6.52402 12.2431 6.07202 12.0411 6.07202 12.0411C5.67202 11.7864 5.49602 11.3951 5.55402 10.9884C5.61669 10.5557 5.93269 10.203 6.38002 10.0683C6.53735 10.021 6.68935 10.001 6.83335 10.001C7.49535 9.99901 7.98602 10.4104 8.01068 10.431C8.10535 10.5077 8.17002 10.6197 8.17002 10.751C8.17002 10.981 7.98335 11.1677 7.75335 11.1677C7.64868 11.1677 7.55602 11.1257 7.48335 11.0624C7.46935 11.051 7.19202 10.841 6.85268 10.8357C6.77802 10.8344 6.69935 10.8437 6.62002 10.867C6.42469 10.9257 6.38602 11.055 6.37869 11.1077C6.37335 11.147 6.37002 11.245 6.46535 11.3091C6.47602 11.3091 6.87468 11.4844 7.31335 11.6464C8.12868 11.9471 8.33268 12.5371 8.25202 12.9891L8.25135 12.9878ZM12.9993 13.5831C12.9993 13.8131 12.8127 13.9998 12.5827 13.9998C12.3527 13.9998 12.166 13.8131 12.166 13.5831H12.164V11.4051L11.31 12.3304C11.1427 12.5118 10.856 12.5118 10.6887 12.3304L9.83401 11.4044L9.83268 13.5838C9.83268 13.8138 9.64601 14.0005 9.41601 14.0005C9.18601 14.0005 8.99935 13.8138 8.99935 13.5838V10.417C8.99935 10.187 9.18601 10.0003 9.41601 10.0003C9.71268 10.0003 9.93068 10.1103 10.098 10.3017L10.9993 11.3337L11.888 10.3164C12.0633 10.1157 12.3167 10.001 12.5827 10.0003C12.8127 10.0003 12.9993 10.187 12.9993 10.417L12.9973 13.5731L12.9993 13.5838V13.5831ZM16.6233 12.9878C16.5167 13.5871 15.944 14.0225 15.2633 14.0225C14.7207 14.0225 14.1987 13.7865 13.8473 13.4091C13.7807 13.3351 13.738 13.2398 13.738 13.1331C13.738 12.9031 13.9247 12.7164 14.1547 12.7164C14.2767 12.7164 14.3833 12.7704 14.46 12.8538C14.6507 13.0638 14.952 13.1891 15.264 13.1891C15.5627 13.1891 15.7733 13.0124 15.804 12.8418C15.8453 12.6118 15.5033 12.4671 15.3973 12.4278C14.896 12.2431 14.444 12.0411 14.444 12.0411C14.044 11.7864 13.868 11.3951 13.926 10.9884C13.9887 10.5557 14.3047 10.203 14.752 10.0683C14.9093 10.021 15.0613 10.001 15.2053 10.001C15.8673 9.99901 16.358 10.4104 16.3827 10.431C16.4773 10.5077 16.542 10.6197 16.542 10.751C16.542 10.981 16.3553 11.1677 16.1253 11.1677C16.0207 11.1677 15.928 11.1257 15.8553 11.0624C15.8413 11.051 15.564 10.841 15.2247 10.8357C15.15 10.8344 15.0713 10.8437 14.992 10.867C14.7967 10.9257 14.758 11.055 14.7507 11.1077C14.7453 11.147 14.742 11.245 14.8373 11.3091C14.848 11.3091 15.2467 11.4844 15.6853 11.6464C16.5007 11.9471 16.7047 12.5371 16.624 12.9891L16.6233 12.9878Z" fill="white"/>
</svg>
