<svg width="24" height="24" viewBox="0 0 24 24" fill="none" xmlns="http://www.w3.org/2000/svg">
<path d="M20 20H12C7.58867 20 4 16.4113 4 12C4 7.58867 7.58867 4 12 4C16.4113 4 20 7.58867 20 12V20ZM12 5.33333C8.324 5.33333 5.33333 8.324 5.33333 12C5.33333 15.676 8.324 18.6667 12 18.6667H18.6667V12C18.6667 8.324 15.676 5.33333 12 5.33333ZM16.3667 13.1667C16.0547 13.1667 15.7547 13.0413 15.564 12.8307L15.284 12.522L14.6667 13.082L14.9467 13.39C15.298 13.7773 15.816 13.9993 16.3667 13.9993C17.0473 13.9993 17.62 13.564 17.7267 12.9647C17.8073 12.5127 17.6027 11.9233 16.788 11.622C16.3493 11.46 15.95 11.2847 15.94 11.2847C15.8447 11.22 15.848 11.1227 15.8533 11.0833C15.8613 11.0307 15.8993 10.9013 16.0947 10.8427C16.5327 10.712 16.938 11.0287 16.9547 11.042L17.272 11.308L17.8087 10.67L17.4893 10.402C17.4593 10.3767 16.7327 9.77933 15.8547 10.044C15.4073 10.1787 15.0907 10.5313 15.0287 10.964C14.9707 11.3707 15.1473 11.762 15.5467 12.0167C15.5467 12.0167 15.9987 12.2187 16.5 12.4033C16.606 12.4427 16.948 12.5873 16.9067 12.8173C16.876 12.988 16.666 13.1647 16.3667 13.1647V13.1667ZM7.892 13.1893C7.58 13.1893 7.28 13.064 7.08933 12.8533L6.80933 12.5447L6.192 13.1047L6.472 13.4127C6.82333 13.8 7.34133 14.022 7.892 14.022C8.57267 14.022 9.14533 13.5867 9.252 12.9873C9.33267 12.5353 9.128 11.946 8.31333 11.6447C7.87467 11.4827 7.47533 11.3073 7.46533 11.3073C7.37 11.2427 7.37333 11.1453 7.37867 11.106C7.38667 11.0533 7.42467 10.924 7.62 10.8653C8.058 10.7347 8.46333 11.0513 8.48 11.0647L8.79733 11.3307L9.334 10.6927L9.01467 10.4247C8.98467 10.3993 8.258 9.802 7.38 10.0667C6.93267 10.2013 6.616 10.554 6.554 10.9867C6.496 11.3933 6.67267 11.7847 7.072 12.0393C7.072 12.0393 7.524 12.2413 8.02533 12.426C8.13133 12.4653 8.47333 12.61 8.432 12.84C8.40133 13.0107 8.19133 13.1873 7.892 13.1873V13.1893ZM14 10H13.1647L12 11.3333L10.8353 10H10V14H10.8333L10.8347 11.404L12 12.6667L13.1647 11.4053V14H13.998L14 10Z" fill="#D9D9D9"/>
</svg>
