<svg width="24" height="24" viewBox="0 0 24 24" fill="none" xmlns="http://www.w3.org/2000/svg">
<g clip-path="url(#clip0_347_234)">
<path d="M17.3714 15.2L17.438 15.2667C17.5894 15.4193 17.7769 15.5312 17.9831 15.5919C18.1892 15.6526 18.4074 15.6602 18.6174 15.614C18.8239 15.5706 19.0162 15.4761 19.1766 15.339C19.337 15.2018 19.4604 15.0266 19.5354 14.8293C19.9034 13.8629 20.0794 12.8339 20.0534 11.8C19.9783 9.76934 19.1431 7.84099 17.7132 6.39715C16.2833 4.95332 14.3632 4.09941 12.3334 4.00467C11.26 3.96735 10.1901 4.14653 9.18754 4.53153C8.18493 4.91653 7.2701 5.49947 6.4976 6.24559C5.7251 6.99171 5.11074 7.88574 4.69115 8.87438C4.27157 9.86301 4.05534 10.926 4.05536 12C4.05783 14.121 4.90148 16.1544 6.40123 17.6541C7.90099 19.1539 9.93439 19.9975 12.0554 20C12.2807 20 12.502 19.9853 12.722 19.9667C12.889 19.9526 13.0445 19.8762 13.1576 19.7527C13.2708 19.6291 13.3333 19.4675 13.3327 19.3L13.3114 16.908C13.306 16.4353 13.4416 15.9717 13.7009 15.5765C13.9601 15.1812 14.3314 14.8722 14.7671 14.6889C15.2028 14.5056 15.6833 14.4563 16.1472 14.5474C16.611 14.6384 17.0372 14.8656 17.3714 15.2ZM15.41 9.36667C15.6012 9.31595 15.8031 9.32304 15.9902 9.38706C16.1773 9.45108 16.3413 9.56914 16.4613 9.72632C16.5813 9.88351 16.652 10.0727 16.6645 10.2701C16.677 10.4675 16.6307 10.6641 16.5314 10.8352C16.4321 11.0062 16.2843 11.144 16.1068 11.2311C15.9292 11.3182 15.7298 11.3506 15.5338 11.3244C15.3378 11.2981 15.1539 11.2144 15.0055 11.0836C14.8571 10.9529 14.7508 10.7811 14.7 10.59C14.6663 10.4631 14.6579 10.3307 14.6753 10.2005C14.6928 10.0703 14.7357 9.94486 14.8016 9.83125C14.8675 9.71765 14.9552 9.61815 15.0596 9.53844C15.164 9.45872 15.2831 9.40035 15.41 9.36667ZM9.25669 15.3C9.06554 15.3507 8.86364 15.3436 8.67652 15.2796C8.4894 15.2156 8.32546 15.0975 8.20544 14.9403C8.08542 14.7832 8.01469 14.5939 8.00222 14.3965C7.98974 14.1992 8.03606 14.0025 8.13533 13.8315C8.23461 13.6604 8.38237 13.5227 8.55994 13.4356C8.7375 13.3485 8.9369 13.316 9.13292 13.3423C9.32894 13.3685 9.51277 13.4523 9.66118 13.583C9.80959 13.7137 9.91591 13.8855 9.96669 14.0767C10.0004 14.2036 10.0088 14.336 9.99138 14.4661C9.97395 14.5963 9.93104 14.7218 9.86511 14.8354C9.79918 14.949 9.71151 15.0485 9.60712 15.1282C9.50272 15.2079 9.38365 15.2663 9.25669 15.3ZM9.25669 11.3C9.06554 11.3507 8.86364 11.3436 8.67652 11.2796C8.4894 11.2156 8.32546 11.0975 8.20544 10.9403C8.08542 10.7832 8.01469 10.5939 8.00222 10.3965C7.98974 10.1992 8.03606 10.0025 8.13533 9.83148C8.23461 9.66044 8.38237 9.52267 8.55994 9.43559C8.7375 9.34852 8.9369 9.31605 9.13292 9.34229C9.32894 9.36853 9.51277 9.45231 9.66118 9.58303C9.80959 9.71374 9.91591 9.88553 9.96669 10.0767C10.0004 10.2036 10.0088 10.336 9.99138 10.4661C9.97395 10.5963 9.93104 10.7218 9.86511 10.8354C9.79918 10.949 9.71151 11.0485 9.60712 11.1282C9.50272 11.2079 9.38365 11.2663 9.25669 11.3ZM12.59 9.3C12.3989 9.35072 12.197 9.34362 12.0099 9.27961C11.8227 9.21559 11.6588 9.09752 11.5388 8.94034C11.4187 8.78316 11.348 8.59392 11.3355 8.39654C11.3231 8.19917 11.3694 8.00253 11.4687 7.83148C11.5679 7.66044 11.7157 7.52267 11.8933 7.43559C12.0708 7.34852 12.2702 7.31605 12.4663 7.34229C12.6623 7.36853 12.8461 7.45231 12.9945 7.58303C13.1429 7.71374 13.2492 7.88553 13.3 8.07667C13.3338 8.20361 13.3421 8.33596 13.3247 8.46614C13.3073 8.59633 13.2644 8.72181 13.1984 8.83541C13.1325 8.94901 13.0448 9.04852 12.9405 9.12823C12.8361 9.20794 12.717 9.26631 12.59 9.3Z" fill="white"/>
</g>
<defs>
<clipPath id="clip0_347_234">
<rect width="16" height="16" fill="white" transform="translate(4 4)"/>
</clipPath>
</defs>
</svg>
