<svg width="24" height="24" viewBox="0 0 24 24" fill="none" xmlns="http://www.w3.org/2000/svg">
<g clip-path="url(#clip0_347_222)">
<path d="M14.6666 10.6667C15.403 10.6667 16 10.0697 16 9.33333C16 8.59695 15.403 8 14.6666 8C13.9303 8 13.3333 8.59695 13.3333 9.33333C13.3333 10.0697 13.9303 10.6667 14.6666 10.6667Z" fill="#D9D9D9"/>
<path d="M10 10.6667C10.7364 10.6667 11.3334 10.0697 11.3334 9.33333C11.3334 8.59695 10.7364 8 10 8C9.26364 8 8.66669 8.59695 8.66669 9.33333C8.66669 10.0697 9.26364 10.6667 10 10.6667Z" fill="#D9D9D9"/>
<path d="M9.33333 15.3333C10.0697 15.3333 10.6667 14.7364 10.6667 14C10.6667 13.2636 10.0697 12.6667 9.33333 12.6667C8.59695 12.6667 8 13.2636 8 14C8 14.7364 8.59695 15.3333 9.33333 15.3333Z" fill="#D9D9D9"/>
<path d="M20.024 11.2853C19.83 9.35057 18.9461 7.55026 17.534 6.21354C16.1219 4.87682 14.2758 4.09298 12.3333 4.00533C11.2706 3.96655 10.2108 4.14004 9.21591 4.51565C8.22102 4.89126 7.311 5.46146 6.53907 6.1929C5.76714 6.92434 5.14878 7.80235 4.72016 8.77557C4.29154 9.7488 4.06125 10.7977 4.04277 11.861C4.02429 12.9243 4.21799 13.9805 4.61253 14.9681C5.00707 15.9556 5.59454 16.8546 6.34059 17.6124C7.08664 18.3702 7.97629 18.9717 8.95753 19.3817C9.93876 19.7916 10.9919 20.0018 12.0553 20C12.2806 20 12.5013 19.9853 12.722 19.9673C12.9735 19.9465 13.2079 19.8313 13.378 19.6448C13.5482 19.4583 13.6415 19.2144 13.6393 18.962L13.6193 16.6787C13.616 16.3003 13.7254 15.9296 13.9335 15.6136C14.1416 15.2977 14.4391 15.0508 14.788 14.9045C15.1369 14.7581 15.5214 14.7189 15.8927 14.7918C16.2639 14.8648 16.605 15.0465 16.8726 15.314L16.9393 15.3807C17.1272 15.5688 17.3594 15.7068 17.6145 15.7818C17.8696 15.8568 18.1395 15.8665 18.3993 15.81C18.6549 15.7551 18.8927 15.6369 19.0908 15.4663C19.289 15.2956 19.4411 15.078 19.5333 14.8333C19.965 13.7035 20.1328 12.4899 20.024 11.2853ZM17.858 13.5293C17.2747 13.0951 16.5819 12.8323 15.8574 12.7705C15.1329 12.7087 14.4055 12.8503 13.7571 13.1794C13.1087 13.5084 12.565 14.012 12.1872 14.6332C11.8094 15.2545 11.6125 15.9689 11.6186 16.696L11.63 17.9847C10.0801 17.8737 8.63378 17.1657 7.59535 16.0099C6.55691 14.854 6.00738 13.3404 6.0624 11.7875C6.11742 10.2347 6.77272 8.76374 7.89036 7.68428C9.008 6.60482 10.5008 6.00103 12.0546 6C12.1213 6 12.196 6 12.2666 6.004C13.7227 6.06985 15.1064 6.65739 16.1649 7.65927C17.2235 8.66116 17.8862 10.0105 18.032 11.4607C18.0951 12.1551 18.0362 12.8552 17.858 13.5293Z" fill="#D9D9D9"/>
</g>
<defs>
<clipPath id="clip0_347_222">
<rect width="16" height="16" fill="white" transform="translate(4 4)"/>
</clipPath>
</defs>
</svg>
