<svg width="24" height="24" viewBox="0 0 24 24" fill="none" xmlns="http://www.w3.org/2000/svg">
<g clip-path="url(#clip0_347_299)">
<path d="M14.6667 12.6667C14.3562 13.0807 13.9536 13.4167 13.4907 13.6481C13.0279 13.8795 12.5175 14 12 14C11.4825 14 10.9722 13.8795 10.5093 13.6481C10.0465 13.4167 9.64384 13.0807 9.33335 12.6667C9.07204 13.0189 8.74321 13.3156 8.36604 13.5394C7.98887 13.7633 7.57091 13.9098 7.13653 13.9704C6.70215 14.031 6.26005 14.0046 5.83601 13.8926C5.41196 13.7806 5.01446 13.5852 4.66669 13.318V16.6667C4.66775 17.5504 5.01928 18.3976 5.64417 19.0225C6.26906 19.6474 7.11629 19.9989 8.00002 20H16C16.8838 19.9989 17.731 19.6474 18.3559 19.0225C18.9808 18.3976 19.3323 17.5504 19.3334 16.6667V13.316C18.9857 13.5833 18.5883 13.7788 18.1643 13.891C17.7404 14.0031 17.2983 14.0298 16.8639 13.9693C16.4296 13.9089 16.0116 13.7626 15.6343 13.5389C15.2571 13.3153 14.9282 13.0188 14.6667 12.6667Z" fill="white"/>
<path d="M18.4667 6.08733C18.3376 5.4934 18.0084 4.96187 17.534 4.58184C17.0597 4.20181 16.4691 3.99639 15.8614 4H15.3334V6C15.3334 6.17681 15.2631 6.34638 15.1381 6.47141C15.0131 6.59643 14.8435 6.66667 14.6667 6.66667C14.4899 6.66667 14.3203 6.59643 14.1953 6.47141C14.0703 6.34638 14 6.17681 14 6V4H10V6C10 6.17681 9.92978 6.34638 9.80476 6.47141C9.67973 6.59643 9.51016 6.66667 9.33335 6.66667C9.15654 6.66667 8.98697 6.59643 8.86195 6.47141C8.73693 6.34638 8.66669 6.17681 8.66669 6V4H8.13869C7.53081 3.99642 6.94018 4.20194 6.46584 4.5821C5.99149 4.96226 5.66226 5.49394 5.53335 6.088L4.68135 9.93333L4.66669 10.68C4.66756 10.9426 4.72016 11.2025 4.82148 11.4449C4.9228 11.6872 5.07085 11.9072 5.25719 12.0923C5.63351 12.4661 6.14292 12.6751 6.67335 12.6733C6.936 12.6725 7.1959 12.6199 7.43821 12.5185C7.68053 12.4172 7.90052 12.2692 8.08561 12.0828C8.27071 11.8965 8.4173 11.6755 8.517 11.4325C8.6167 11.1896 8.66756 10.9293 8.66669 10.6667C8.66669 10.4899 8.73693 10.3203 8.86195 10.1953C8.98697 10.0702 9.15654 10 9.33335 10C9.51016 10 9.67973 10.0702 9.80476 10.1953C9.92978 10.3203 10 10.4899 10 10.6667C10 11.1971 10.2107 11.7058 10.5858 12.0809C10.9609 12.456 11.4696 12.6667 12 12.6667C12.5305 12.6667 13.0392 12.456 13.4142 12.0809C13.7893 11.7058 14 11.1971 14 10.6667C14 10.4899 14.0703 10.3203 14.1953 10.1953C14.3203 10.0702 14.4899 10 14.6667 10C14.8435 10 15.0131 10.0702 15.1381 10.1953C15.2631 10.3203 15.3334 10.4899 15.3334 10.6667C15.3334 11.1971 15.5441 11.7058 15.9191 12.0809C16.2942 12.456 16.8029 12.6667 17.3334 12.6667C17.8638 12.6667 18.3725 12.456 18.7476 12.0809C19.1226 11.7058 19.3334 11.1971 19.3334 10.6667V10.0713L18.4667 6.08733Z" fill="white"/>
</g>
<defs>
<clipPath id="clip0_347_299">
<rect width="16" height="16" fill="white" transform="translate(4 4)"/>
</clipPath>
</defs>
</svg>
