<svg width="24" height="24" viewBox="0 0 24 24" fill="none" xmlns="http://www.w3.org/2000/svg">
<g clip-path="url(#clip0_347_216)">
<path d="M14 8C14 5.794 12.206 4 10 4C7.794 4 6 5.794 6 8C6 10.206 7.794 12 10 12C12.206 12 14 10.206 14 8ZM10 10.6667C8.52933 10.6667 7.33333 9.47067 7.33333 8C7.33333 6.52933 8.52933 5.33333 10 5.33333C11.4707 5.33333 12.6667 6.52933 12.6667 8C12.6667 9.47067 11.4707 10.6667 10 10.6667ZM9.99466 13.9587C10.04 14.324 9.78133 14.6567 9.41533 14.7027C7.088 14.9933 5.33266 16.9833 5.33266 19.3333C5.33266 19.7013 5.034 20 4.666 20C4.298 20 3.99933 19.7013 3.99933 19.3333C3.99933 16.3127 6.25666 13.7533 9.25 13.38C9.61133 13.334 9.948 13.5933 9.994 13.9593L9.99466 13.9587ZM19.1307 16.7553L18.4813 16.3807C18.592 16.0493 18.6667 15.7013 18.6667 15.3327C18.6667 14.964 18.5927 14.616 18.4813 14.2847L19.1307 13.91C19.4493 13.726 19.5587 13.318 19.3747 12.9993C19.19 12.68 18.7833 12.57 18.464 12.7553L17.8153 13.13C17.3453 12.6007 16.7193 12.2133 16 12.0673V11.3333C16 10.9653 15.7013 10.6667 15.3333 10.6667C14.9653 10.6667 14.6667 10.9653 14.6667 11.3333V12.0673C13.9473 12.214 13.3213 12.6013 12.8513 13.13L12.2027 12.7553C11.8827 12.5707 11.476 12.68 11.292 12.9993C11.108 13.3187 11.2173 13.726 11.536 13.91L12.1853 14.2847C12.0747 14.616 12 14.964 12 15.3327C12 15.7013 12.074 16.0493 12.1853 16.3807L11.536 16.7553C11.2173 16.9393 11.108 17.3473 11.292 17.666C11.416 17.88 11.6393 17.9993 11.87 17.9993C11.9827 17.9993 12.0973 17.9707 12.2027 17.91L12.8513 17.5353C13.3213 18.0647 13.9473 18.452 14.6667 18.598V19.332C14.6667 19.7 14.9653 19.9987 15.3333 19.9987C15.7013 19.9987 16 19.7 16 19.332V18.598C16.7193 18.4513 17.3453 18.064 17.8153 17.5353L18.464 17.91C18.5693 17.9707 18.684 17.9993 18.7967 17.9993C19.0273 17.9993 19.2513 17.88 19.3747 17.666C19.5587 17.3467 19.4493 16.9393 19.1307 16.7553ZM15.3333 17.3327C14.2307 17.3327 13.3333 16.4353 13.3333 15.3327C13.3333 14.23 14.2307 13.3327 15.3333 13.3327C16.436 13.3327 17.3333 14.23 17.3333 15.3327C17.3333 16.4353 16.436 17.3327 15.3333 17.3327Z" fill="#D9D9D9"/>
</g>
<defs>
<clipPath id="clip0_347_216">
<rect width="16" height="16" fill="white" transform="translate(4 4)"/>
</clipPath>
</defs>
</svg>
