<svg width="24" height="24" viewBox="0 0 24 24" fill="none" xmlns="http://www.w3.org/2000/svg">
<g clip-path="url(#clip0_347_296)">
<path d="M10 12C7.794 12 6 10.206 6 8C6 5.794 7.794 4 10 4C12.206 4 14 5.794 14 8C14 10.206 12.206 12 10 12ZM19.1307 16.756L18.4813 16.3813C18.592 16.05 18.6667 15.702 18.6667 15.3333C18.6667 14.9647 18.5927 14.6167 18.4813 14.2853L19.1307 13.9107C19.4493 13.7267 19.5587 13.3187 19.3747 13C19.19 12.6807 18.7833 12.5707 18.464 12.756L17.8153 13.1307C17.3453 12.6013 16.7193 12.214 16 12.068V11.334C16 10.966 15.7013 10.6673 15.3333 10.6673C14.9653 10.6673 14.6667 10.966 14.6667 11.334V12.068C13.9473 12.2147 13.3213 12.602 12.8513 13.1307L12.2027 12.756C11.8827 12.5713 11.476 12.6807 11.292 13C11.108 13.3193 11.2173 13.7267 11.536 13.9107L12.1853 14.2853C12.0747 14.6167 12 14.9647 12 15.3333C12 15.702 12.074 16.05 12.1853 16.3813L11.536 16.756C11.2173 16.94 11.108 17.348 11.292 17.6667C11.416 17.8807 11.6393 18 11.87 18C11.9827 18 12.0973 17.9713 12.2027 17.9107L12.8513 17.536C13.3213 18.0653 13.9473 18.4527 14.6667 18.5987V19.3327C14.6667 19.7007 14.9653 19.9993 15.3333 19.9993C15.7013 19.9993 16 19.7007 16 19.3327V18.5987C16.7193 18.452 17.3453 18.0647 17.8153 17.536L18.464 17.9107C18.5693 17.9713 18.684 18 18.7967 18C19.0273 18 19.2513 17.8807 19.3747 17.6667C19.5587 17.3473 19.4493 16.94 19.1307 16.756ZM15.3333 16.3333C14.782 16.3333 14.3333 15.8847 14.3333 15.3333C14.3333 14.782 14.782 14.3333 15.3333 14.3333C15.8847 14.3333 16.3333 14.782 16.3333 15.3333C16.3333 15.8847 15.8847 16.3333 15.3333 16.3333ZM9.33333 15.3333C9.33333 14.6373 9.458 13.9713 9.676 13.35C6.51867 13.5193 4 16.1347 4 19.3333C4 19.7013 4.29867 20 4.66667 20H11.566C10.2053 18.9 9.33333 17.2193 9.33333 15.3333Z" fill="white"/>
</g>
<defs>
<clipPath id="clip0_347_296">
<rect width="16" height="16" fill="white" transform="translate(4 4)"/>
</clipPath>
</defs>
</svg>
