<svg id="Layer_1" enable-background="new 0 0 512 512" height="64"
    viewBox="0 0 512 512" width="64" xmlns="http://www.w3.org/2000/svg">
    <g clip-rule="evenodd" fill-rule="evenodd">
        <g>
            <path
                d="m328.013 231.951 56.067-32.37c20.387-11.771 27.437-38.082 15.667-58.469-11.771-20.387-38.082-27.437-58.469-15.666l-56.067 32.371c-20.387 11.771-27.437 38.081-15.667 58.468 11.771 20.386 38.082 27.436 58.469 15.666z"
                fill="#8c9ba6" />
            <path
                d="m402.038 179.211c5.046-11.956 4.66-26.06-2.291-38.099-11.771-20.387-38.082-27.437-58.469-15.667l-56.067 32.37c-13.657 7.885-21.328 22.296-21.366 37.079 3.499-8.291 9.609-15.549 17.957-20.369l56.067-32.371c20.387-11.771 46.698-4.721 58.469 15.667 3.885 6.73 5.718 14.105 5.7 21.39z"
                fill="#7c8b96" />
            <path
                d="m111.988 365.307 41.257-41.257 103.543 103.543c5.842 5.842 5.842 15.371 0 21.213l-20.045 20.045c-5.842 5.842-15.371 5.842-21.213 0z"
                fill="#8c9ba6" />
            <path
                d="m111.988 365.307 41.258-41.257 103.543 103.543c5.841 5.842 5.841 15.371 0 21.213l-5.207 5.207c.757-4.612-.636-9.515-4.181-13.06l-103.543-103.544-29.884 29.884z"
                fill="#7c8b96" />
            <path
                d="m35.142 351.616-10.484-18.158c-17.823-30.87-7.148-70.709 23.722-88.532l56.128-32.405c72.222-47.413 121.313-102.709 155.285-160.434l147.075 254.741c-66.978.557-139.411 15.423-216.582 54.263l-56.127 32.405c-30.87 17.823-70.71 7.148-88.533-23.722z"
                fill="#fcdd2e" />
            <path
                d="m35.142 351.616-10.483-18.158c-17.823-30.87-7.148-70.71 23.722-88.533l56.127-32.405c72.223-47.413 121.313-102.708 155.285-160.434l14.572 25.238c-33.972 57.726-83.062 113.022-155.285 160.434l-56.128 32.405c-30.87 17.823-41.545 57.662-23.722 88.533z"
                fill="#fbd307" />
            <path
                d="m190.286 361.091-56.127 32.405c-30.87 17.823-70.71 7.148-88.533-23.722l-20.967-36.316c-17.823-30.87-7.148-70.709 23.722-88.532l56.128-32.405z"
                fill="#fc5692" />
            <path
                d="m35.142 351.616-10.483-18.158c-17.823-30.87-7.148-70.71 23.722-88.533l56.127-32.405 14.571 25.239-56.128 32.405c-30.87 17.823-41.545 57.662-23.722 88.533z"
                fill="#fb3580" />
            <path
                d="m250.486 47.601c11.464-6.618 26.259-2.653 32.877 8.809l131.543 227.84c6.618 11.462 2.654 26.258-8.809 32.877-11.464 6.618-26.259 2.655-32.878-8.809l-131.543-227.84c-6.618-11.464-2.653-26.259 8.81-32.877z"
                fill="#fc5692" />
            <path
                d="m250.486 47.601c11.464-6.618 26.259-2.654 32.877 8.809l10.179 17.63c-1.839-3.147-4.977-4.948-8.628-4.949-3.671-.001-6.823 1.818-8.66 4.997-6.145 10.633-12.799 21.187-20.006 31.628l-14.571-25.238c-6.619-11.464-2.655-26.259 8.809-32.877z"
                fill="#fb3580" />
        </g>
        <path
            d="m404.51 290.254-131.54-227.841c-3.332-5.763-10.73-7.747-16.493-4.416v-.005c-5.759 3.327-7.738 10.725-4.42 16.488l131.55 227.842c3.322 5.763 10.721 7.742 16.479 4.415 2.771-1.598 4.759-4.203 5.603-7.337.838-3.128.419-6.38-1.179-9.146zm-154.093 147.944-62.109-62.109-30.8 17.78 68.621 68.617zm-122.266-55.092c-25.211 14.561-57.585 5.886-72.141-19.33l-20.96-36.318c-14.561-25.22-5.891-57.58 19.33-72.141l45.728-26.403 73.781 127.784zm-7.653-166.873c47.411-32.482 87.701-70.633 120.047-113.69l113.002 195.713c-53.471 6.498-106.65 22.308-158.48 47.128zm223.619-78.574 3.152-1.824c7.087-4.086 15.376-5.16 23.359-3.026 7.978 2.14 14.627 7.215 18.717 14.302 4.09 7.083 5.16 15.381 3.03 23.359-2.139 7.978-7.219 14.627-14.307 18.717l-3.152 1.819zm81.17 140.593c4.811 8.322 6.079 18.039 3.581 27.36-2.503 9.326-8.463 17.111-16.781 21.912-5.659 3.27-11.861 4.825-17.968 4.825-9.872 0-19.533-4.067-26.441-11.489-52.83 5.056-105.542 19.726-156.982 43.683l65.172 65.172c4.689 4.689 4.689 12.285 0 16.969l-41.252 41.257c-2.248 2.252-5.311 3.515-8.487 3.515-3.181 0-6.234-1.263-8.482-3.515l-81.768-81.764c-10.871 5.401-22.501 7.988-34 7.988-26.573 0-52.444-13.774-66.651-38.391l-20.97-36.314c-21.182-36.681-8.562-83.748 28.119-104.925l55.822-32.232c52.458-34.485 96.099-75.939 129.839-123.289-4.821-15.706 1.631-33.25 16.437-41.803 17.233-9.943 39.334-4.02 49.272 13.199l38.368 66.463 3.153-1.819c12.638-7.295 27.402-9.227 41.572-5.424 14.179 3.794 25.998 12.846 33.288 25.48 7.299 12.639 9.231 27.402 5.433 41.572-3.803 14.175-12.85 25.998-25.494 33.293l-3.148 1.819zm25.022-147.539 39.41-22.756c5.74-3.313 7.709-10.655 4.401-16.394-3.322-5.74-10.664-7.705-16.404-4.392l-39.409 22.756c-5.74 3.312-7.709 10.655-4.401 16.394 2.234 3.85 6.263 6.003 10.414 6.003 2.027.001 4.1-.522 5.989-1.611zm-66.641-41.549c-6.48-1.381-10.622-7.752-9.241-14.231l9.543-44.88c1.38-6.484 7.747-10.621 14.231-9.246 6.479 1.381 10.617 7.752 9.236 14.231l-9.538 44.885c-1.202 5.641-6.182 9.505-11.72 9.505-.829 0-1.672-.084-2.511-.264zm123.76 120.839c-1.64 5.07-6.348 8.298-11.409 8.298-1.23 0-2.483-.193-3.713-.594l-43.636-14.175c-6.3-2.05-9.75-8.822-7.7-15.122 2.045-6.305 8.817-9.754 15.117-7.704l43.641 14.175c6.3 2.05 9.75 8.822 7.7 15.122z" />
    </g>
</svg>