<svg width="64" height="64" viewBox="0 0 80 80" fill="none" xmlns="http://www.w3.org/2000/svg">
<path d="M65.0003 23.333H15.0003C10.398 23.333 6.66699 27.064 6.66699 31.6663V64.9997C6.66699 69.602 10.398 73.333 15.0003 73.333H65.0003C69.6027 73.333 73.3337 69.602 73.3337 64.9997V31.6663C73.3337 27.064 69.6027 23.333 65.0003 23.333Z" fill="url(#paint0_linear_346_2646)"/>
<path d="M26.667 10.0003V20.0003H31.667V11.667H48.3337V20.0003H53.3337V10.0003C53.3337 9.11627 52.9825 8.26842 52.3573 7.6433C51.7322 7.01818 50.8844 6.66699 50.0003 6.66699H30.0003C29.1163 6.66699 28.2684 7.01818 27.6433 7.6433C27.0182 8.26842 26.667 9.11627 26.667 10.0003Z" fill="url(#paint1_linear_346_2646)"/>
<path d="M39.9997 44.2C37.9856 44.2004 35.9813 43.9199 34.0447 43.3667L6.95801 35.62C5.91423 35.3214 4.99598 34.6913 4.342 33.8247C3.68802 32.9582 3.33385 31.9023 3.33301 30.8167V23.3333C3.33565 21.124 4.21448 19.0059 5.77671 17.4437C7.33894 15.8815 9.45702 15.0026 11.6663 15H68.333C70.5423 15.0026 72.6604 15.8815 74.2226 17.4437C75.7849 19.0059 76.6637 21.124 76.6663 23.3333V30.8167C76.6655 31.9044 76.31 32.9622 75.6537 33.8296C74.9974 34.697 74.0762 35.3268 73.0297 35.6233L45.9547 43.365C44.0181 43.9188 42.0138 44.1998 39.9997 44.2Z" fill="url(#paint2_linear_346_2646)"/>
<path d="M41.6667 38.333H38.3333C36.4924 38.333 35 39.8254 35 41.6663V46.6663C35 48.5073 36.4924 49.9997 38.3333 49.9997H41.6667C43.5076 49.9997 45 48.5073 45 46.6663V41.6663C45 39.8254 43.5076 38.333 41.6667 38.333Z" fill="url(#paint3_linear_346_2646)"/>
<defs>
<linearGradient id="paint0_linear_346_2646" x1="40.0003" y1="38.903" x2="40.0003" y2="71.3713" gradientUnits="userSpaceOnUse">
<stop stop-color="#2B50D2"/>
<stop offset="1" stop-color="#182EA5"/>
</linearGradient>
<linearGradient id="paint1_linear_346_2646" x1="40.0003" y1="6.94199" x2="40.0003" y2="14.1603" gradientUnits="userSpaceOnUse">
<stop stop-color="#2B50D2"/>
<stop offset="1" stop-color="#182EA5"/>
</linearGradient>
<linearGradient id="paint2_linear_346_2646" x1="39.9997" y1="15.9283" x2="39.9997" y2="44.04" gradientUnits="userSpaceOnUse">
<stop stop-color="#2B50D2"/>
<stop offset="1" stop-color="#182EA5"/>
</linearGradient>
<linearGradient id="paint3_linear_346_2646" x1="40" y1="39.1347" x2="40" y2="49.2963" gradientUnits="userSpaceOnUse">
<stop stop-color="#FED200"/>
<stop offset="1" stop-color="#F59815"/>
</linearGradient>
</defs>
</svg>
