<svg id="Layer_1" height="40" viewBox="0 0 520 520"
    width="40" xmlns="http://www.w3.org/2000/svg"
    data-name="Layer 1">
    <path
        d="m243.7 142.979c-31.5-19.908-4.057-68.319 29.566-49.432-119.765-74.16 60.173 37.344-137.2-84.973a7.961 7.961 0 0 0 -5.9-1.009 8.162 8.162 0 0 0 -4.889 3.57l-54.32 90.172a7.761 7.761 0 0 0 2.56 10.554l186.25 117.639a7.638 7.638 0 0 0 10.632-2.329c1.785-2.8 30.979-47.919 31.506-48.966z"
        fill="#9dcc6b" />
    <path
        d="m243.7 142.979c-31.493-19.882-4.075-68.315 29.566-49.432-119.793-74.291 29.662 18.443-104.912-64.947-8.054 25.029-43.885 33.959-62.624 15.05l-34.765 57.657a7.761 7.761 0 0 0 2.56 10.554l186.242 117.639a7.646 7.646 0 0 0 10.632-2.329l31.501-48.962z"
        fill="#9dcc6b" />
    <path
        d="m306.017 171.923-4.112 6.286-58.2-35.23c-18.3-10.259-18.194-39.284 0-49.51l.077.078a28.2 28.2 0 0 1 29.489 0l.155.078c8.636 5.406.57 18.517-8.149 13.191-9.519-6.327-22.5 3.454-19.555 14.357a13.19 13.19 0 0 0 6.053 8.536l51.76 31.351a7.75 7.75 0 0 1 2.482 10.863z"
        fill="#84b749" />
    <path
        d="m418.616 53.738-70.462-39.577a77.921 77.921 0 0 0 -92.5 11.641l-35.7 34.687c.785.486 54.114 33.554 53.312 33.058-33.594-18.886-61.082 29.512-29.565 49.432l73.176 44.31c35.812 21.462 62.433-4.83 91.647-22.5a15.017 15.017 0 0 1 -1.087-5.664v-85.366a15.637 15.637 0 0 1 14.822-15.52 7.722 7.722 0 0 0 -3.643-4.501z"
        fill="#f6ccaf" />
    <path
        d="m422.263 58.239c-5.386.415-9.426 2.885-11.795 6.44l-62.314-35a77.921 77.921 0 0 0 -92.5 11.64l-26 25.22-9.7-6.053 35.7-34.687a77.921 77.921 0 0 1 92.5-11.641l70.462 39.577a7.722 7.722 0 0 1 3.647 4.504z"
        fill="#f3bd98" />
    <path
        d="m314.321 461.763h-155.2a7.761 7.761 0 0 1 -7.76-7.761v-178.481a23.305 23.305 0 0 1 23.28-23.28h186.24a23.305 23.305 0 0 1 23.28 23.28v124.161a7.762 7.762 0 0 1 -2.648 5.839l-62.081 54.32a7.759 7.759 0 0 1 -5.111 1.922z"
        fill="#fc6" />
    <path
        d="m322.081 368.642h-23.281c-10.141-.044-10.152-15.477 0-15.52h23.28c10.142.043 10.153 15.478.001 15.52z"
        fill="#ffba55" />
    <path
        d="m286.664 320.728-18.9-12.917-18.9 12.917c-4.875 3.574-12.335-.363-12.136-6.407v-54.321a7.76 7.76 0 0 1 7.76-7.76h46.56a7.76 7.76 0 0 1 7.752 7.76v54.32c.189 6.039-7.246 9.98-12.136 6.408z"
        fill="#f8834b" />
    <path
        d="m314.321 461.763h-155.2a7.761 7.761 0 0 1 -7.76-7.761v-178.481a23.305 23.305 0 0 1 23.28-23.28h186.24a23.305 23.305 0 0 1 23.28 23.28v124.161a7.762 7.762 0 0 1 -2.648 5.839l-62.081 54.32a7.759 7.759 0 0 1 -5.111 1.922z"
        fill="#fc6" />
    <path
        d="m322.081 368.642h-23.281c-10.141-.044-10.152-15.477 0-15.52h23.28c10.142.043 10.153 15.478.001 15.52z"
        fill="#ffba55" />
    <path
        d="m286.664 320.728-18.9-12.917-18.9 12.917c-4.875 3.574-12.335-.363-12.136-6.407v-54.321a7.76 7.76 0 0 1 7.76-7.76h46.56a7.76 7.76 0 0 1 7.752 7.76v54.32c.189 6.039-7.246 9.98-12.136 6.408z"
        fill="#f8834b" />
    <path
        d="m360.881 252.241h-93.121v209.522h46.561a7.791 7.791 0 0 0 5.121-1.94l62.081-54.323a7.61 7.61 0 0 0 2.638-5.82v-124.159a23.348 23.348 0 0 0 -23.28-23.28z"
        fill="#ffba55" />
    <path
        d="m322.081 368.642h-23.281c-10.141-.044-10.152-15.477 0-15.52h23.28c10.142.043 10.153 15.478.001 15.52z"
        fill="#ffa92c" />
    <path
        d="m291.04 252.241h-23.28v55.559l18.935 12.96c4.8 3.555 12.285-.422 12.105-6.441v-54.319a7.783 7.783 0 0 0 -7.76-7.759z"
        fill="#f66824" />
    <g fill="#6f9a3d">
        <path
            d="m168.354 28.6c-8.054 25.029-43.885 33.959-62.624 15.05l19.555-32.515a7.754 7.754 0 0 1 10.787-2.561c.952.587 31.28 19.399 32.282 20.026z" />
        <path
            d="m116.439 105.342a38.44 38.44 0 0 1 -10.787 26.772c-7.714-4.82-24.328-15.328-32.127-20.254a7.759 7.759 0 0 1 -2.56-10.553l11.329-18.779 8.226-13.736a38.759 38.759 0 0 1 25.919 36.55z" />
        <path
            d="m292.049 193.652-8.769 13.58-12.88 19.943a7.638 7.638 0 0 1 -10.632 2.329c-7.865-4.969-24.217-15.321-31.972-20.255 7.604-26.869 44.984-35.921 64.253-15.597z" />
        <path
            d="m197.919 151.36c-41.021-1.3-41.011-60.783 0-62.081 41.022 1.304 41.012 60.783 0 62.081z" />
    </g>
    <path
        d="m404.648 370.038a23.052 23.052 0 0 0 -29.648-7.838c-13.165 6.419-109.813 53.57-120.281 58.666a27.749 27.749 0 0 0 2.328-5.122 34.967 34.967 0 0 0 2.173-9.855v-.078c1.38-19.958-14.742-37.254-34.61-37.17h-51.989l-2.405-7.3a23.181 23.181 0 0 0 -22.038-15.986h-35.619a7.785 7.785 0 0 0 -7.761 7.761v108.02a7.887 7.887 0 0 0 4.5 7.061l84.74 39.033a100.083 100.083 0 0 0 108.254-17.3l98.708-89.395a23.058 23.058 0 0 0 3.648-30.497z"
        fill="#f6ccaf" />
    <path
        d="m401 400.535-98.707 89.4a100.083 100.083 0 0 1 -108.254 17.3l-84.739-39.035a7.887 7.887 0 0 1 -4.5-7.061v-15.518a7.888 7.888 0 0 0 4.5 7.062l84.74 39.033a100.083 100.083 0 0 0 108.254-17.305l98.706-89.396a23.789 23.789 0 0 0 6.364-9.467 22.766 22.766 0 0 1 -6.364 24.987z"
        fill="#f3bd98" />
    <path
        d="m97 492.8h-46.522a7.76 7.76 0 0 1 -7.76-7.76v-147.44a7.76 7.76 0 0 1 7.76-7.76h46.519a23.348 23.348 0 0 1 23.322 23.319v116.322a23.348 23.348 0 0 1 -23.319 23.319z"
        fill="#425b72" />
    <path
        d="m120.319 457.727v11.718a23.382 23.382 0 0 1 -23.358 23.355h-46.483a7.783 7.783 0 0 1 -7.76-7.76v-27.313z"
        fill="#374f68" />
    <path
        d="m273.347 411.788a34.728 34.728 0 0 1 -34.532 33.29h-34.455c-10.15-.033-10.17-15.486 0-15.52h34.454a19.026 19.026 0 0 0 15.908-8.691z"
        fill="#e7a273" />
    <path
        d="m89.278 436.818c-.044 10.148-15.476 10.148-15.52 0 .042-10.148 15.477-10.147 15.52 0z"
        fill="#1f2f42" />
    <path
        d="m322.314 114.732a7.783 7.783 0 0 1 -10.709 2.483l-4.346-2.638c-14.092-8.719-49.609-30.7-63.245-39.189a28.312 28.312 0 0 1 29.644.155l46.095 28.48a7.805 7.805 0 0 1 2.561 10.709z"
        fill="#e7a273" />
    <path
        d="m469.522 182.4h-46.56a23.306 23.306 0 0 1 -23.281-23.28v-85.38a23.288 23.288 0 0 1 23.262-23.261h46.579a7.76 7.76 0 0 1 7.76 7.76v116.4a7.76 7.76 0 0 1 -7.76 7.761z"
        fill="#425b72" />
    <path
        d="m477.282 58.239v15.52h-77.6a23.249 23.249 0 0 1 23.281-23.28h46.56a7.783 7.783 0 0 1 7.759 7.76z"
        fill="#374f68" />
    <path
        d="m446.242 143.6c-.045 10.148-15.477 10.148-15.52 0 .044-10.149 15.478-10.148 15.52 0z"
        fill="#1f2f42" />
    <path
        d="m301.9 178.209-2.872 4.579-201.291-125.788 27.548-45.862a8.162 8.162 0 0 1 4.889-3.57 7.961 7.961 0 0 1 5.9 1.009l137.2 84.973c-33.64-18.895-61.053 29.541-29.565 49.432z"
        fill="#84b749" />
    <path
        d="m168.354 28.6c-8.054 25.029-43.885 33.959-62.624 15.05 4.655-7.811 14.786-24.626 19.555-32.515a8.162 8.162 0 0 1 4.889-3.57 7.961 7.961 0 0 1 5.9 1.009c-.987-.584 24.747 15.266 32.28 20.026z"
        fill="#678c38" />
    <path
        d="m228.96 120.319c.255-30.613-40.835-42.46-56.981-16.958l52.493 32.792a30.711 30.711 0 0 0 4.488-15.834z"
        fill="#678c38" />
</svg>