<svg height="64" viewBox="0 0 64 64" width="64"
    xmlns="http://www.w3.org/2000/svg">
    <g id="Delivery">
        <path class="ct9" d="m9 21h28v24h-28z" fill="#b38b63" />
        <path class="ct19" d="m35 21v14a6 6 0 0 1 -6 6h-20v4h28v-24z"
            fill="#a97c50" />
        <path class="ct0"
            d="m55 25a3.618 3.618 0 0 0 2-3.236v-8.764h-14v6a6 6 0 0 0 6 6v4h6z"
            fill="#ffbcab" />
        <path class="ct1"
            d="m55 29h-8a6 6 0 0 0 -6 6v22h20v-22a6 6 0 0 0 -6-6z"
            fill="#ff5023" />
        <path class="ct2"
            d="m55 43v-6a4 4 0 0 0 -8 0v4a2 2 0 0 1 -2 2h-12v8h14a8 8 0 0 0 8-8z"
            fill="#ffda44" />
        <path class="ct3" d="m33 41h-6v4 4 4h6v-2-8z" fill="#df461f" />
        <path class="ct3" d="m58 13v-2a8 8 0 0 0 -16 0v2z" fill="#df461f" />
        <path class="ct5" d="m23 29 3 2v-10h-6v10z" fill="#ffa733" />
        <path class="ct0" d="m19 45a4 4 0 0 0 4 4h4v-4z" fill="#ffbcab" />
        <path class="ct7" d="m41 57h20v4h-20z" fill="#6d6e71" />
        <path class="ct8"
            d="m56 28.08v-2.511a4.59 4.59 0 0 0 2-3.8v-7.769a1 1 0 0 0 1-1v-2a9 9 0 0 0 -18 0v1h-5a1 1 0 0 0 0 2h6v5a7.011 7.011 0 0 0 6 6.929v2.071h-1a7.008 7.008 0 0 0 -7 7v7h-2v-21a1 1 0 0 0 -1-1h-28a1 1 0 0 0 -1 1v24a1 1 0 0 0 1 1h9.1a5.009 5.009 0 0 0 4.9 4h3v3a1 1 0 0 0 1 1h6a1 1 0 0 0 1-1v-1h6v9a1 1 0 0 0 1 1h20a1 1 0 0 0 1-1v-26a7.006 7.006 0 0 0 -6-6.92zm-13-17.08a7 7 0 0 1 14 0v1h-14zm8 13h-2a5.006 5.006 0 0 1 -5-5v-5h12v7.764a2.6 2.6 0 0 1 -1.447 2.341 1 1 0 0 0 -.553.895v3h-4v-2h1a1 1 0 0 0 0-2zm-26-2v7.131l-1.445-.963a1 1 0 0 0 -1.11 0l-1.445.963v-7.131zm-15 0h9v9a1 1 0 0 0 1.555.832l2.445-1.632 2.445 1.63a1 1 0 0 0 1.555-.83v-9h9v20h-2v-1a1 1 0 0 0 -1-1h-6a1 1 0 0 0 -1 1v3h-16zm13 26a3.006 3.006 0 0 1 -2.829-2h5.829v2zm9 4h-4v-10h4zm2-8h11a3 3 0 0 0 3-3v-4a3 3 0 0 1 6 0v6a7.008 7.008 0 0 1 -7 7h-13zm13 8a9.01 9.01 0 0 0 9-9v-6a5 5 0 0 0 -10 0v4a1 1 0 0 1 -1 1h-3v-7a5.006 5.006 0 0 1 5-5h8a5.006 5.006 0 0 1 5 5v21h-18v-4zm13 8h-18v-2h18z"
            fill="#231f20" />
    </g>
</svg>