<svg version="1.1" id="Layer_1" xmlns="http://www.w3.org/2000/svg"
    xmlns:xlink="http://www.w3.org/1999/xlink" x="0px" y="0px"
    viewBox="0 0 128 128" style="enable-background:new 0 0 128 128;"
    xml:space="preserve">
    <style type="text/css">
        .st0 {
            fill: #03B0E7;
        }
    </style>
    <g>
        <g>
            <g>
                <g>
                    <path class="st0" d="M51,21.4c-1.7-2.4-5-3-7.4-1.3l-12.3,8.6l-4.5-3.1c1.7-2.9,0.9-6.6-1.9-8.5c-2.9-2-6.9-1.3-9,1.6
c-2,2.9-1.3,6.9,1.6,9c2,1.4,4.5,1.5,6.6,0.5l5.5,3.8l-5.5,3.8c-2-1-4.6-0.9-6.6,0.5c-2.9,2-3.6,6.1-1.6,9c2,2.9,6.1,3.6,9,1.6
c2.8-1.9,3.5-5.6,1.9-8.5l4.5-3.1l12.3,8.6c2.4,1.7,5.7,1,7.4-1.3L36,31.9L51,21.4z M21.3,25.7c-1.8,0-3.3-1.5-3.3-3.3
c0-1.8,1.5-3.3,3.3-3.3c1.8,0,3.3,1.5,3.3,3.3C24.7,24.2,23.2,25.7,21.3,25.7z M21.3,44.8c-1.8,0-3.3-1.5-3.3-3.3
c0-1.8,1.5-3.3,3.3-3.3c1.8,0,3.3,1.5,3.3,3.3C24.7,43.3,23.2,44.8,21.3,44.8z" />
                </g>
            </g>
            <g>
                <path class="st0" d="M99.4,99.5h-6.8c-1.5,0-2.7-1.2-2.7-2.7s1.2-2.7,2.7-2.7h4.1v-4.1c0-1.5,1.2-2.7,2.7-2.7s2.7,1.2,2.7,2.7
v6.8C102.1,98.2,100.9,99.5,99.4,99.5z" />
            </g>
            <g>
                <path class="st0" d="M81.3,99.5H70c-1.5,0-2.7-1.2-2.7-2.7S68.5,94,70,94h11.3c1.5,0,2.7,1.2,2.7,2.7S82.8,99.5,81.3,99.5z
M58.7,99.5H47.4c-1.5,0-2.7-1.2-2.7-2.7s1.2-2.7,2.7-2.7h11.3c1.5,0,2.7,1.2,2.7,2.7S60.2,99.5,58.7,99.5z" />
            </g>
            <g>
                <path class="st0" d="M36.1,99.5h-6.8c-1.5,0-2.7-1.2-2.7-2.7v-6.8c0-1.5,1.2-2.7,2.7-2.7s2.7,1.2,2.7,2.7V94h4.1
c1.5,0,2.7,1.2,2.7,2.7S37.6,99.5,36.1,99.5z" />
            </g>
            <g>
                <path class="st0" d="M29.3,76.1c-1.5,0-2.7-1.2-2.7-2.7V56.8c0-1.5,1.2-2.7,2.7-2.7s2.7,1.2,2.7,2.7v16.5
C32,74.9,30.8,76.1,29.3,76.1z" />
            </g>
            <g>
                <path class="st0" d="M81.3,36.2H70c-1.5,0-2.7-1.2-2.7-2.7c0-1.5,1.2-2.7,2.7-2.7h11.3c1.5,0,2.7,1.2,2.7,2.7
C84,35,82.8,36.2,81.3,36.2z M58.7,36.2H47.4c-1.5,0-2.7-1.2-2.7-2.7c0-1.5,1.2-2.7,2.7-2.7h11.3c1.5,0,2.7,1.2,2.7,2.7
C61.4,35,60.2,36.2,58.7,36.2z" />
            </g>
            <g>
                <path class="st0" d="M99.4,43c-1.5,0-2.7-1.2-2.7-2.7v-4.1h-4.1c-1.5,0-2.7-1.2-2.7-2.7c0-1.5,1.2-2.7,2.7-2.7h6.8
c1.5,0,2.7,1.2,2.7,2.7v6.8C102.1,41.8,100.9,43,99.4,43z" />
            </g>
            <g>
                <path class="st0" d="M99.4,76.1c-1.5,0-2.7-1.2-2.7-2.7V56.8c0-1.5,1.2-2.7,2.7-2.7s2.7,1.2,2.7,2.7v16.5
C102.1,74.9,100.9,76.1,99.4,76.1z" />
            </g>
        </g>
        <path class="st0" d="M49.4,65.3c-1.5-1.5-2.2-3.6-2.2-6.3c0-1.7,0.3-3.3,1-4.6c0.7-1.3,1.6-2.3,2.8-3c1.2-0.7,2.6-1,4.1-1
c2.4,0,4.3,0.8,5.8,2.3c1.5,1.5,2.2,3.6,2.2,6.3c0,2.7-0.7,4.7-2.2,6.3c-1.5,1.5-3.4,2.3-5.8,2.3C52.7,67.6,50.8,66.8,49.4,65.3z
M74.8,50.8L74.8,50.8c2.1,0,3.4,2.4,2.2,4.1L59.4,80.7c-0.5,0.7-1.3,1.1-2.2,1.1h0c-2.1,0-3.4-2.4-2.2-4.1L72.6,52
C73.1,51.3,73.9,50.8,74.8,50.8z M57,62.3c0.5-0.7,0.7-1.8,0.7-3.3s-0.2-2.6-0.7-3.3c-0.5-0.7-1.1-1.1-1.9-1.1
c-0.8,0-1.4,0.4-1.9,1.1c-0.5,0.7-0.7,1.8-0.7,3.3s0.2,2.6,0.7,3.3c0.5,0.7,1.1,1.1,1.9,1.1C55.9,63.4,56.5,63.1,57,62.3z
M71.2,79.9c-1.5-1.5-2.2-3.6-2.2-6.3c0-2.6,0.7-4.7,2.2-6.3c1.5-1.5,3.4-2.3,5.7-2.3c2.4,0,4.3,0.8,5.8,2.3
c1.5,1.5,2.2,3.6,2.2,6.3c0,2.7-0.7,4.7-2.2,6.3c-1.5,1.5-3.4,2.3-5.8,2.3C74.6,82.2,72.7,81.4,71.2,79.9z M78.8,76.9
c0.5-0.7,0.7-1.8,0.7-3.3s-0.2-2.6-0.7-3.3c-0.5-0.7-1.1-1.1-1.9-1.1c-0.8,0-1.4,0.4-1.9,1.1c-0.5,0.7-0.7,1.8-0.7,3.3
s0.2,2.6,0.7,3.3c0.5,0.7,1.1,1.1,1.9,1.1C77.7,78,78.4,77.7,78.8,76.9z" />
    </g>
</svg>