<svg height="512pt" viewBox="0 -102 512.00021 512" width="512pt" xmlns="http://www.w3.org/2000/svg"><path d="m479.976562 261.699219c-.421874 4.492187-1.488281 8.835937-3.085937 12.925781-7.328125 18.726562-25.957031 32.378906-46.488281 32.378906-20.539063 0-36.585938-13.652344-40.382813-32.378906-.839843-4.101562-1.082031-8.433594-.65625-12.925781.878907-9.324219 4.515625-17.976563 10.011719-25.183594 9.273438-12.136719 23.871094-20.125 39.574219-20.125 15.699219 0 28.78125 7.988281 35.753906 20.125 4.152344 7.195313 6.15625 15.859375 5.273437 25.183594zm0 0" fill="#41739f"/><path d="m165.796875 261.699219c-.425781 4.492187-1.488281 8.835937-3.097656 12.925781-7.320313 18.726562-25.945313 32.378906-46.476563 32.378906-20.542968 0-36.585937-13.652344-40.382812-32.378906-.839844-4.101562-1.082032-8.433594-.660156-12.925781.871093-9.324219 4.507812-17.976563 10.011718-25.183594 9.273438-12.136719 23.863282-20.125 39.566406-20.125 15.699219 0 28.789063 7.988281 35.765626 20.125 4.148437 7.195313 6.152343 15.859375 5.273437 25.183594zm0 0" fill="#41739f"/><path d="m165.796875 261.699219c-.425781 4.492187-1.488281 8.835937-3.097656 12.925781h-86.859375c-.839844-4.101562-1.082032-8.433594-.660156-12.925781.871093-9.324219 4.507812-17.976563 10.011718-25.183594h75.332032c4.148437 7.195313 6.152343 15.859375 5.273437 25.183594zm0 0" fill="#355d7c"/><path d="m137.234375 261.699219c-.882813 9.351562-9.179687 16.933593-18.53125 16.933593-9.355469 0-16.222656-7.582031-15.339844-16.933593.882813-9.351563 9.179688-16.933594 18.53125-16.933594 9.355469 0 16.222657 7.582031 15.339844 16.933594zm0 0" fill="#a3c0d9"/><path d="m479.976562 261.699219c-.421874 4.492187-1.488281 8.835937-3.085937 12.925781h-86.871094c-.839843-4.101562-1.082031-8.433594-.65625-12.925781.878907-9.324219 4.515625-17.976563 10.011719-25.183594h75.328125c4.152344 7.195313 6.15625 15.859375 5.273437 25.183594zm0 0" fill="#355d7c"/><path d="m510.640625 181.429688-3.398437 36.027343-168.035157 9.023438 14.097657-149.496094h70.492187c3.558594 0 6.808594 1.484375 8.957031 4.105469l57.53125 70.066406 17.835938 21.726562c1.921875 2.328126 2.816406 5.375 2.519531 8.546876zm0 0" fill="#ff6969"/><path d="m451.417969 261.699219c-.882813 9.351562-9.179688 16.933593-18.53125 16.933593-9.355469 0-16.222657-7.582031-15.339844-16.933593.882813-9.351563 9.179687-16.933594 18.53125-16.933594 9.355469 0 16.21875 7.582031 15.339844 16.933594zm0 0" fill="#a3c0d9"/><path d="m353.304688 217.457031h-294.992188l16.914062-179.351562c1.957032-20.761719 20.378907-37.597657 41.144532-37.597657h219.785156c20.765625 0 36.011719 16.835938 34.054688 37.597657zm0 0" fill="#ffd886"/><path d="m490.285156 151.15625h-65.871094c-7.382812 0-12.808593-5.980469-12.109374-13.375l5.730468-60.800781h5.765625c3.558594 0 6.804688 1.488281 8.953125 4.109375zm0 0" fill="#b9f7ff"/><path d="m502.710938 255.570312h-451.398438c-3.453125 0-5.992188-2.800781-5.664062-6.253906l2.414062-25.601562c.324219-3.457032 3.390625-6.257813 6.84375-6.257813h451.398438c3.457031 0 5.992187 2.800781 5.667968 6.257813l-2.414062 25.601562c-.328125 3.453125-3.390625 6.253906-6.847656 6.253906zm0 0" fill="#6193ff"/><path d="m507.242188 217.457031h-9.65625c-9.261719 0-16.058594-7.503906-15.183594-16.761719.871094-9.257812 9.085937-16.761718 18.34375-16.761718h9.65625zm0 0" fill="#ffdb06"/><path d="m58.3125 15.183594h-50.71875c-4.195312 0-7.59375-3.398438-7.59375-7.589844 0-4.195312 3.398438-7.59375 7.59375-7.59375h50.71875c4.195312 0 7.59375 3.398438 7.59375 7.59375 0 4.191406-3.398438 7.589844-7.59375 7.589844zm0 0" fill="#c4daec"/><path d="m48.679688 46.230469h-25.359376c-4.191406 0-7.59375-3.398438-7.59375-7.59375 0-4.191407 3.402344-7.589844 7.59375-7.589844h25.359376c4.195312 0 7.59375 3.398437 7.59375 7.589844 0 4.195312-3.398438 7.59375-7.59375 7.59375zm0 0" fill="#c4daec"/><path d="m41.714844 77.273438h-6.96875c-4.191406 0-7.589844-3.398438-7.589844-7.589844 0-4.195313 3.398438-7.59375 7.589844-7.59375h6.96875c4.195312 0 7.59375 3.398437 7.59375 7.59375 0 4.191406-3.398438 7.589844-7.59375 7.589844zm0 0" fill="#c4daec"/><g fill="#e57917"><path d="m233.195312 78.441406-22.757812-15.734375-27.925781 15.734375c-1.023438.574219-2.09375-.105468-1.910157-1.214844l12.609376-76.714843h54.902343l-12.609375 76.714843c-.179687 1.109376-1.476562 1.789063-2.308594 1.214844zm0 0"/><path d="m108.75 186.148438 7.054688-65.90625c.171874-1.589844.976562-2.820313 2.417968-3.691407 1.441406-.867187 3.105469-1.308593 4.996094-1.3125l35.105469-.105469c1.550781-.003906 2.65625.683594 3.320312 2.0625.660157 1.382813.890625 3.007813.691407 4.875-.21875 2.007813-.820313 3.707032-1.808594 5.089844-.996094 1.390625-2.230469 2.082032-3.714844 2.089844l-26.199219.078125-1.878906 17.539063 15.277344-.046876c1.480469-.003906 2.578125.617188 3.289062 1.859376.707031 1.242187.972657 2.730468.785157 4.460937-.171876 1.589844-.726563 3.007813-1.667969 4.257813-.941407 1.246093-2.191407 1.871093-3.742188 1.878906l-15.277343.042968-2.867188 26.78125c-.167969 1.59375-1.078125 2.824219-2.71875 3.691407-1.648438.871093-3.546875 1.308593-5.703125 1.316406-2.160156.003906-3.96875-.421875-5.425781-1.28125-1.460938-.859375-2.105469-2.085937-1.933594-3.679687zm0 0"/><path d="m148.28125 184.371094c.023438-.210938.128906-.589844.324219-1.144532l25.597656-63.371093c.722656-1.726563 2.097656-3.066407 4.121094-4.003907 2.023437-.941406 4.28125-1.414062 6.773437-1.421874 2.496094-.007813 4.65625.453124 6.476563 1.378906 1.824219.929687 2.910156 2.257812 3.265625 3.984375l12.140625 63.257812c.074219.554688.101562.929688.078125 1.140625-.191406 1.800782-1.457032 3.359375-3.789063 4.679688-2.332031 1.324218-4.675781 1.988281-7.039062 1.992187-2.898438.011719-4.511719-.984375-4.835938-2.992187l-2.050781-12.964844-21.34375.066406-4.832031 12.984375c-.753907 2.011719-2.578125 3.015625-5.480469 3.027344-2.359375.003906-4.566406-.644531-6.617188-1.953125-2.050781-1.308594-2.980468-2.859375-2.789062-4.660156zm24.289062-21.863282 14.769532-.046874-4.40625-27.792969zm0 0"/><path d="m210.007812 178.371094c.207032-1.933594 1.105469-3.875 2.695313-5.816406 1.59375-1.941407 3.296875-2.914063 5.117187-2.921876 1.011719-.003906 2.097657.414063 3.253907 1.25 1.160156.835938 2.207031 1.761719 3.144531 2.777344.933594 1.019532 2.300781 1.941406 4.101562 2.777344 1.796876.832031 3.742188 1.246094 5.832032 1.238281 2.632812-.007812 4.984375-.582031 7.066406-1.734375 2.078125-1.144531 3.238281-2.859375 3.480469-5.144531.246093-2.28125-.636719-4.285156-2.640625-6.011719-2.007813-1.71875-4.503906-3.285156-7.488282-4.695312-2.984374-1.410156-5.96875-2.992188-8.949218-4.746094-2.980469-1.753906-5.394532-4.253906-7.234375-7.5-1.847657-3.246094-2.527344-7.117188-2.042969-11.617188.785156-7.335937 3.902344-12.824218 9.347656-16.472656 5.449219-3.648437 11.746094-5.484375 18.894532-5.503906 1.753906-.007812 3.582031.09375 5.480468.304688 1.898438.207031 4.011719.609374 6.339844 1.210937 2.328125.597656 4.183594 1.574219 5.554688 2.921875 1.375 1.351562 1.953124 2.988281 1.75 4.910156-.195313 1.832032-.957032 3.730469-2.277344 5.703125-1.324219 1.972657-2.964844 2.960938-4.921875 2.964844-.808594.003906-2.457031-.648437-4.945313-1.957031-2.492187-1.304688-5.324218-1.953125-8.492187-1.945313-3.371094.011719-5.964844.625-7.78125 1.839844-1.816407 1.21875-2.816407 2.691406-3 4.417969-.171875 1.59375.464843 3.046875 1.910156 4.355468 1.441406 1.308594 3.296875 2.425782 5.558594 3.355469 2.257812.925781 4.710937 2.128907 7.347656 3.609375 2.640625 1.476563 5.046875 3.09375 7.21875 4.851563 2.171875 1.757812 3.878906 4.226562 5.121094 7.402343 1.246093 3.179688 1.648437 6.8125 1.210937 10.894532-.761718 7.132812-3.683594 12.695312-8.761718 16.683594-5.082032 3.992187-11.398438 5.996093-18.953126 6.019531-6.542968.019531-12.089843-1.347657-16.648437-4.101563-4.566406-2.753906-6.660156-5.859375-6.289063-9.320312zm0 0"/><path d="m268.863281 121.75c.199219-1.878906.78125-3.511719 1.738281-4.894531.953126-1.378907 2.207032-2.074219 3.761719-2.078125l43.703125-.132813c1.550782-.003906 2.65625.683594 3.320313 2.058594.660156 1.375.890625 3.003906.6875 4.886719-.214844 2.015625-.816407 3.714844-1.808594 5.097656-.992187 1.378906-2.226563 2.070312-3.710937 2.074219l-13.960938.042969-6.074219 56.742187c-.171875 1.601563-1.082031 2.839844-2.722656 3.714844-1.648437.878906-3.546875 1.316406-5.703125 1.324219-2.160156.007812-3.96875-.421876-5.425781-1.289063-1.460938-.867187-2.101563-2.101563-1.929688-3.703125l6.074219-56.742188-13.960938.042969c-1.484374.003907-2.574218-.679687-3.269531-2.054687-.695312-1.375-.933593-3.070313-.71875-5.089844zm0 0"/></g></svg>