<svg version="1.1" id="Layer_1" xmlns="http://www.w3.org/2000/svg"
    xmlns:xlink="http://www.w3.org/1999/xlink" x="0px" y="0px"
    viewBox="0 0 500 500" style="enable-background:new 0 0 500 500;"
    xml:space="preserve">
    <style type="text/css">
        .st0 {
            fill: #3C5A9B;
        }

        .st1 {
            fill: #FFFFFF;
        }
    </style>
    <path class="st0" d="M450.8,348.3V151.7c0-10.9-5.8-20.9-15.2-26.4L265.2,27c-9.4-5.4-21-5.4-30.5,0L64.5,125.3
c-9.4,5.4-15.2,15.5-15.2,26.4v196.7c0,10.9,5.8,20.9,15.2,26.4L234.8,473c9.4,5.4,21,5.4,30.5,0l170.3-98.3
C445,369.3,450.8,359.2,450.8,348.3z" />
    <g>
        <path class="st1" d="M187.3,337c-3.3,0-6.5-1.2-9-3.4l-83.6-73.1c-5.7-5-6.3-13.7-1.3-19.4c0.4-0.5,0.8-0.9,1.3-1.3l83.6-73.1
c5.7-5,14.4-4.4,19.4,1.3c5,5.7,4.4,14.4-1.3,19.4l0,0l-71.8,62.8l71.8,62.8c5.7,5,6.3,13.6,1.3,19.4
C195,335.3,191.3,337,187.3,337z" />
        <path class="st1" d="M312.7,337c-7.6,0-13.7-6.1-13.7-13.7c0-4,1.7-7.7,4.7-10.3l71.8-62.8l-71.8-62.8c-5.7-5-6.3-13.7-1.3-19.4
c5-5.7,13.7-6.3,19.4-1.3l83.6,73.1c5.7,5,6.3,13.7,1.3,19.4c-0.4,0.5-0.8,0.9-1.3,1.3l-83.6,73.1C319.2,335.8,316,337.1,312.7,337
z" />
        <path class="st1" d="M218.7,368.4c-7.6,0-13.7-6.1-13.7-13.7c0-1.3,0.2-2.6,0.6-3.9l62.7-209c1.9-7.3,9.5-11.7,16.8-9.7
c7.3,1.9,11.7,9.5,9.7,16.8c-0.1,0.3-0.1,0.5-0.2,0.8l-62.7,209C230.1,364.4,224.7,368.4,218.7,368.4z" />
    </g>
</svg>