<svg version="1.1" xmlns="http://www.w3.org/2000/svg"
xmlns:xlink="http://www.w3.org/1999/xlink" x="0px" y="0px"
viewBox="0 0 1000 1000" enable-background="new 0 0 1000 1000"
xml:space="preserve">
<style>
    .mt0 {
        fill: #385596 !important;
    }
</style>
<g>
    <path class="mt0"
        d="M867.5,10h-735C65.1,10,10,65.1,10,132.5v735C10,934.9,65.1,990,132.5,990h371.7V638.6H386.9V485.5h117.3v-76.7C504.2,290.6,591.5,198,703,198h108.2v172.9h-96.8c-25.3,0-32.8,14.5-32.8,34.6v80h129.5v153.1H681.6V990h185.9c67.4,0,122.5-55.1,122.5-122.5v-735C990,65.1,934.9,10,867.5,10L867.5,10z" />
</g>
</svg>