<svg id="Layer_1" height="512" viewBox="0 0 512 512" width="512" xmlns="http://www.w3.org/2000/svg" data-name="Layer 1"><path d="m507.219 275.172-40.985-90.162a42.749 42.749 0 0 0 -38.834-25.01h-395.4a10.667 10.667 0 0 0 -10.667 10.667v117.333h16a10.667 10.667 0 1 1 0 21.333h-16v32a32.035 32.035 0 0 0 32 32h426.667a32.035 32.035 0 0 0 32-32v-44.091a52.958 52.958 0 0 0 -4.781-22.07z" fill="#00cf66"/><path d="m21.333 330.667v10.667a32.035 32.035 0 0 0 32 32h426.667a32.035 32.035 0 0 0 32-32v-10.667z" fill="#00b157"/><path d="m490.667 309.333h21.333v-12.091a53.255 53.255 0 0 0 -.871-9.242h-20.462a10.667 10.667 0 0 0 -10.667 10.667 10.667 10.667 0 0 0 10.667 10.666z" fill="#fac100"/><path d="m432.324 202.667h-48.324a10.667 10.667 0 0 0 -10.667 10.667v42.666a10.667 10.667 0 0 0 10.667 10.667h74.586a10.667 10.667 0 0 0 9.711-15.081l-16.552-36.414a21.333 21.333 0 0 0 -19.421-12.505z" fill="#eaeff0"/><path d="m466.328 247.256a10.476 10.476 0 0 1 -7.742 3.41h-74.586a10.667 10.667 0 0 1 -10.667-10.666v16a10.667 10.667 0 0 0 10.667 10.667h74.586a10.667 10.667 0 0 0 9.711-15.081z" fill="#d9e1e2"/><path d="m320 96h-266.667a32.035 32.035 0 0 0 -32 32v138.667h-10.666a10.667 10.667 0 1 0 0 21.333h26.666a10.667 10.667 0 1 1 0 21.333h-26.666a10.667 10.667 0 0 0 0 21.333h309.333a32.035 32.035 0 0 0 32-32v-170.666a32.035 32.035 0 0 0 -32-32z" fill="#fd3730"/><g fill="#eaeff0"><path d="m106.667 170.667h-32a10.667 10.667 0 0 0 -10.667 10.666v64a10.667 10.667 0 1 0 21.333 0v-21.333h16a10.667 10.667 0 1 0 0-21.333h-16v-10.667h21.333a10.667 10.667 0 0 0 0-21.333z"/><path d="m184.224 197.333a26.7 26.7 0 0 0 -26.667-26.667h-21.333a10.667 10.667 0 0 0 -10.667 10.667v64a10.667 10.667 0 1 0 21.333 0v-12.755l17.31 19.779a10.665 10.665 0 1 0 16.05-14.047l-13.839-15.82a26.715 26.715 0 0 0 17.813-25.157zm-26.667 5.333h-10.666v-10.666h10.667a5.333 5.333 0 0 1 0 10.667z"/><path d="m237.333 192a10.667 10.667 0 1 0 0-21.333h-32a10.667 10.667 0 0 0 -10.667 10.667v64a10.667 10.667 0 0 0 10.667 10.666h32a10.667 10.667 0 1 0 0-21.333h-21.333v-10.667h15.766a10.667 10.667 0 1 0 0-21.333h-15.766v-10.667z"/><path d="m298.667 234.667h-21.334v-10.667h15.76a10.667 10.667 0 1 0 0-21.333h-15.76v-10.667h21.333a10.667 10.667 0 0 0 0-21.333h-32a10.667 10.667 0 0 0 -10.666 10.666v64a10.667 10.667 0 0 0 10.667 10.667h32a10.667 10.667 0 0 0 0-21.333z"/></g><circle cx="117.333" cy="362.667" fill="#2d4a60" r="48"/><circle cx="117.333" cy="362.667" fill="#d9e1e2" r="21.333"/><circle cx="394.667" cy="362.667" fill="#2d4a60" r="48"/><circle cx="394.667" cy="362.667" fill="#d9e1e2" r="21.333"/></svg>