<svg id="Layer_1" height="512" viewBox="0 0 32 32" width="512" xmlns="http://www.w3.org/2000/svg" xmlns:xlink="http://www.w3.org/1999/xlink" data-name="Layer 1"><linearGradient id="linear-gradient" gradientUnits="userSpaceOnUse" x1="15" x2="17" y1="15.5" y2="15.5"><stop offset="0" stop-color="#3e4154"/><stop offset="1" stop-color="#1b2129"/></linearGradient><linearGradient id="linear-gradient-2" x1="23.544" x2="23.464" xlink:href="#linear-gradient" y1="7.135" y2="15.733"/><linearGradient id="linear-gradient-3" x1="8.505" x2="8.505" xlink:href="#linear-gradient" y1="8.33" y2="17.151"/><linearGradient id="linear-gradient-4" gradientUnits="userSpaceOnUse" x1="13.88" x2="18.12" y1="6.88" y2="11.12"><stop offset="0" stop-color="#edf1f2"/><stop offset="1" stop-color="#c6cbcc"/></linearGradient><linearGradient id="linear-gradient-5" x1="16" x2="16" xlink:href="#linear-gradient" y1="7.821" y2="15.589"/><linearGradient id="linear-gradient-6" gradientUnits="userSpaceOnUse" x1="16" x2="16" y1="25" y2="28"><stop offset="0" stop-color="#4793eb"/><stop offset="1" stop-color="#2367ec"/></linearGradient><linearGradient id="linear-gradient-7" x1="25" x2="25" xlink:href="#linear-gradient-6" y1="16" y2="19"/><linearGradient id="linear-gradient-8" x1="7" x2="7" xlink:href="#linear-gradient-6" y1="18" y2="21"/><path d="m16 27a1 1 0 0 1 -1-1v-21a1 1 0 0 1 2 0v21a1 1 0 0 1 -1 1z" fill="url(#linear-gradient)"/><path d="m29.9 15.553-4-8a.993.993 0 0 0 -1-.547l-7.01.78a1 1 0 1 0 .21 1.987l5.183-.573-3.178 6.356a1 1 0 0 0 1.79.894l3.105-6.213 3.105 6.21a1 1 0 1 0 1.79-.894z" fill="url(#linear-gradient-2)"/><path d="m13.9 8.227-7.01.779a1 1 0 0 0 -.785.547l-4 8a1 1 0 0 0 1.79.894l3.105-6.211 3.105 6.211a1 1 0 1 0 1.79-.894l-3.359-6.718 5.584-.621a1 1 0 1 0 -.22-1.987z" fill="url(#linear-gradient-3)"/><circle cx="16" cy="9" fill="url(#linear-gradient-4)" r="3"/><circle cx="16" cy="9" fill="url(#linear-gradient-5)" r="1"/><path d="m7.272 28a1 1 0 0 1 -.9-1.451 3 3 0 0 1 2.628-1.549h14a3 3 0 0 1 2.625 1.549 1 1 0 0 1 -.9 1.451z" fill="url(#linear-gradient-6)"/><path d="m23 19a3 3 0 0 1 -3-3h10a3 3 0 0 1 -3 3z" fill="url(#linear-gradient-7)"/><path d="m5 21a3 3 0 0 1 -3-3h10a3 3 0 0 1 -3 3z" fill="url(#linear-gradient-8)"/></svg>