<?xml version="1.0" encoding="utf-8"?>
<!-- Generator: Adobe Illustrator 26.3.1, SVG Export Plug-In . SVG Version: 6.00 Build 0)  -->
<svg version="1.1" id="Layer_1" xmlns="http://www.w3.org/2000/svg" xmlns:xlink="http://www.w3.org/1999/xlink" x="0px" y="0px"
	 viewBox="0 0 24 24" style="enable-background:new 0 0 24 24;" xml:space="preserve">
<style type="text/css">
	.st0{fill:#B2E2FD;}
	.st1{fill:#009EF7;}
</style>
<path class="st0" d="M8,8c0-0.6,0.4-1,1-1h7V3c0-0.6-0.4-1-1-1H3C2.4,2,2,2.4,2,3v10c0,0.6,0.4,1,1,1h2v2.1c0,0.7,0.8,1,1.3,0.5
	L8,14.9V8z"/>
<path class="st1" d="M22,8v10c0,0.6-0.4,1-1,1h-2v2.1c0,0.7-0.8,1-1.3,0.5L15,18.9H9c-0.6,0-1-0.4-1-1v-10c0-0.6,0.4-1,1-1h12
	C21.6,7,22,7.4,22,8z M19,11c0-0.6-0.4-1-1-1h-6c-0.6,0-1,0.4-1,1s0.4,1,1,1h6C18.6,12,19,11.6,19,11z M17,15c0-0.6-0.4-1-1-1h-4
	c-0.6,0-1,0.4-1,1s0.4,1,1,1h4C16.6,16,17,15.6,17,15z"/>
</svg>
