<svg width="64" height="64" viewBox="0 0 80 80" fill="none" xmlns="http://www.w3.org/2000/svg">
<g clip-path="url(#clip0_346_2656)">
<path d="M65.7972 13.7029L33.5696 0.132978C33.3612 0.0452119 33.1373 0 32.9111 0C32.685 0 32.4611 0.0452119 32.2526 0.132978L0.0250573 13.7029C-0.282489 13.8326 -0.544975 14.0501 -0.72956 14.3281C-0.914145 14.6062 -1.01263 14.9325 -1.0127 15.2663V52.5824C-1.01263 52.9162 -0.914145 53.2425 -0.72956 53.5206C-0.544975 53.7986 -0.282489 54.0161 0.0250573 54.1457L32.2526 67.7157C32.4611 67.8034 32.685 67.8486 32.9111 67.8486C33.1373 67.8486 33.3612 67.8034 33.5696 67.7157L65.7972 54.1462C66.1047 54.0166 66.3672 53.7991 66.5518 53.521C66.7364 53.243 66.8349 52.9166 66.8349 52.5829V15.2663C66.8349 14.9325 66.7364 14.6062 66.5518 14.3281C66.3672 14.0501 66.1047 13.8326 65.7972 13.7029Z" fill="url(#paint0_linear_346_2656)"/>
<path d="M33.5696 67.7152L65.7972 54.1457C66.1047 54.016 66.3672 53.7986 66.5518 53.5205C66.7364 53.2424 66.8349 52.9161 66.835 52.5824V15.2657C66.8349 14.932 66.7364 14.6057 66.5518 14.3276C66.3672 14.0495 66.1047 13.8321 65.7972 13.7024L33.5696 0.132463C33.3612 0.0448037 33.1373 -0.000235412 32.9111 9.25306e-07V67.8476C33.1373 67.8478 33.3612 67.8028 33.5696 67.7152Z" fill="url(#paint1_linear_346_2656)"/>
<path d="M32.9113 28.8358L66.6868 14.6143C66.5208 14.2056 66.201 13.8783 65.7963 13.7029L33.5698 0.132978C33.3614 0.0452119 33.1375 0 32.9113 0C32.6852 0 32.4613 0.0452119 32.2528 0.132978L0.0252675 13.7029C-0.379499 13.8783 -0.699261 14.2056 -0.865234 14.6143L32.9113 28.8358Z" fill="url(#paint2_linear_346_2656)"/>
<path d="M18.0218 22.5667L52.4351 8.0768L48.0637 6.23633L13.6504 20.7261L18.0218 22.5667Z" fill="url(#paint3_linear_346_2656)"/>
<path d="M61.6667 46.9907L74.9469 70.7807H74.9436L75.3587 71.5243C75.6884 72.1152 75.8626 72.7867 75.8626 73.4712C75.8626 74.1556 75.6884 74.8271 75.3587 75.418C75.029 76.0088 74.556 76.4972 73.9889 76.836C73.4219 77.1746 72.7802 77.3522 72.1279 77.3522H44.744H44.7435C44.0911 77.3527 43.4489 77.1756 42.8815 76.8371C42.314 76.4986 41.8406 76.0102 41.5106 75.4193C41.1805 74.8284 41.006 74.1567 41.0059 73.4719C41.0057 72.7872 41.1799 72.1154 41.5098 71.5243L55.2052 46.9907L55.2052 46.9906C55.5349 46.3999 56.0079 45.9115 56.575 45.5728C57.142 45.2342 57.7837 45.0566 58.4359 45.0566C59.0882 45.0566 59.7299 45.2342 60.2969 45.5728C60.864 45.9115 61.337 46.3999 61.6667 46.9906L61.6667 46.9907Z" fill="url(#paint4_linear_346_2656)" stroke="#2E3240"/>
<path d="M58.4313 67.6071C58.8389 67.6091 59.2325 67.4486 59.5347 67.1573C59.837 66.866 60.0261 66.4649 60.0649 66.0327L60.9828 56.255C61.0154 55.9089 60.9795 55.5595 60.8775 55.2291C60.7754 54.8988 60.6094 54.595 60.3902 54.3373C60.171 54.0795 59.9035 53.8737 59.6049 53.733C59.3063 53.5923 58.9834 53.5199 58.6569 53.5205H58.2057C57.8796 53.5205 57.5571 53.5933 57.259 53.7343C56.9609 53.8752 56.6938 54.0811 56.475 54.3388C56.2563 54.5964 56.0906 54.9001 55.9888 55.2301C55.8869 55.5602 55.8512 55.9093 55.8838 56.255L56.8017 66.0327C56.8404 66.4642 57.029 66.8647 57.3304 67.1559C57.6318 67.4471 58.0244 67.608 58.4313 67.6071Z" fill="url(#paint5_linear_346_2656)"/>
<path d="M58.4333 75.2907C59.8478 75.2907 60.9945 73.8573 60.9945 72.0892C60.9945 70.3211 59.8478 68.8877 58.4333 68.8877C57.0188 68.8877 55.8721 70.3211 55.8721 72.0892C55.8721 73.8573 57.0188 75.2907 58.4333 75.2907Z" fill="url(#paint6_linear_346_2656)"/>
</g>
<defs>
<linearGradient id="paint0_linear_346_2656" x1="76.1267" y1="50.1302" x2="4.17305" y2="23.1475" gradientUnits="userSpaceOnUse">
<stop offset="0.091" stop-color="#FD9B02"/>
<stop offset="1" stop-color="#FF7302"/>
</linearGradient>
<linearGradient id="paint1_linear_346_2656" x1="28.3289" y1="36.8935" x2="96.6157" y2="4.99905" gradientUnits="userSpaceOnUse">
<stop stop-color="#FD9B02"/>
<stop offset="1" stop-color="#FF7302"/>
</linearGradient>
<linearGradient id="paint2_linear_346_2656" x1="32.9113" y1="-0.310046" x2="32.9113" y2="55.5063" gradientUnits="userSpaceOnUse">
<stop stop-color="#FED200"/>
<stop offset="1" stop-color="#F59815"/>
</linearGradient>
<linearGradient id="paint3_linear_346_2656" x1="33.0428" y1="-0.923145" x2="33.0428" y2="57.6531" gradientUnits="userSpaceOnUse">
<stop stop-color="#FD9B02"/>
<stop offset="1" stop-color="#FF7302"/>
</linearGradient>
<linearGradient id="paint4_linear_346_2656" x1="48.3859" y1="58.8701" x2="74.2673" y2="76.4895" gradientUnits="userSpaceOnUse">
<stop stop-color="#FED200"/>
<stop offset="1" stop-color="#F59815"/>
</linearGradient>
<linearGradient id="paint5_linear_346_2656" x1="55.5672" y1="55.665" x2="61.6863" y2="64.0267" gradientUnits="userSpaceOnUse">
<stop stop-color="#3E4154"/>
<stop offset="1" stop-color="#1B2129"/>
</linearGradient>
<linearGradient id="paint6_linear_346_2656" x1="56.808" y1="70.0576" x2="60.6427" y2="73.1253" gradientUnits="userSpaceOnUse">
<stop stop-color="#3E4154"/>
<stop offset="1" stop-color="#1B2129"/>
</linearGradient>
<clipPath id="clip0_346_2656">
<rect width="80" height="80" fill="white"/>
</clipPath>
</defs>
</svg>
