<svg id="Layer_1" enable-background="new 0 0 512 512" height="512" viewBox="0 0 512 512" width="512" xmlns="http://www.w3.org/2000/svg"><g><g><path d="m140.362 507.017c-8.628.001-17.362-2.191-25.356-6.807-24.298-14.028-32.654-45.211-18.625-69.51l231.104-400.285c6.776-11.736 17.752-20.142 30.908-23.667 13.156-3.524 26.864-1.733 38.601 5.042s20.142 17.753 23.667 30.908 1.735 26.864-5.042 38.602l-231.104 400.285c-9.414 16.305-26.555 25.431-44.153 25.432z" fill="#ff4a4a"/></g><g><path d="m132.5 211c-34.857 0-63.215-28.357-63.215-63.214v-84.572c.001-34.857 28.359-63.214 63.215-63.214 34.857 0 63.215 28.357 63.215 63.214v84.572c-.001 34.857-28.359 63.214-63.215 63.214zm0-181c-18.314 0-33.214 14.899-33.214 33.214v84.572c0 18.314 14.9 33.214 33.214 33.214 18.315 0 33.215-14.899 33.215-33.214v-84.572c-.001-18.315-14.901-33.214-33.215-33.214z" fill="#ff4a4a"/></g><g><path d="m379.5 512c-34.856 0-63.214-28.357-63.214-63.214v-84.572c0-34.856 28.358-63.214 63.214-63.214 34.857 0 63.215 28.357 63.215 63.214v84.572c-.001 34.857-28.359 63.214-63.215 63.214zm0-181c-18.314 0-33.214 14.899-33.214 33.214v84.572c0 18.314 14.9 33.214 33.214 33.214 18.315 0 33.215-14.899 33.215-33.214v-84.572c-.001-18.315-14.901-33.214-33.215-33.214z" fill="#d01273"/></g><path d="m420.661 42.698c-3.525-13.155-11.931-24.133-23.667-30.908s-25.444-8.566-38.601-5.042c-13.156 3.525-24.132 11.931-30.908 23.667l-71.485 123.816v203.538l159.62-276.469c6.776-11.737 8.566-25.446 5.041-38.602z" fill="#d01273"/></g></svg>