<?xml version="1.0" encoding="utf-8"?>
<!-- Generator: Adobe Illustrator 26.3.1, SVG Export Plug-In . SVG Version: 6.00 Build 0)  -->
<svg version="1.1" id="Layer_1" xmlns="http://www.w3.org/2000/svg" xmlns:xlink="http://www.w3.org/1999/xlink" x="0px" y="0px"
	 viewBox="0 0 24 24" style="enable-background:new 0 0 24 24;" xml:space="preserve">
<style type="text/css">
	.st0{fill:#F89FB5;}
	.st1{fill:#F1416C;}
</style>
<path class="st0" d="M10,2h8c1.7,0,3,1.3,3,3v10c0,1.7-1.3,3-3,3h-8c-1.7,0-3-1.3-3-3V5C7,3.3,8.3,2,10,2z"/>
<path class="st1" d="M6,6h8c1.7,0,3,1.3,3,3v10c0,1.7-1.3,3-3,3H6c-1.7,0-3-1.3-3-3V9C3,7.3,4.3,6,6,6z"/>
</svg>
