<?xml version="1.0"?>
<svg xmlns="http://www.w3.org/2000/svg" xmlns:xlink="http://www.w3.org/1999/xlink" xmlns:svgjs="http://svgjs.com/svgjs" version="1.1" width="512" height="512" x="0" y="0" viewBox="0 0 64 64" style="enable-background:new 0 0 512 512" xml:space="preserve" class=""><g><path xmlns="http://www.w3.org/2000/svg" d="M48,32.5A15.5,15.5,0,1,0,63.5,48,15.51737,15.51737,0,0,0,48,32.5ZM47,49.45215H44.54785V52a1.5,1.5,0,0,1-3,0V49.45215H39a1.5,1.5,0,0,1,0-3h2.54785V44a1.5,1.5,0,0,1,3,0v2.45215H47a1.5,1.5,0,0,1,0,3Zm8.5,5.49512a1.5,1.5,0,0,1-3,0V42.41113H51a1.5,1.5,0,0,1,0-3h3a1.50039,1.50039,0,0,1,1.5,1.5Z" style="fill:#3e3ef4" fill="#3e3ef4" data-original="#3e3ef4" class=""/><path xmlns="http://www.w3.org/2000/svg" d="M4.5,25.44946V59A4.50491,4.50491,0,0,0,9,63.5H34a1.5,1.5,0,0,0,0-3H23.5v-35h9V36a1.5,1.5,0,0,0,3,0V25.5h13V30a1.5,1.5,0,0,0,3,0V25.44946A4.49028,4.49028,0,0,0,55.5,21V15A4.50491,4.50491,0,0,0,51,10.5H48.46844A6.4894,6.4894,0,0,0,43,.5h-.22949A17.30481,17.30481,0,0,0,28,8.7063,17.30481,17.30481,0,0,0,13.22949.5H13a6.4894,6.4894,0,0,0-5.46844,10H5A4.50491,4.50491,0,0,0,.5,15v6A4.49028,4.49028,0,0,0,4.5,25.44946ZM20.5,60.5H9A1.50164,1.50164,0,0,1,7.5,59V25.5h13Zm3-38v-9h9v9Zm29-7.5v6A1.50164,1.50164,0,0,1,51,22.5H35.5v-9H51A1.50164,1.50164,0,0,1,52.5,15ZM42.77051,3.5H43a3.5,3.5,0,0,1,0,7H30.41266A14.32685,14.32685,0,0,1,42.77051,3.5ZM9.5,7A3.50424,3.50424,0,0,1,13,3.5h.22949a14.32685,14.32685,0,0,1,12.35785,7H13A3.50424,3.50424,0,0,1,9.5,7Zm-6,8A1.50164,1.50164,0,0,1,5,13.5H20.5v9H5A1.50164,1.50164,0,0,1,3.5,21Z" fill="#ac0000" data-original="#000000" class=""/></g></svg>
