<svg version="1.1" id="Layer_1" width="64" height="64" x="0px" y="0px"
                                                viewBox="0 0 200 200" style="enable-background:new 0 0 200 200;"
                                                xml:space="preserve">
                                                <style type="text/css">
                                                    .st0 {
                                                        fill: #4BC0FF;
                                                    }

                                                    .st1 {
                                                        fill: #0592FD;
                                                    }

                                                    .st2 {
                                                        fill: #A5D02A;
                                                    }

                                                    .st3 {
                                                        fill: #90BC02;
                                                    }

                                                    .st4 {
                                                        fill: #466288;
                                                    }

                                                    .st5 {
                                                        fill: #354A67;
                                                    }

                                                    .st6 {
                                                        fill: #FCC400;
                                                    }

                                                    .st7 {
                                                        fill: #E30E08;
                                                    }

                                                    .st8 {
                                                        fill: #C40606;
                                                    }

                                                    .st9 {
                                                        fill: #E3E8EC;
                                                    }

                                                    .st10 {
                                                        fill: #D5D8DB;
                                                    }

                                                    .st11 {
                                                        fill: #A0D9F2;
                                                    }
                                                </style>
                                                <path class="st0" d="M41.2,141.5H17.8c-3.2,0-5.9,2.6-5.9,5.9v42.9c0,3.2,2.6,5.9,5.9,5.9h23.4c3.2,0,5.9-2.6,5.9-5.9v-42.9
	C47.1,144.1,44.5,141.5,41.2,141.5z" />
                                                <path class="st0" d="M88.1,127.4H64.6c-3.2,0-5.9,2.6-5.9,5.9v57c0,3.2,2.6,5.9,5.9,5.9h23.4c3.2,0,5.9-2.6,5.9-5.9v-57
	C93.9,130,91.3,127.4,88.1,127.4z" />
                                                <path class="st1" d="M134.9,105.9h-23.4c-3.2,0-5.9,2.6-5.9,5.9v78.4c0,3.2,2.6,5.9,5.9,5.9h23.4c3.2,0,5.9-2.6,5.9-5.9v-78.4
	C140.7,108.6,138.1,105.9,134.9,105.9z" />
                                                <path class="st1" d="M181.7,66.9h-23.4c-3.2,0-5.9,2.6-5.9,5.9v117.5c0,3.2,2.6,5.9,5.9,5.9h23.4c3.2,0,5.9-2.6,5.9-5.9V72.8
	C187.6,69.5,185,66.9,181.7,66.9L181.7,66.9z" />
                                                <path class="st2" d="M199.5,40.3l-9.6-35.8c-0.4-1.5-1.4-2.8-2.7-3.6c-1.3-0.8-2.9-1-4.4-0.6L146.9,10c-3.1,0.8-5,4-4.1,7.2
	c0.8,3.1,4,5,7.2,4.1l23-6.2c-13.4,23.3-35.5,46.2-62.3,64.2c-33.5,22.5-70.8,35-105,35c-3.2,0-5.9,2.6-5.9,5.9s2.6,5.9,5.9,5.9
	c36.5,0,76.2-13.1,111.6-36.9c27.7-18.7,50.8-42.5,65.2-66.9l5.7,21.2c0.7,2.6,3.1,4.3,5.7,4.3c0.5,0,1-0.1,1.5-0.2
	C198.5,46.6,200.3,43.4,199.5,40.3z" />
                                                <path class="st3"
                                                    d="M199.5,40.3l-9.6-35.8c-0.4-1.5-1.4-2.8-2.7-3.6c-1.3-0.8-2.9-1-4.4-0.6L146.9,10c-3.1,0.8-5,4-4.1,7.2
	c0.8,3.1,4,5,7.2,4.1l23-6.2c-13.4,23.3-35.5,46.2-62.3,64.2c-3.6,2.4-7.3,4.7-11,6.9v13.5c5.9-3.3,11.8-6.9,17.5-10.7
	c27.7-18.7,50.8-42.5,65.2-66.9l5.7,21.2c0.7,2.6,3.1,4.3,5.7,4.3c0.5,0,1-0.1,1.5-0.2C198.5,46.6,200.3,43.4,199.5,40.3z" />
                                                <path class="st4"
                                                    d="M193.8,200H5.7c-3.2,0-5.9-2.6-5.9-5.9s2.6-5.9,5.9-5.9h188.1c3.2,0,5.9,2.6,5.9,5.9S197,200,193.8,200z" />
                                                <path class="st5"
                                                    d="M193.8,188.3H99.8V200h94.1c3.2,0,5.9-2.6,5.9-5.9S197,188.3,193.8,188.3z" />
                                                <path class="st6" d="M43.6,77.7c-2.9,3-8.3,7.4-15.7,7.5l2.8-5c0,0-7.2,2.9-13.5,2.7c2.5-5.8,8-11.2,8-11.2l-5.7,0.5
	c3.2-6.7,9.3-9.9,13.3-11.3l15.5,0L43.6,77.7z" />
                                                <path class="st7" d="M64,97c-9.4,6.1-21.9,3.7-28.4-5.3c3.2,0.3,7.2-1.5,8.6-5.8c0.6-1.8,0.7-4.1,0.2-6.8L31.8,59.6
	c-2.3-1.6-4.4-2.4-6.3-2.5c-4.6-0.5-7.8,2.4-8.8,5.5c-5.5-9.6-2.7-22,6.7-28.1c5.6-3.6,12.2-4.2,18-2.3c2.7,0.9,5.2,2.3,7.3,4.3
	L72.6,73c0.9,2.8,1.2,5.6,0.9,8.4C72.9,87.6,69.6,93.4,64,97z" />
                                                <path class="st8" d="M73.5,81.5c-9.2,3.7-19.1,5.1-29.2,4.5c0.6-1.8,0.7-4.1,0.2-6.8L31.8,59.6c-2.3-1.6-4.4-2.4-6.3-2.5
	c3.6-9.5,8.9-18,16-24.8c2.7,0.9,5.2,2.3,7.3,4.3L72.6,73C73.5,75.8,73.8,78.7,73.5,81.5z" />
                                                <path class="st9" d="M44.5,79.2c13.2-0.2,26.5-4,38.4-11.7c17.5-11.3,28.5-28.9,32-47.9c-18.8-4.5-39.3-1.6-56.8,9.7
	C46.2,37,37.3,47.6,31.8,59.6L44.5,79.2z" />
                                                <path class="st10" d="M64.6,39.2c-11.9,7.7-21.9,16.6-29.5,25.5l-3.3-5.1c5.6-12,14.5-22.6,26.4-30.3c17.5-11.3,38-14.2,56.8-9.7
	C100.1,21.1,82,27.8,64.6,39.2z" />
                                                <g>
                                                    <path class="st7" d="M105.1,44.8c-3.7-3.4-7.2-7.6-10.2-12.3c-1.5-2.3-2.8-4.6-3.9-6.9c-1.2-2.5-2.3-5-3.1-7.4
		c9-1.2,18.2-0.8,27,1.3c0,0,0.1,0,0.1,0l0,0C113.2,28.5,110,37.1,105.1,44.8z" />
                                                    <path class="st7" d="M99.2,79.7C99.2,79.7,99.2,79.7,99.2,79.7" />
                                                </g>
                                                <path class="st8" d="M114.9,19.5L114.9,19.5c-7.3,0.8-15.5,2.8-24,6.1c-1.2-2.5-2.3-5-3.1-7.4c9-1.2,18.2-0.8,27,1.3
	C114.8,19.5,114.9,19.5,114.9,19.5z" />
                                                <circle class="st7" cx="79.1" cy="41.9" r="10.1" />
                                                <circle class="st11" cx="79.1" cy="41.9" r="6.8" />
                                                <g>
                                                    <path class="st7" d="M58.5,48.9v1.8h10.2v2.5H58.5v9.7c1.2-0.3,2.2-0.7,2.9-1c0.8-0.4,1.1-0.7,1.1-1.1v-0.3c0-0.2-0.1-0.3-0.2-0.5
		c-0.1-0.1-0.6-0.2-1.4-0.2v-5.9c1.7,0,3.1,0.3,4.1,0.8c1,0.6,1.8,1.2,2.3,1.9c0.5,0.7,0.8,1.5,1,2.2c0.1,0.7,0.2,1.3,0.2,1.6
		c0,1.3-0.3,2.4-0.8,3.3c-0.6,0.9-1.3,1.7-2.1,2.4c-0.9,0.6-1.8,1.2-2.8,1.6c-1,0.4-2,0.7-3,0.9c-0.9,0.2-1.8,0.4-2.5,0.5
		c-0.7,0.1-1.2,0.1-1.5,0.1l-3.2,0.2V53.1h-9.7v-2.5h9.7v-1.8c0-0.5-0.2-1-0.6-1.3c-0.4-0.4-0.8-0.6-1.3-0.6c-0.5,0-1,0.2-1.4,0.6
		c-0.4,0.4-0.6,0.8-0.6,1.4v1.3h-5.9v-1.3c0-1.1,0.2-2.1,0.6-3c0.4-1,1-1.8,1.7-2.5c0.7-0.7,1.5-1.3,2.5-1.7c1-0.4,2-0.6,3-0.6
		s2.1,0.2,3,0.6c0.9,0.4,1.8,1,2.5,1.7c0.7,0.7,1.3,1.5,1.7,2.5C58.3,46.8,58.5,47.8,58.5,48.9z" />
                                                </g>
                                            </svg>