<svg id="Capa_1" enable-background="new 0 0 512 512" height="64"
                                                viewBox="0 0 512 512" width="64" xmlns="http://www.w3.org/2000/svg">
                                                <g>
                                                    <g>
                                                        <path
                                                            d="m362 189.272v-39.272h-45c-41.367 0-75-33.647-75-75s33.633-75 75-75h120c41.367 0 75 33.647 75 75 0 40.107-31.641 72.964-71.279 74.912z"
                                                            fill="#6cf" />
                                                    </g>
                                                    <path
                                                        d="m437 0h-60v181.772l63.721-31.86c39.638-1.948 71.279-34.805 71.279-74.912 0-41.353-33.633-75-75-75z"
                                                        fill="#59abff" />
                                                    <path
                                                        d="m270 182h-30l-90 60v90l120-30c33.076 0 60-26.909 60-60s-26.924-60-60-60z"
                                                        fill="#293d66" />
                                                    <g>
                                                        <path
                                                            d="m90 302h-30c-33.076 0-60-26.909-60-60s26.924-60 60-60h30z"
                                                            fill="#406080" />
                                                    </g>
                                                    <g>
                                                        <path d="m150 62h30v105h-30z" fill="#406080" />
                                                    </g>
                                                    <path d="m165 62h15v105h-15z" fill="#293d66" />
                                                    <g>
                                                        <path
                                                            d="m270 272v-120h-210v180c0 16.569 13.431 30 30 30h150c16.569 0 30-13.431 30-30v-30h-90v-30z"
                                                            fill="#ffdf40" />
                                                    </g>
                                                    <path
                                                        d="m165 362h75c16.569 0 30-13.433 30-30v-30h-90v-30h90v-120h-105z"
                                                        fill="#ffbe40" />
                                                    <g>
                                                        <path
                                                            d="m90 482c0 16.569-13.431 30-30 30h-60v-180h60c16.569 0 30 13.431 30 30z"
                                                            fill="#ffdf40" />
                                                    </g>
                                                    <g>
                                                        <path
                                                            d="m330 512h-60c-16.569 0-30-13.431-30-30v-120c0-16.569 13.431-30 30-30h60z"
                                                            fill="#ffbe40" />
                                                    </g>
                                                    <g id="Robot_2_">
                                                        <g>
                                                            <path d="m422 60h30v30h-30z" fill="#e1e6f0" />
                                                        </g>
                                                        <g>
                                                            <path d="m362 60h30v30h-30z" fill="#f3f5f9" />
                                                        </g>
                                                        <g>
                                                            <path d="m302 60h30v30h-30z" fill="#f3f5f9" />
                                                        </g>
                                                        <g id="Auto_Call_2_">
                                                            <g>
                                                                <path d="m270 512h-210v-180h210z" fill="#406080" />
                                                            </g>
                                                            <g>
                                                                <path d="m120 212h30v30h-30z" fill="#406080" />
                                                            </g>
                                                            <g>
                                                                <path d="m180 212h30v30h-30z" fill="#293d66" />
                                                            </g>
                                                        </g>
                                                    </g>
                                                    <path d="m165 332h105v180h-105z" fill="#293d66" />
                                                    <path d="m377 60h15v30h-15z" fill="#e1e6f0" />
                                                </g>
                                            </svg>