<svg width="29" height="29" viewBox="0 0 29 29" fill="none" xmlns="http://www.w3.org/2000/svg">
<g clip-path="url(#clip0_2_898)">
<path d="M21.915 11H28C28.5516 11.0016 28.9984 11.4484 29 12V14C28.9984 14.5516 28.5516 14.9984 28 15H1C0.448399 14.9984 0.0016474 14.5516 0 14V12C0.0016474 11.4484 0.448399 11.0016 1 11H21.915Z" fill="#F0C419"/>
<path d="M18.375 15H27.5L25.37 26.94C25.1549 28.1326 24.1168 29.0001 22.905 29H6.095C4.88316 29.0001 3.84508 28.1326 3.63 26.94L1.5 15H18.375Z" fill="#F29C1F"/>
<path d="M3 13.5C3.27614 13.5 3.5 13.2761 3.5 13C3.5 12.7239 3.27614 12.5 3 12.5C2.72386 12.5 2.5 12.7239 2.5 13C2.5 13.2761 2.72386 13.5 3 13.5Z" fill="#F29C1F"/>
<path d="M6 13.5C6.27614 13.5 6.5 13.2761 6.5 13C6.5 12.7239 6.27614 12.5 6 12.5C5.72386 12.5 5.5 12.7239 5.5 13C5.5 13.2761 5.72386 13.5 6 13.5Z" fill="#F29C1F"/>
<path d="M23 13.5C23.2761 13.5 23.5 13.2761 23.5 13C23.5 12.7239 23.2761 12.5 23 12.5C22.7239 12.5 22.5 12.7239 22.5 13C22.5 13.2761 22.7239 13.5 23 13.5Z" fill="#F29C1F"/>
<path d="M26 13.5C26.2761 13.5 26.5 13.2761 26.5 13C26.5 12.7239 26.2761 12.5 26 12.5C25.7239 12.5 25.5 12.7239 25.5 13C25.5 13.2761 25.7239 13.5 26 13.5Z" fill="#F29C1F"/>
<path d="M15.5 18.5C15.5 17.9477 15.0523 17.5 14.5 17.5C13.9477 17.5 13.5 17.9477 13.5 18.5V25.5C13.5 26.0523 13.9477 26.5 14.5 26.5C15.0523 26.5 15.5 26.0523 15.5 25.5V18.5Z" fill="#D25627"/>
<path d="M21.5 18.5C21.5 17.9477 21.0523 17.5 20.5 17.5C19.9477 17.5 19.5 17.9477 19.5 18.5V25.5C19.5 26.0523 19.9477 26.5 20.5 26.5C21.0523 26.5 21.5 26.0523 21.5 25.5V18.5Z" fill="#D25627"/>
<path d="M9.5 18.5C9.5 17.9477 9.05228 17.5 8.5 17.5C7.94772 17.5 7.5 17.9477 7.5 18.5V25.5C7.5 26.0523 7.94772 26.5 8.5 26.5C9.05228 26.5 9.5 26.0523 9.5 25.5V18.5Z" fill="#D25627"/>
<path d="M14.5 16C18.9183 16 22.5 12.4183 22.5 8C22.5 3.58172 18.9183 0 14.5 0C10.0817 0 6.5 3.58172 6.5 8C6.5 12.4183 10.0817 16 14.5 16Z" fill="#4FBA6F"/>
<path d="M18.5 7H15.5V4C15.5 3.44772 15.0523 3 14.5 3C13.9477 3 13.5 3.44772 13.5 4V7H10.5C9.94772 7 9.5 7.44772 9.5 8C9.5 8.55228 9.94772 9 10.5 9H13.5V12C13.5 12.5523 13.9477 13 14.5 13C15.0523 13 15.5 12.5523 15.5 12V9H18.5C19.0523 9 19.5 8.55228 19.5 8C19.5 7.44772 19.0523 7 18.5 7Z" fill="#ECF0F1"/>
</g>
<defs>
<clipPath id="clip0_2_898">
<rect width="29" height="29" fill="white"/>
</clipPath>
</defs>
</svg>
