<svg width="20" height="20" viewBox="0 0 20 20" fill="none" xmlns="http://www.w3.org/2000/svg">
<g clip-path="url(#clip0_503_2)">
<path d="M18.2422 0H1.75781C0.788555 0 0 0.788555 0 1.75781V4.6875H20V1.75781C20 0.788555 19.2114 0 18.2422 0ZM3.75 2.92969H2.96875C2.64516 2.92969 2.38281 2.66734 2.38281 2.34375C2.38281 2.02016 2.64516 1.75781 2.96875 1.75781H3.75C4.07359 1.75781 4.33594 2.02016 4.33594 2.34375C4.33594 2.66734 4.07359 2.92969 3.75 2.92969ZM6.875 2.92969H6.09375C5.77016 2.92969 5.50781 2.66734 5.50781 2.34375C5.50781 2.02016 5.77016 1.75781 6.09375 1.75781H6.875C7.19859 1.75781 7.46094 2.02016 7.46094 2.34375C7.46094 2.66734 7.19859 2.92969 6.875 2.92969ZM10 2.92969H9.21875C8.89516 2.92969 8.63281 2.66734 8.63281 2.34375C8.63281 2.02016 8.89516 1.75781 9.21875 1.75781H10C10.3236 1.75781 10.5859 2.02016 10.5859 2.34375C10.5859 2.66734 10.3236 2.92969 10 2.92969Z" fill="#FA6F2C"/>
<path d="M4.3917 13.8268C4.3917 13.4625 4.09526 13.166 3.73088 13.166C3.73088 13.166 2.89448 13.1668 2.7887 13.1673V14.4906C3.11745 14.4893 3.55959 14.4877 3.73088 14.4877C4.09526 14.4877 4.3917 14.1912 4.3917 13.8268Z" fill="#F29C1F"/>
<path d="M4.04092 11.8754C4.04092 11.5952 3.81295 11.3672 3.53272 11.3672H2.7887V12.3846C2.7887 12.3846 3.4492 12.3836 3.53276 12.3836C3.81295 12.3836 4.04092 12.1556 4.04092 11.8754Z" fill="#F29C1F"/>
<path d="M10.4471 14.4922C11.3101 14.4922 12.0096 13.7926 12.0096 12.9297C12.0096 12.0667 11.3101 11.3672 10.4471 11.3672C9.5842 11.3672 8.88464 12.0667 8.88464 12.9297C8.88464 13.7926 9.5842 14.4922 10.4471 14.4922Z" fill="#F29C1F"/>
<path d="M0 18.2422C0 19.2114 0.788555 20 1.75781 20H18.2422C19.2114 20 20 19.2114 20 18.2422V5.85938H0V18.2422ZM15.9159 10.5858C16.3854 10.5858 16.8387 10.7243 17.2265 10.9863C17.4053 11.1071 17.4523 11.3499 17.3315 11.5286C17.2108 11.7074 16.9679 11.7544 16.7892 11.6337C16.531 11.4593 16.229 11.367 15.9159 11.367C15.0543 11.367 14.3534 12.068 14.3534 12.9295C14.3534 13.7911 15.0543 14.492 15.9159 14.492C16.702 14.492 17.0711 13.9231 17.1775 13.3202H16.4333C16.2176 13.3202 16.0427 13.1453 16.0427 12.9295C16.0427 12.7138 16.2176 12.5389 16.4333 12.5389H17.6019C17.8176 12.5389 17.9925 12.7138 17.9925 12.9295C17.9925 14.3095 17.1386 15.2733 15.9159 15.2733C14.6235 15.2733 13.5721 14.2219 13.5721 12.9295C13.5721 11.6372 14.6235 10.5858 15.9159 10.5858ZM10.4471 10.5858C11.7395 10.5858 12.7909 11.6372 12.7909 12.9296C12.7909 14.2219 11.7395 15.2733 10.4471 15.2733C9.15477 15.2733 8.10336 14.2219 8.10336 12.9296C8.10336 11.6372 9.15477 10.5858 10.4471 10.5858ZM5.95426 10.9764C5.95426 10.7607 6.12918 10.5858 6.34488 10.5858C6.56059 10.5858 6.73551 10.7607 6.73551 10.9764V14.4921C7.00012 14.492 7.36856 14.4907 7.71059 14.4888H7.71281C7.92754 14.4888 8.10219 14.6622 8.1034 14.8772C8.10457 15.0929 7.9307 15.2688 7.71496 15.27C7.27137 15.2725 6.96871 15.2735 6.7609 15.2735C6.33203 15.2735 6.30676 15.2692 6.27891 15.2644C6.09137 15.2323 5.95426 15.0697 5.95426 14.8794V10.9764ZM2.0075 10.9764C2.0075 10.7607 2.18242 10.5858 2.39812 10.5858H3.53281C4.24379 10.5858 4.82227 11.1643 4.82227 11.8753C4.82227 12.1657 4.72563 12.434 4.56297 12.6498C4.93172 12.9113 5.17305 13.3412 5.17305 13.8266C5.17305 14.6218 4.52613 15.2687 3.73098 15.2687C3.44715 15.2687 2.41031 15.2732 2.39988 15.2733C2.3993 15.2733 2.39875 15.2733 2.39816 15.2733C2.29488 15.2733 2.19578 15.2324 2.12254 15.1595C2.04891 15.0862 2.00754 14.9866 2.00754 14.8827V10.9764H2.0075Z" fill="#F2C419"/>
</g>
<defs>
<clipPath id="clip0_503_2">
<rect width="20" height="20" fill="white"/>
</clipPath>
</defs>
</svg>
