<svg width="22" height="19" viewBox="0 0 22 19" fill="none" xmlns="http://www.w3.org/2000/svg">
<path d="M2.2 0C0.984964 0 0 1.11928 0 2.5C0 3.88072 0.984964 5 2.2 5H19.8C21.015 5 22 3.88072 22 2.5C22 1.11928 21.015 0 19.8 0H2.2Z" fill="#009EF7"/>
<path d="M5.18182 7C3.97682 7 3 8.11928 3 9.5C3 10.8807 3.97682 12 5.18182 12H16.8182C18.0232 12 19 10.8807 19 9.5C19 8.11928 18.0232 7 16.8182 7H5.18182Z" fill="#056296"/>
<path d="M0 16.5C0 15.1193 0.984964 14 2.2 14H19.8C21.015 14 22 15.1193 22 16.5C22 17.8807 21.015 19 19.8 19H2.2C0.984964 19 0 17.8807 0 16.5Z" fill="#009EF7"/>
</svg>
