<svg width="29" height="29" viewBox="0 0 29 29" fill="none" xmlns="http://www.w3.org/2000/svg">
<g clip-path="url(#clip0_2_1048)">
<path d="M6.14551 23.8457C4.50321 23.8457 3.17188 22.5144 3.17188 20.8721V18.8896C3.17188 17.2474 4.50321 15.916 6.14551 15.916C7.7878 15.916 9.11914 17.2474 9.11914 18.8896V20.8721C9.11914 22.5144 7.7878 23.8457 6.14551 23.8457ZM6.14551 7.92969C4.50321 7.92969 3.17188 6.59835 3.17188 4.95605V2.97363C3.17188 1.33134 4.50321 0 6.14551 0C7.7878 0 9.11914 1.33134 9.11914 2.97363V4.95605C9.11914 6.59835 7.7878 7.92969 6.14551 7.92969Z" fill="url(#paint0_linear_2_1048)"/>
<path d="M11.668 26.3246V28.1504C11.668 28.6196 11.2876 29 10.8184 29H1.47266C1.00345 29 0.623047 28.6196 0.623047 28.1504V26.3246C0.623047 25.0788 1.40967 23.9558 2.58049 23.53L4.06074 22.9918C4.59741 23.5197 5.33322 23.8457 6.14551 23.8457C6.95779 23.8457 7.69361 23.5197 8.23028 22.9918L9.71053 23.53C10.8813 23.9557 11.668 25.0788 11.668 26.3246ZM9.71053 7.61403L8.23028 7.07577C7.69361 7.60366 6.95779 7.92969 6.14551 7.92969C5.33322 7.92969 4.59741 7.60366 4.06074 7.07577L2.58049 7.61403C1.40967 8.03968 0.623047 9.16281 0.623047 10.4086V12.2344C0.623047 12.7036 1.00345 13.084 1.47266 13.084H10.8184C11.2876 13.084 11.668 12.7036 11.668 12.2344V10.4086C11.668 9.16281 10.8813 8.03968 9.71053 7.61403ZM28.377 3.9082C28.377 3.43899 27.9966 3.05859 27.5273 3.05859H15.0664C14.5972 3.05859 14.2168 3.43899 14.2168 3.9082C14.2168 4.37741 14.5972 4.75781 15.0664 4.75781H27.5273C27.9966 4.75781 28.377 4.37741 28.377 3.9082ZM28.377 7.30664C28.377 6.83743 27.9966 6.45703 27.5273 6.45703H15.0664C14.5972 6.45703 14.2168 6.83743 14.2168 7.30664C14.2168 7.77585 14.5972 8.15625 15.0664 8.15625H27.5273C27.9966 8.15625 28.377 7.77585 28.377 7.30664ZM28.377 19.8242C28.377 19.355 27.9966 18.9746 27.5273 18.9746H15.0664C14.5972 18.9746 14.2168 19.355 14.2168 19.8242C14.2168 20.2934 14.5972 20.6738 15.0664 20.6738H27.5273C27.9966 20.6738 28.377 20.2934 28.377 19.8242ZM28.377 23.2227C28.377 22.7534 27.9966 22.373 27.5273 22.373H15.0664C14.5972 22.373 14.2168 22.7534 14.2168 23.2227C14.2168 23.6919 14.5972 24.0723 15.0664 24.0723H27.5273C27.9966 24.0723 28.377 23.6919 28.377 23.2227ZM28.377 10.7051C28.377 10.2359 27.9966 9.85547 27.5273 9.85547H15.0664C14.5972 9.85547 14.2168 10.2359 14.2168 10.7051C14.2168 11.1743 14.5972 11.5547 15.0664 11.5547H27.5273C27.9966 11.5547 28.377 11.1743 28.377 10.7051ZM28.377 26.6211C28.377 26.1519 27.9966 25.7715 27.5273 25.7715H15.0664C14.5972 25.7715 14.2168 26.1519 14.2168 26.6211C14.2168 27.0903 14.5972 27.4707 15.0664 27.4707H27.5273C27.9966 27.4707 28.377 27.0903 28.377 26.6211Z" fill="#FFC45C"/>
</g>
<defs>
<linearGradient id="paint0_linear_2_1048" x1="6.14551" y1="23.8457" x2="6.14551" y2="0" gradientUnits="userSpaceOnUse">
<stop stop-color="#FFC8D1"/>
<stop offset="1" stop-color="#FFF6F7"/>
</linearGradient>
<clipPath id="clip0_2_1048">
<rect width="29" height="29" fill="white"/>
</clipPath>
</defs>
</svg>
