<svg width="50" height="50" viewBox="0 0 50 50" fill="none" xmlns="http://www.w3.org/2000/svg">
<g clip-path="url(#clip0_2_847)">
<path d="M48.2186 28.5977C46.8622 30.0864 45.903 29.7229 37.972 29.7229C36.281 29.7229 34.8183 28.4636 34.5698 26.7936C34.2158 24.4196 33.0321 22.3494 31.3535 20.8379C29.5303 19.1968 27.1225 18.2136 24.5585 18.2125H24.5443C21.914 18.2155 19.513 19.2196 17.7126 20.8627C17.7077 20.8675 17.7021 20.8724 17.6972 20.8773C16.0378 22.3985 14.889 24.4657 14.5416 26.7936C14.2932 28.4636 12.8304 29.7229 11.1391 29.7229H3.44149C1.42454 29.7229 -0.174627 27.9915 0.0153394 25.9727C0.574374 20.0234 3.26126 14.6979 7.3064 10.7528C7.34761 10.7124 7.38958 10.6711 7.43192 10.631C11.8664 6.36522 17.9026 3.7439 24.5443 3.74091H24.5585C31.1684 3.74203 37.1818 6.33637 41.6132 10.5685C45.7648 14.5301 48.5281 19.9274 49.0961 25.9727C49.1864 26.9289 48.8661 27.8862 48.2186 28.5977Z" fill="#F1F2F2"/>
<path d="M48.2186 28.5977C46.8622 30.0864 45.903 29.7229 37.972 29.7229C36.281 29.7229 34.8183 28.4636 34.5698 26.7936C34.2158 24.4196 33.0321 22.3494 31.3535 20.8379C29.5303 19.1968 27.1225 18.2136 24.5585 18.2125H24.5443V3.74091H24.5585C31.1684 3.74203 37.1818 6.33637 41.6132 10.5685C45.7648 14.5301 48.5281 19.9274 49.0961 25.9727C49.1864 26.9289 48.8661 27.8862 48.2186 28.5977Z" fill="#00C7CE"/>
<path d="M41.6132 10.5685L31.3535 20.8379C29.5303 19.1968 27.1225 18.2136 24.5585 18.2125H24.5555C21.9207 18.2125 19.516 19.2166 17.7126 20.8627C17.7077 20.8675 17.7021 20.8724 17.6972 20.8773L7.3064 10.7528C7.34761 10.7124 7.38958 10.6711 7.43192 10.631C11.8693 6.3626 17.9093 3.74091 24.5555 3.74091H24.5585C31.1684 3.74203 37.1818 6.33637 41.6132 10.5685Z" fill="#FFDB83"/>
<path d="M41.6133 10.5685L31.3536 20.8379C29.5303 19.1968 27.1226 18.2136 24.5586 18.2125V3.74091C31.1685 3.74203 37.1818 6.33637 41.6133 10.5685Z" fill="#FCAD2D"/>
<path d="M39.0174 14.8841C39.1815 13.6997 37.8851 12.8169 36.8375 13.4625L23.8013 21.491C23.1246 21.9076 22.9141 22.7938 23.3307 23.4704L29.5254 29.1155C30.0069 29.1155 30.4768 28.8742 30.7492 28.4354C39.1287 14.9399 39.1058 15.1093 39.0174 14.8841Z" fill="#FF6961"/>
<path d="M24.5586 34.0719H24.5443C21.0047 34.0719 18.1222 31.2243 18.1222 27.676C18.1222 23.8429 21.2744 21.307 24.5586 21.2819C26.1499 21.2684 27.7719 21.8451 29.0822 23.1494C33.0985 27.1477 30.2726 34.0606 24.5586 34.0719Z" fill="#009EF7"/>
<path d="M40.9707 38.3317C40.9707 39.1272 40.327 39.7705 39.5319 39.7705H9.57967C8.78458 39.7705 8.14087 39.1272 8.14087 38.3317C8.14087 37.5378 8.78458 36.8929 9.57967 36.8929H39.5319C40.327 36.8929 40.9707 37.5378 40.9707 38.3317Z" fill="#009EF7"/>
<path d="M33.4773 44.0277C33.4773 44.8221 32.8329 45.4665 32.0385 45.4665H17.0499C16.2559 45.4665 15.6111 44.8221 15.6111 44.0277C15.6111 43.2326 16.2559 42.5889 17.0499 42.5889H32.0385C32.8329 42.5889 33.4773 43.2326 33.4773 44.0277Z" fill="#009EF7"/>
<path d="M24.5586 34.0719V21.2819C26.1499 21.2684 27.7719 21.8451 29.0822 23.1494C33.0985 27.1477 30.2726 34.0606 24.5586 34.0719Z" fill="#056296"/>
<path d="M33.4773 44.0277C33.4773 44.8221 32.8328 45.4665 32.0385 45.4665H24.5586V42.5889H32.0385C32.8328 42.5889 33.4773 43.2326 33.4773 44.0277Z" fill="#056296"/>
<path d="M40.9707 38.3317C40.9707 39.1272 40.327 39.7705 39.5319 39.7705H24.5586V36.8929H39.5319C40.327 36.8929 40.9707 37.5378 40.9707 38.3317Z" fill="#056296"/>
</g>
<defs>
<clipPath id="clip0_2_847">
<rect width="49.1111" height="49.1111" fill="white"/>
</clipPath>
</defs>
</svg>
