<svg width="29" height="29" viewBox="0 0 29 29" fill="none" xmlns="http://www.w3.org/2000/svg">
<g clip-path="url(#clip0_2_1037)">
<path d="M0.453125 6.90564H17.3215V28.5227H0.453125V6.90564Z" fill="#FFB044"/>
<path d="M17.3215 6.90564V27.0969H5.92087C5.14522 27.0966 4.40145 26.7882 3.8531 26.2396C3.30475 25.6911 2.9967 24.9472 2.9967 24.1715V6.90564H17.3215Z" fill="#FFC261"/>
<path d="M8.40393 12.7238H28.5468V28.5227H8.40393V12.7238Z" fill="#EE6148"/>
<path d="M28.5469 12.7238V27.0969H13.8657C13.0898 27.0969 12.3457 26.7887 11.7971 26.2401C11.2485 25.6914 10.9403 24.9474 10.9403 24.1715V12.7238H28.5469Z" fill="#FF6E56"/>
<path d="M13.2916 8.65227H13.0639V4.20379C13.0639 3.65523 12.9558 3.11204 12.7459 2.60524C12.536 2.09844 12.2283 1.63795 11.8404 1.25006C11.4525 0.862167 10.992 0.554476 10.4852 0.344552C9.9784 0.134627 9.43521 0.0265808 8.88665 0.0265808C8.33809 0.0265808 7.7949 0.134627 7.2881 0.344552C6.7813 0.554476 6.32081 0.862167 5.93292 1.25006C5.54503 1.63795 5.23734 2.09844 5.02741 2.60524C4.81749 3.11204 4.70944 3.65523 4.70944 4.20379V8.65227H4.47986C4.35968 8.65227 4.24443 8.70001 4.15945 8.78499C4.07447 8.86996 4.02673 8.98522 4.02673 9.10539C4.02673 9.22557 4.07447 9.34083 4.15945 9.4258C4.24443 9.51078 4.35968 9.55852 4.47986 9.55852H5.84225C5.96243 9.55852 6.07768 9.51078 6.16266 9.4258C6.24764 9.34083 6.29538 9.22557 6.29538 9.10539C6.29538 8.98522 6.24764 8.86996 6.16266 8.78499C6.07768 8.70001 5.96243 8.65227 5.84225 8.65227H5.61871V4.20379C5.61871 3.77424 5.70332 3.3489 5.8677 2.95205C6.03208 2.5552 6.27302 2.19461 6.57675 1.89087C6.88049 1.58714 7.24108 1.3462 7.63793 1.18182C8.03478 1.01744 8.46012 0.932831 8.88967 0.932831C9.31922 0.932831 9.74456 1.01744 10.1414 1.18182C10.5383 1.3462 10.8989 1.58714 11.2026 1.89087C11.5063 2.19461 11.7473 2.5552 11.9116 2.95205C12.076 3.3489 12.1606 3.77424 12.1606 4.20379V8.65227H11.9329C11.8127 8.65227 11.6974 8.70001 11.6125 8.78499C11.5275 8.86996 11.4797 8.98522 11.4797 9.10539C11.4797 9.22557 11.5275 9.34083 11.6125 9.4258C11.6974 9.51078 11.8127 9.55852 11.9329 9.55852H13.2916C13.4118 9.55852 13.5271 9.51078 13.612 9.4258C13.697 9.34083 13.7448 9.22557 13.7448 9.10539C13.7448 8.98522 13.697 8.86996 13.612 8.78499C13.5271 8.70001 13.4118 8.65227 13.2916 8.65227Z" fill="#51454E"/>
<path d="M22.7317 14.6976H21.4152C21.295 14.6976 21.1798 14.7453 21.0948 14.8303C21.0098 14.9153 20.9621 15.0305 20.9621 15.1507C20.9621 15.2709 21.0098 15.3861 21.0948 15.4711C21.1798 15.5561 21.295 15.6038 21.4152 15.6038H21.6206V16.4364C21.6092 17.2631 21.2727 18.052 20.6841 18.6326C20.0954 19.2132 19.3018 19.5387 18.475 19.5387C17.6482 19.5387 16.8547 19.2132 16.266 18.6326C15.6774 18.052 15.3409 17.2631 15.3294 16.4364V15.6038H15.5343C15.6544 15.6038 15.7697 15.5561 15.8547 15.4711C15.9396 15.3861 15.9874 15.2709 15.9874 15.1507C15.9874 15.0305 15.9396 14.9153 15.8547 14.8303C15.7697 14.7453 15.6544 14.6976 15.5343 14.6976H14.2184C14.0982 14.6976 13.983 14.7453 13.898 14.8303C13.813 14.9153 13.7653 15.0305 13.7653 15.1507C13.7653 15.2709 13.813 15.3861 13.898 15.4711C13.983 15.5561 14.0982 15.6038 14.2184 15.6038H14.4232V16.4364C14.4362 17.5024 14.8688 18.5204 15.6273 19.2696C16.3857 20.0189 17.4089 20.439 18.475 20.439C19.5412 20.439 20.5643 20.0189 21.3228 19.2696C22.0812 18.5204 22.5139 17.5024 22.5269 16.4364V15.6038H22.7317C22.8519 15.6038 22.9671 15.5561 23.0521 15.4711C23.1371 15.3861 23.1848 15.2709 23.1848 15.1507C23.1848 15.0305 23.1371 14.9153 23.0521 14.8303C22.9671 14.7453 22.8519 14.6976 22.7317 14.6976Z" fill="#51454E"/>
</g>
<defs>
<clipPath id="clip0_2_1037">
<rect width="29" height="29" fill="white"/>
</clipPath>
</defs>
</svg>
