<svg width="35" height="28" viewBox="0 0 35 28" fill="none" xmlns="http://www.w3.org/2000/svg">
<path d="M3.87288 12.5129L8.43447 10.6031L12.3889 20.0487L7.82732 21.9585C7.10048 22.2626 6.28262 22.2655 5.5536 21.9667C4.82458 21.6679 4.24408 21.0918 3.93975 20.365L2.28017 16.4009C1.97589 15.6741 1.97274 14.8562 2.27142 14.1271C2.5701 13.398 3.14615 12.8173 3.87288 12.5129Z" fill="#E63950"/>
<path d="M8.4487 10.6071L7.83861 10.8623L11.1714 18.8237L6.60735 20.7346C6.20183 20.9047 5.76357 20.9825 5.32429 20.9624C4.88501 20.9423 4.45569 20.8248 4.06738 20.6185C4.41488 21.2732 4.99445 21.7746 5.69243 22.0241C6.39041 22.2737 7.15645 22.2536 7.84034 21.9676L12.4044 20.0567L8.4487 10.6071Z" fill="#D10028"/>
<path d="M1.09635 16.7336L2.22157 16.2625L3.99633 20.5017L2.87111 20.9728C2.58034 21.0945 2.25312 21.0958 1.96144 20.9762C1.66975 20.8567 1.4375 20.6262 1.31577 20.3355L0.459086 18.2892C0.398773 18.1452 0.367412 17.9907 0.366797 17.8346C0.366182 17.6785 0.396323 17.5238 0.4555 17.3794C0.514677 17.2349 0.60173 17.1036 0.711687 16.9928C0.821645 16.882 0.952353 16.7939 1.09635 16.7336Z" fill="#F0C419"/>
<path d="M25.0391 5.80332C25.8125 5.47276 26.6857 5.46297 27.4664 5.77609C28.2471 6.08922 28.8714 6.69961 29.2021 7.47303C29.521 8.25142 29.5175 9.12457 29.1926 9.90043C28.8677 10.6763 28.2479 11.2913 27.4695 11.6102L25.0391 5.80332Z" fill="#E63950"/>
<path d="M29.2022 7.47353C28.9305 6.82347 28.4459 6.28511 27.8279 5.94684C27.88 6.04224 27.9272 6.14027 27.9692 6.24054C28.2459 6.91223 28.2827 7.65873 28.0735 8.3544C27.8643 9.05007 27.4218 9.65243 26.8206 10.0601L27.4696 11.6107C28.248 11.2918 28.8678 10.6768 29.1927 9.90093C29.5176 9.12507 29.521 8.25191 29.2022 7.47353Z" fill="#D10028"/>
<path d="M28.8634 14.9401C29.0142 15.3144 29.0635 15.722 29.0063 16.1215C28.949 16.521 28.7872 16.8983 28.5372 17.2152C28.2873 17.5321 27.958 17.7773 27.5828 17.9261C27.2076 18.0748 26.7998 18.1218 26.4006 18.0622L24.0525 17.7271C21.0741 17.302 19.7124 16.9987 17.0197 18.1254L12.4044 20.0567L8.44873 10.6071L13.0641 8.67523C15.7564 7.54828 16.496 6.3651 18.2836 3.94523L19.6929 2.0373C19.9307 1.71124 20.2504 1.45377 20.6197 1.29095C20.9889 1.12813 21.3946 1.06574 21.7958 1.11008C22.1969 1.15443 22.5792 1.30394 22.904 1.54349C23.2288 1.78305 23.4845 2.10414 23.6453 2.47427L28.8634 14.9401Z" fill="#F0C419"/>
<path d="M12.4784 16.8954C12.3812 16.8957 12.286 16.8671 12.2052 16.813C12.1244 16.759 12.0615 16.682 12.0247 16.592L9.93105 11.591C9.90592 11.5313 9.8928 11.4672 9.89246 11.4024C9.89212 11.3375 9.90456 11.2733 9.92907 11.2133C9.95357 11.1533 9.98967 11.0987 10.0353 11.0527C10.0809 11.0066 10.1351 10.97 10.1949 10.9449L13.4451 9.58618C16.207 8.4173 17.0824 7.23363 18.6705 5.0833C18.8626 4.82388 19.0831 4.52155 19.2821 4.25473C19.3599 4.14943 19.4764 4.07936 19.6058 4.05994C19.67 4.05032 19.7353 4.05343 19.7983 4.06908C19.8612 4.08473 19.9204 4.11262 19.9725 4.15116C20.0247 4.18969 20.0687 4.23812 20.1021 4.29368C20.1356 4.34923 20.1577 4.41083 20.1673 4.47494C20.1769 4.53906 20.1738 4.60444 20.1582 4.66736C20.1425 4.73028 20.1146 4.78949 20.0761 4.84163C16.9783 9.1931 16.2701 9.55166 11.0309 11.665L12.9322 16.2098C12.9635 16.2848 12.9759 16.3663 12.9683 16.4472C12.9606 16.5282 12.9331 16.6059 12.8883 16.6737C12.8434 16.7415 12.7826 16.7972 12.7111 16.8358C12.6396 16.8745 12.5597 16.8949 12.4784 16.8954ZM20.8504 3.45328C20.7579 3.4521 20.6676 3.42511 20.5896 3.37535C20.5116 3.3256 20.4491 3.25504 20.409 3.17165C20.369 3.08826 20.353 2.99534 20.363 2.90337C20.3729 2.8114 20.4083 2.72402 20.4652 2.6511C20.5495 2.55234 20.6683 2.48949 20.7974 2.47537C20.9264 2.46125 21.056 2.49694 21.1597 2.57515C21.2381 2.63975 21.2947 2.72688 21.3219 2.82474C21.3492 2.92261 21.3457 3.02648 21.312 3.12229C21.2782 3.21811 21.2158 3.30124 21.1333 3.36045C21.0507 3.41965 20.952 3.45205 20.8504 3.45328Z" fill="#FFC91D"/>
<path d="M28.8632 14.94L23.6452 2.47424C23.5326 2.20121 23.3663 1.95356 23.1562 1.746C22.9461 1.53844 22.6965 1.37518 22.4221 1.26591L27.6302 13.708C27.7811 14.0824 27.8304 14.4899 27.7731 14.8895C27.7159 15.289 27.554 15.6663 27.3041 15.9832C27.0541 16.3001 26.7249 16.5453 26.3497 16.694C25.9745 16.8428 25.5667 16.8897 25.1675 16.8302L22.8194 16.4951C19.8409 16.0699 18.4792 15.7666 15.7866 16.8933L11.7814 18.5702L12.4043 20.0567L17.0196 18.1248C19.712 16.9981 21.0739 17.3015 24.0523 17.7266L26.4005 18.0617C26.7996 18.1212 27.2073 18.0742 27.5825 17.9255C27.9576 17.7768 28.2868 17.5316 28.5368 17.2148C28.7867 16.898 28.9485 16.5208 29.0059 16.1213C29.0632 15.7219 29.014 15.3144 28.8632 14.94Z" fill="#F79219"/>
<path d="M14.4656 27.5494C14.07 27.7178 13.6268 27.738 13.2175 27.6061C12.8082 27.4742 12.4602 27.1991 12.2374 26.8313L11.1368 24.986C11.069 24.8724 10.9613 24.7882 10.8347 24.7497L9.65548 24.3927C9.53067 24.3548 9.42412 24.2724 9.35611 24.1611L7.98108 21.9087L12.3821 20.0666L15.328 25.005C15.4567 25.2248 15.5367 25.4698 15.5625 25.7232C15.5883 25.9767 15.5593 26.2327 15.4775 26.474C15.3957 26.7153 15.2631 26.9362 15.0885 27.1217C14.9139 27.3072 14.7015 27.4531 14.4656 27.5494Z" fill="#F0C419"/>
<path d="M15.3284 25.005L12.3823 20.0666L11.984 20.233L14.0951 23.772C14.2238 23.9919 14.3038 24.2369 14.3295 24.4904C14.3553 24.7438 14.3262 24.9999 14.2444 25.2412C14.1625 25.4825 14.0298 25.7034 13.8551 25.8889C13.6805 26.0744 13.468 26.2202 13.2321 26.3164C12.8276 26.4869 12.3748 26.5044 11.9584 26.3657L12.2368 26.8323C12.4825 27.2349 12.8768 27.5246 13.3345 27.6388C13.7921 27.753 14.2763 27.6825 14.6824 27.4425C15.0884 27.2026 15.3838 26.8125 15.5045 26.3565C15.6253 25.9006 15.5617 25.4154 15.3276 25.006L15.3284 25.005Z" fill="#F79219"/>
<path d="M34.5247 6.04997L32.0361 7.08938C31.856 7.16477 31.6534 7.16555 31.4728 7.09156C31.2921 7.01757 31.1483 6.87486 31.0729 6.69483C30.9975 6.51477 30.9967 6.31215 31.0707 6.13152C31.1447 5.95088 31.2874 5.80704 31.4674 5.73161L33.9561 4.69122C34.1361 4.6159 34.3387 4.61515 34.5194 4.68913C34.7 4.76311 34.8438 4.90578 34.9193 5.08577C34.9568 5.17498 34.9763 5.2707 34.9768 5.36746C34.9772 5.46422 34.9586 5.56012 34.9219 5.64968C34.8853 5.73923 34.8313 5.82068 34.7632 5.88937C34.695 5.95805 34.614 6.01263 34.5247 6.04997Z" fill="#F79219"/>
<path d="M30.2581 1.01588L29.234 3.5112C29.1973 3.60076 29.1433 3.6822 29.075 3.75086C29.0068 3.81952 28.9257 3.87405 28.8364 3.91134C28.7471 3.94862 28.6513 3.96793 28.5545 3.96816C28.4577 3.96839 28.3618 3.94953 28.2723 3.91267C28.1828 3.87596 28.1015 3.822 28.0329 3.75387C27.9644 3.68573 27.9099 3.60476 27.8726 3.51556C27.8353 3.42637 27.816 3.33071 27.8157 3.23404C27.8154 3.13738 27.8341 3.04159 27.8708 2.95217L28.8949 0.456591C28.9316 0.367162 28.9856 0.285838 29.0537 0.217263C29.1219 0.148688 29.2028 0.0942058 29.292 0.0569264C29.3812 0.0196469 29.4769 0.000300684 29.5736 -7.69821e-06C29.6702 -0.000316081 29.766 0.0184193 29.8554 0.0551289C29.945 0.091742 30.0264 0.145642 30.0951 0.213749C30.1639 0.281856 30.2185 0.362835 30.2559 0.452058C30.2933 0.541281 30.3127 0.636999 30.3131 0.733741C30.3135 0.830484 30.2948 0.926355 30.2581 1.01588Z" fill="#F79219"/>
<path d="M33.9828 12.625L31.4872 11.6009C31.3978 11.5642 31.3165 11.5102 31.2479 11.4421C31.1793 11.374 31.1249 11.293 31.0876 11.2038C31.0503 11.1146 31.031 11.0189 31.0306 10.9223C31.0303 10.8256 31.0491 10.7298 31.0858 10.6404C31.1225 10.5508 31.1764 10.4693 31.2447 10.4006C31.3129 10.3319 31.394 10.2773 31.4833 10.24C31.5726 10.2027 31.6685 10.1834 31.7653 10.1831C31.8621 10.1829 31.958 10.2018 32.0475 10.2387L34.5431 11.2628C34.6326 11.2995 34.7141 11.3535 34.7827 11.4218C34.8514 11.49 34.9059 11.5711 34.9432 11.6604C34.9805 11.7498 34.9998 11.8456 35 11.9423C35.0003 12.0391 34.9814 12.135 34.9446 12.2245C34.9078 12.314 34.8537 12.3954 34.7854 12.464C34.7172 12.5325 34.636 12.587 34.5467 12.6242C34.4574 12.6614 34.3616 12.6806 34.2648 12.6807C34.1681 12.6809 34.0723 12.6619 33.9828 12.625Z" fill="#F79219"/>
</svg>
