<svg width="29" height="29" viewBox="0 0 29 29" fill="none" xmlns="http://www.w3.org/2000/svg">
<g clip-path="url(#clip0_2_957)">
<path d="M26.7067 6.06232L20.7822 0.242935C20.6236 0.0871734 20.4097 0 20.1871 0H5.20917C3.46127 0 2.03906 1.42177 2.03906 3.16966V25.8299C2.03906 27.5778 3.46127 29 5.20917 29H23.7908C25.5387 29 26.9609 27.5778 26.9609 25.8299V6.66833C26.9609 6.43999 26.8691 6.22206 26.7067 6.06232Z" fill="#FEDE81"/>
<path d="M26.9609 6.66833V25.8299C26.9609 27.5778 25.5387 29 23.7908 29H14.5V0H20.1871C20.4097 0 20.6236 0.0871734 20.7822 0.242935L26.7067 6.06232C26.8691 6.22206 26.9609 6.43999 26.9609 6.66833Z" fill="#FEAF45"/>
<path d="M21.248 14.3301C21.248 14.7991 20.8672 15.1797 20.3984 15.1797H8.42175C7.9527 15.1797 7.57214 14.7991 7.57214 14.3301C7.57214 13.8606 7.9527 13.4805 8.42175 13.4805H20.3984C20.8672 13.4805 21.248 13.8606 21.248 14.3301Z" fill="white"/>
<path d="M19.0368 17.7285C19.0368 18.1976 18.656 18.5781 18.1872 18.5781H8.42153C7.9527 18.5781 7.57214 18.1976 7.57214 17.7285C7.57214 17.259 7.9527 16.8789 8.42153 16.8789H18.1872C18.6562 16.8789 19.0368 17.259 19.0368 17.7285Z" fill="white"/>
<path d="M20.2147 21.127C20.2147 21.596 19.8342 21.9766 19.3651 21.9766H8.42153C7.9527 21.9766 7.57214 21.596 7.57214 21.127C7.57214 20.6575 7.9527 20.2773 8.42153 20.2773H19.3651C19.8342 20.2773 20.2147 20.6575 20.2147 21.127Z" fill="white"/>
<path d="M26.9609 6.66833V7.51794H21.3068C20.2211 7.51794 19.3374 6.63425 19.3374 5.54857V0H20.187C20.4096 0 20.6238 0.0871734 20.7822 0.242935L26.7067 6.06232C26.8691 6.22206 26.9609 6.43999 26.9609 6.66833Z" fill="#FA6F2C"/>
<path d="M18.1872 18.5781H14.5V16.8789H18.1872C18.6562 16.8789 19.0368 17.259 19.0368 17.7285C19.0368 18.1976 18.6562 18.5781 18.1872 18.5781Z" fill="#DDF3FD"/>
<path d="M20.2147 21.127C20.2147 21.596 19.8342 21.9766 19.3651 21.9766H14.5V20.2773H19.3651C19.8342 20.2773 20.2147 20.6575 20.2147 21.127Z" fill="#DDF3FD"/>
<path d="M21.248 14.3301C21.248 14.7991 20.8672 15.1797 20.3984 15.1797H14.5V13.4805H20.3984C20.8672 13.4805 21.248 13.8606 21.248 14.3301Z" fill="#DDF3FD"/>
</g>
<defs>
<clipPath id="clip0_2_957">
<rect width="29" height="29" fill="white"/>
</clipPath>
</defs>
</svg>
