<svg width="32" height="32" viewBox="0 0 32 32" fill="none" xmlns="http://www.w3.org/2000/svg">
<path fill-rule="evenodd" clip-rule="evenodd" d="M14.9525 2.39101L14.2075 3.80151C14.181 3.85201 14.132 3.88751 14.076 3.89701L12.504 4.17001C12.0715 4.24501 11.716 4.55351 11.58 4.97101C11.4445 5.38851 11.551 5.84701 11.8565 6.16201L12.968 7.30701C13.008 7.34801 13.0265 7.40501 13.0185 7.46151L12.792 9.04051C12.7295 9.47551 12.913 9.90901 13.2685 10.167C13.6235 10.425 14.0925 10.4655 14.4865 10.272L15.9185 9.56851C15.97 9.54351 16.03 9.54351 16.0815 9.56851L17.5135 10.272C17.9075 10.4655 18.3765 10.425 18.7315 10.167C19.087 9.90901 19.2705 9.47551 19.208 9.04051L18.9815 7.46151C18.9735 7.40501 18.992 7.34801 19.032 7.30701L20.1435 6.16201C20.449 5.84701 20.5555 5.38851 20.42 4.97101C20.284 4.55351 19.9285 4.24501 19.496 4.17001L17.924 3.89701C17.868 3.88751 17.819 3.85201 17.7925 3.80151L17.0475 2.39101C16.842 2.00251 16.439 1.76001 16 1.76001C15.561 1.76001 15.158 2.00251 14.9525 2.39101Z" fill="#FFB43F"/>
<path fill-rule="evenodd" clip-rule="evenodd" d="M28.3295 7.06402L26.805 7.53452C26.7505 7.55152 26.691 7.54202 26.6445 7.50952L25.34 6.59052C24.981 6.33802 24.5115 6.30452 24.12 6.50352C23.729 6.70302 23.48 7.10252 23.4735 7.54152L23.45 9.13702C23.449 9.19402 23.422 9.24752 23.376 9.28152L22.0995 10.2385C21.748 10.5015 21.571 10.938 21.64 11.3715C21.7085 11.8055 22.0115 12.1655 22.427 12.3075L23.937 12.8225C23.991 12.841 24.0335 12.8835 24.052 12.9375L24.5675 14.4475C24.709 14.863 25.0695 15.166 25.503 15.235C25.9365 15.3035 26.373 15.1265 26.636 14.775L27.593 13.4985C27.627 13.4525 27.6805 13.4255 27.738 13.4245L29.333 13.401C29.772 13.3945 30.1715 13.1455 30.371 12.7545C30.5705 12.363 30.537 11.8935 30.284 11.5345L29.3655 10.2305C29.3325 10.1835 29.323 10.1245 29.34 10.0695L29.8105 8.54552C29.94 8.12552 29.827 7.66902 29.516 7.35852C29.2055 7.04802 28.749 6.93452 28.3295 7.06402Z" fill="#FFB43F"/>
<path fill-rule="evenodd" clip-rule="evenodd" d="M2.18945 8.54552L2.65995 10.0695C2.67695 10.1245 2.66745 10.1835 2.63445 10.2305L1.71595 11.5345C1.46295 11.8935 1.42945 12.363 1.62895 12.7545C1.82845 13.1455 2.22795 13.3945 2.66695 13.401L4.26195 13.4245C4.31945 13.4255 4.37295 13.4525 4.40695 13.4985L5.36395 14.775C5.62695 15.1265 6.06345 15.3035 6.49695 15.235C6.93045 15.166 7.29095 14.863 7.43245 14.4475L7.94795 12.9375C7.96645 12.8835 8.00895 12.841 8.06295 12.8225L9.57295 12.3075C9.98845 12.1655 10.2914 11.8055 10.3599 11.3715C10.4289 10.938 10.2519 10.5015 9.90045 10.2385L8.62395 9.28202C8.57795 9.24752 8.55095 9.19402 8.54995 9.13702L8.52645 7.54152C8.51995 7.10252 8.27095 6.70302 7.87995 6.50352C7.48845 6.30452 7.01895 6.33802 6.65995 6.59052L5.35545 7.50902C5.30895 7.54202 5.24945 7.55152 5.19495 7.53452L3.67045 7.06402C3.25095 6.93452 2.79445 7.04802 2.48395 7.35852C2.17295 7.66902 2.05995 8.12552 2.18945 8.54552Z" fill="#FFB43F"/>
<path d="M16 30.24C21.1545 30.24 25.333 26.0615 25.333 20.907C25.333 15.7525 21.1545 11.574 16 11.574C10.8455 11.574 6.66699 15.7525 6.66699 20.907C6.66699 26.0615 10.8455 30.24 16 30.24Z" fill="#FFC45C"/>
<path fill-rule="evenodd" clip-rule="evenodd" d="M19.593 21.732L12.4035 21.745C11.9105 21.745 11.447 21.9925 11.171 22.4045C10.895 22.817 10.8425 23.34 11.0315 23.7985C11.8245 25.7605 13.7515 27.1485 16 27.1485C18.247 27.1485 20.1735 25.762 20.9805 23.804C21.1715 23.341 21.1185 22.8135 20.84 22.3975C20.5615 21.9815 20.0935 21.732 19.593 21.732Z" fill="#354E5B"/>
<path fill-rule="evenodd" clip-rule="evenodd" d="M11.057 23.86C11.089 23.79 11.127 23.722 11.171 23.6565C11.447 23.2445 11.9105 22.997 12.4035 22.997L19.593 22.984C20.0935 22.984 20.5615 23.2335 20.84 23.6495C20.885 23.7165 20.924 23.787 20.9575 23.859C20.965 23.841 20.973 23.8225 20.9805 23.804C21.1715 23.341 21.1185 22.8135 20.84 22.3975C20.5615 21.9815 20.0935 21.732 19.593 21.732L12.4035 21.745C11.9105 21.745 11.447 21.9925 11.171 22.4045C10.895 22.817 10.8425 23.34 11.0315 23.7985C11.04 23.819 11.048 23.8395 11.057 23.86Z" fill="#2A3F4A"/>
<path fill-rule="evenodd" clip-rule="evenodd" d="M11.6075 19.03C11.64 18.822 11.8005 18.6785 11.9825 18.5505C12.086 18.4775 12.21 18.437 12.3385 18.392C12.515 18.33 12.71 18.3035 12.9085 18.3155C13.0725 18.3055 13.234 18.321 13.3855 18.363C13.494 18.393 13.6005 18.419 13.6955 18.4685C13.9495 18.6005 14.171 18.7705 14.2095 19.03C14.2095 19.169 14.322 19.282 14.461 19.282C14.6 19.282 14.713 19.169 14.713 19.03C14.781 18.5685 14.5445 18.1335 14.166 17.7935C13.9375 17.5885 13.6405 17.4465 13.3195 17.365C13.1865 17.3315 13.048 17.321 12.9085 17.316C12.722 17.3235 12.5375 17.344 12.3645 17.399C12.0945 17.4845 11.844 17.611 11.6475 17.788C11.268 18.13 11.0335 18.5675 11.104 19.03C11.104 19.169 11.217 19.282 11.356 19.282C11.4945 19.282 11.6075 19.169 11.6075 19.03Z" fill="#354E5B"/>
<path fill-rule="evenodd" clip-rule="evenodd" d="M17.7905 19.03C17.8235 18.822 17.9835 18.6785 18.166 18.5505C18.269 18.4775 18.3935 18.437 18.5215 18.392C18.6985 18.33 18.8935 18.3035 19.0915 18.3155C19.2555 18.3055 19.417 18.321 19.5685 18.363C19.6775 18.393 19.7835 18.419 19.8785 18.4685C20.133 18.6005 20.354 18.7705 20.3925 19.03C20.3925 19.169 20.5055 19.282 20.644 19.282C20.783 19.282 20.896 19.169 20.896 19.03C20.964 18.5685 20.728 18.1335 20.349 17.7935C20.1205 17.5885 19.8235 17.4465 19.5025 17.365C19.37 17.3315 19.231 17.321 19.0915 17.316C18.9055 17.3235 18.7205 17.344 18.5475 17.399C18.2775 17.4845 18.027 17.611 17.8305 17.788C17.4515 18.13 17.2165 18.5675 17.287 19.03C17.287 19.169 17.4 19.282 17.539 19.282C17.678 19.282 17.7905 19.169 17.7905 19.03Z" fill="#354E5B"/>
<path fill-rule="evenodd" clip-rule="evenodd" d="M12.8981 25.6835C12.8091 25.9055 12.8896 26.159 13.0901 26.289C13.9286 26.833 14.9276 27.1485 16.0001 27.1485C17.0721 27.1485 18.0711 26.833 18.9101 26.2905C19.1111 26.1605 19.1916 25.9065 19.1026 25.6845C18.6581 24.5745 17.4436 23.7545 16.0001 23.7545C14.5571 23.7545 13.3431 24.574 12.8981 25.6835Z" fill="#E40C5B"/>
</svg>
