<svg width="29" height="29" viewBox="0 0 29 29" fill="none" xmlns="http://www.w3.org/2000/svg">
<g clip-path="url(#clip0_2_919)">
<path d="M27.3098 16.3414L29 16.0763V12.9237L27.3098 12.6586C25.9188 12.4241 25.4299 10.5816 26.5174 9.68781L27.793 8.63713L26.2235 5.91951L24.6625 6.50404C23.341 6.99908 22.0004 5.6601 22.496 4.33754L23.0805 2.77652L20.3629 1.20701L19.3122 2.48256C18.4201 3.56779 16.5764 3.08352 16.3414 1.69016L16.0763 0H12.9237L12.6586 1.69016C12.4224 3.08125 10.5816 3.57006 9.68781 2.48256L8.63713 1.20701L5.91951 2.77652L6.50404 4.33754C6.99908 5.65897 5.6601 6.99965 4.33754 6.50404L2.77652 5.91951L1.20701 8.63713L2.48256 9.68781C3.56553 10.5793 3.08691 12.423 1.69016 12.6586L0 12.9237V16.0763L1.69016 16.3414C3.07559 16.5764 3.57402 18.4139 2.48256 19.3122L1.20701 20.3629L2.77652 23.0805L4.33754 22.496C5.65273 22.0032 7.00191 23.3348 6.50404 24.6625L5.91951 26.2235L8.63713 27.793L9.68781 26.5174C10.5788 25.435 12.4219 25.9131 12.6586 27.3098L12.9237 29H16.0763L16.3414 27.3098C16.5747 25.9278 18.4122 25.4237 19.3122 26.5174L20.3629 27.793L23.0805 26.2235L22.496 24.6625C22.0032 23.3473 23.3348 21.9981 24.6625 22.496L26.2235 23.0805L27.793 20.3629L26.5174 19.3122C25.4322 18.4195 25.9165 16.5776 27.3098 16.3414ZM14.5 21.5801C10.5958 21.5801 7.41992 18.4042 7.41992 14.5C7.41992 10.5958 10.5958 7.41992 14.5 7.41992C18.4042 7.41992 21.5801 10.5958 21.5801 14.5C21.5801 18.4042 18.4042 21.5801 14.5 21.5801Z" fill="#28C8FF"/>
<path d="M26.5174 19.3122L27.793 20.3629L26.2235 23.0805L24.6625 22.496C23.3348 21.9981 22.0032 23.3473 22.496 24.6625L23.0805 26.2235L20.3629 27.793L19.3122 26.5174C18.4122 25.4237 16.5747 25.9278 16.3414 27.3098L16.0763 29H14.5V21.5801C18.4042 21.5801 21.5801 18.4042 21.5801 14.5C21.5801 10.5958 18.4042 7.41992 14.5 7.41992V0H16.0763L16.3414 1.69016C16.5764 3.08352 18.4201 3.56779 19.3122 2.48256L20.3629 1.20701L23.0805 2.77652L22.496 4.33754C22.0004 5.6601 23.341 6.99908 24.6625 6.50404L26.2235 5.91951L27.793 8.63713L26.5174 9.68781C25.4299 10.5816 25.9188 12.4241 27.3098 12.6586L29 12.9237V16.0763L27.3098 16.3414C25.9165 16.5776 25.4322 18.4195 26.5174 19.3122Z" fill="#006090"/>
<path d="M14.5 6.85352C10.2837 6.85352 6.85352 10.2837 6.85352 14.5C6.85352 18.7163 10.2837 22.1465 14.5 22.1465C18.7163 22.1465 22.1465 18.7163 22.1465 14.5C22.1465 10.2837 18.7163 6.85352 14.5 6.85352ZM14.5 18.748C12.1579 18.748 10.252 16.8427 10.252 14.5C10.252 12.1573 12.1579 10.252 14.5 10.252C16.8421 10.252 18.748 12.1573 18.748 14.5C18.748 16.8427 16.8421 18.748 14.5 18.748Z" fill="#6AA9FF"/>
<path d="M22.1465 14.5C22.1465 18.7163 18.7163 22.1465 14.5 22.1465V18.748C16.8421 18.748 18.748 16.8427 18.748 14.5C18.748 12.1573 16.8421 10.252 14.5 10.252V6.85352C18.7163 6.85352 22.1465 10.2837 22.1465 14.5Z" fill="#4895FF"/>
</g>
<defs>
<clipPath id="clip0_2_919">
<rect width="29" height="29" fill="white"/>
</clipPath>
</defs>
</svg>
