<svg width="29" height="29" viewBox="0 0 29 29" fill="none" xmlns="http://www.w3.org/2000/svg">
<g clip-path="url(#clip0_2_867)">
<path d="M1.49446 20.2992C2.45826 19.3354 3.73783 18.8046 5.09766 18.8047C6.11622 18.8047 8.16656 17.1495 8.86771 15.4569C9.07043 14.9675 9.22829 14.3 8.82874 13.9005C8.40983 13.4814 8.36599 13.4378 8.36463 13.4364C8.36293 13.4348 8.36123 13.4331 8.35953 13.4313C7.03448 12.1063 7.03454 9.95023 8.35965 8.62512L11.9298 5.05501C12.2614 4.72326 12.7995 4.72315 13.1313 5.05501L23.9451 15.8687C24.2769 16.2005 24.2769 16.7384 23.9451 17.0703L20.3749 20.6405C19.735 21.2803 18.8815 21.6328 17.9718 21.6328C17.0621 21.6328 16.2086 21.2803 15.5678 20.6396C15.5654 20.6373 15.5321 20.6039 15.0995 20.1712C14.9298 20.0015 14.7215 19.9224 14.4441 19.9224C12.7773 19.9224 10.1953 22.5665 10.1953 23.9023C10.1953 26.713 7.90856 28.9999 5.09771 29C3.73783 29 2.45809 28.4692 1.49452 27.5054C0.530723 26.5418 0 25.2622 0 23.9023C0 22.5426 0.530723 21.2628 1.49446 20.2992Z" fill="#F0C419"/>
<path d="M18.5382 10.4619L23.9452 15.8687C24.277 16.2005 24.277 16.7384 23.9452 17.0703L20.3749 20.6405C19.735 21.2803 18.8816 21.6328 17.9718 21.6328C17.9718 21.6328 17.9718 21.6328 17.9718 21.6328C17.0621 21.6328 16.2087 21.2803 15.5678 20.6396C15.5655 20.6373 15.5322 20.6039 15.0996 20.1712C14.9298 20.0015 14.7216 19.9224 14.4441 19.9224C12.7773 19.9224 10.1954 22.5665 10.1954 23.9023C10.1954 26.713 7.90861 28.9999 5.09777 29C3.73788 29 2.45814 28.4692 1.49463 27.5054L18.5382 10.4619Z" fill="#D7AB00"/>
<path d="M11.9298 5.05501L16.736 0.248822C17.0677 -0.0829217 17.6057 -0.0829217 17.9375 0.248822L28.7512 11.0625C29.083 11.3943 29.083 11.9323 28.7512 12.2641L23.945 17.0703L11.9298 5.05501Z" fill="#F29C1F"/>
<path d="M29 11.6636C29 11.8809 28.917 12.0982 28.7512 12.2641L23.945 17.0703L17.9375 11.0627L23.3444 5.65568L28.7512 11.0625C28.9171 11.2284 29 11.4457 29.0001 11.663L29 11.6636Z" fill="#C97701"/>
<path d="M4.46148 26.7692C3.23121 26.7692 2.23071 25.7687 2.23071 24.5385C2.23071 23.3082 3.23121 22.3077 4.46148 22.3077C5.69175 22.3077 6.69225 23.3082 6.69225 24.5385C6.69225 25.7687 5.69175 26.7692 4.46148 26.7692Z" fill="#D25627"/>
</g>
<defs>
<clipPath id="clip0_2_867">
<rect width="29" height="29" fill="white"/>
</clipPath>
</defs>
</svg>
