<svg width="52" height="29" viewBox="0 0 52 29" fill="none" xmlns="http://www.w3.org/2000/svg">
<g clip-path="url(#clip0_2_936)">
<path d="M17.2181 7.5624C17.2181 11.7325 20.6104 15.1248 24.7805 15.1248C28.9507 15.1248 32.3429 11.7325 32.3429 7.5624C32.3429 3.39227 28.9507 0 24.7805 0C20.6104 0 17.2181 3.39227 17.2181 7.5624Z" fill="#28C8FF"/>
<path d="M32.3429 7.5624C32.3429 3.39227 28.9506 0 24.7805 0V15.1248C28.9506 15.1248 32.3429 11.7325 32.3429 7.5624Z" fill="#006090"/>
<path d="M12.1765 27.8408C12.1765 28.3053 12.5523 28.6811 13.0168 28.6811H36.5442C37.0087 28.6811 37.3845 28.3053 37.3845 27.8408C37.3845 21.8178 32.4841 16.8053 26.461 16.8053H23.1C17.0769 16.8053 12.1765 21.8178 12.1765 27.8408Z" fill="#28C8FF"/>
<path d="M26.4611 16.8053H24.7805V28.6811H36.5442C37.0087 28.6811 37.3845 28.3053 37.3845 27.8408C37.3845 21.8178 32.4841 16.8053 26.4611 16.8053Z" fill="#006090"/>
</g>
<g clip-path="url(#clip1_2_936)">
<path d="M4.6604 14.4796C4.6604 17.3468 6.99279 19.6792 9.86001 19.6792C12.7272 19.6792 15.0596 17.3468 15.0596 14.4796C15.0596 11.6124 12.7272 9.28 9.86001 9.28C6.99279 9.28 4.6604 11.6124 4.6604 14.4796Z" fill="#28C8FF"/>
<path d="M15.0596 14.4796C15.0596 11.6124 12.7272 9.28 9.85999 9.28V19.6792C12.7272 19.6792 15.0596 17.3468 15.0596 14.4796Z" fill="#006090"/>
<path d="M1.19397 28.4223C1.19397 28.7416 1.45237 29 1.7717 29H17.9483C18.2676 29 18.526 28.7416 18.526 28.4223C18.526 24.2811 15.1567 20.8347 11.0155 20.8347H8.70452C4.56332 20.8347 1.19397 24.2811 1.19397 28.4223Z" fill="#28C8FF"/>
<path d="M11.0155 20.8347H9.85999V29H17.9483C18.2676 29 18.526 28.7416 18.526 28.4223C18.526 24.2811 15.1567 20.8347 11.0155 20.8347Z" fill="#006090"/>
</g>
<g clip-path="url(#clip2_2_936)">
<path d="M35.9803 14.4796C35.9803 17.3468 38.3127 19.6792 41.18 19.6792C44.0472 19.6792 46.3796 17.3468 46.3796 14.4796C46.3796 11.6124 44.0472 9.28 41.18 9.28C38.3127 9.28 35.9803 11.6124 35.9803 14.4796Z" fill="#28C8FF"/>
<path d="M46.3795 14.4796C46.3795 11.6124 44.0472 9.28 41.1799 9.28V19.6792C44.0472 19.6792 46.3795 17.3468 46.3795 14.4796Z" fill="#006090"/>
<path d="M32.5139 28.4223C32.5139 28.7416 32.7723 29 33.0917 29H49.2682C49.5875 29 49.8459 28.7416 49.8459 28.4223C49.8459 24.2811 46.4766 20.8347 42.3354 20.8347H40.0245C35.8833 20.8347 32.5139 24.2811 32.5139 28.4223Z" fill="#28C8FF"/>
<path d="M42.3354 20.8347H41.1799V29H49.2682C49.5875 29 49.8459 28.7416 49.8459 28.4223C49.8459 24.2811 46.4766 20.8347 42.3354 20.8347Z" fill="#006090"/>
</g>
<defs>
<clipPath id="clip0_2_936">
<rect width="28.6811" height="28.6811" fill="white" transform="translate(10.4399)"/>
</clipPath>
<clipPath id="clip1_2_936">
<rect width="19.72" height="19.72" fill="white" transform="translate(0 9.28)"/>
</clipPath>
<clipPath id="clip2_2_936">
<rect width="19.72" height="19.72" fill="white" transform="translate(31.3199 9.28)"/>
</clipPath>
</defs>
</svg>
