<svg width="29" height="29" viewBox="0 0 29 29" fill="none" xmlns="http://www.w3.org/2000/svg">
<path d="M6.85352 7.64648C6.85352 11.863 10.2835 15.293 14.5 15.293C18.7165 15.293 22.1465 11.863 22.1465 7.64648C22.1465 3.42999 18.7165 0 14.5 0C10.2835 0 6.85352 3.42999 6.85352 7.64648Z" fill="#28C8FF"/>
<path d="M22.1465 7.64648C22.1465 3.42999 18.7165 0 14.5 0V15.293C18.7165 15.293 22.1465 11.863 22.1465 7.64648Z" fill="#006090"/>
<path d="M1.75586 28.1504C1.75586 28.62 2.13586 29 2.60547 29H26.3945C26.8641 29 27.2441 28.62 27.2441 28.1504C27.2441 22.0604 22.2892 16.9922 16.1992 16.9922H12.8008C6.71078 16.9922 1.75586 22.0604 1.75586 28.1504Z" fill="#28C8FF"/>
<path d="M16.1992 16.9922H14.5V29H26.3945C26.8641 29 27.2441 28.62 27.2441 28.1504C27.2441 22.0604 22.2892 16.9922 16.1992 16.9922Z" fill="#006090"/>
</svg>
