<svg width="30" height="30" viewBox="0 0 30 30" fill="none" xmlns="http://www.w3.org/2000/svg">
<path d="M26.3307 6.29102V25.443C26.3307 27.6284 24.5591 29.4 22.3737 29.4H7.62642C5.44104 29.4 3.66943 27.6284 3.66943 25.443V6.29102H26.3307Z" fill="#FFC261"/>
<path d="M26.3279 6.29327V25.4453C26.3279 27.0053 25.4279 28.3553 24.1138 28.9913C24.7738 28.2893 25.1699 27.3413 25.1699 26.3033V21.0361C25.1699 13.3677 18.9535 7.15127 11.2851 7.15127H3.67188V6.29327H26.3279Z" fill="#ECB021"/>
<path d="M9.41949 9.58739C10.0117 9.58739 10.4917 9.10735 10.4917 8.51519C10.4917 7.92303 10.0117 7.44299 9.41949 7.44299C8.82733 7.44299 8.34729 7.92303 8.34729 8.51519C8.34729 9.10735 8.82733 9.58739 9.41949 9.58739Z" fill="white"/>
<path d="M10.3315 7.95971C10.1498 7.81209 9.91704 7.72694 9.66725 7.72694C9.07674 7.72694 8.59408 8.20385 8.59408 8.80004C8.59408 8.99875 8.65091 9.18613 8.74739 9.34509C8.50329 9.15206 8.34998 8.85113 8.34998 8.51616C8.34998 7.91997 8.82696 7.44305 9.41733 7.44305C9.8092 7.44305 10.1498 7.64744 10.3315 7.95971Z" fill="#E4E3FF"/>
<path d="M20.5806 9.58739C21.1728 9.58739 21.6528 9.10735 21.6528 8.51519C21.6528 7.92303 21.1728 7.44299 20.5806 7.44299C19.9885 7.44299 19.5084 7.92303 19.5084 8.51519C19.5084 9.10735 19.9885 9.58739 20.5806 9.58739Z" fill="white"/>
<path d="M21.4938 7.9599C21.3122 7.81227 21.0793 7.72712 20.8296 7.72712C20.239 7.72712 19.7565 8.20404 19.7565 8.80023C19.7565 8.99894 19.8132 9.19199 19.9098 9.35095C19.6656 9.15793 19.5066 8.85131 19.5066 8.51634C19.5066 7.92015 19.9893 7.44324 20.5798 7.44324C20.9658 7.44324 21.3065 7.64763 21.4938 7.9599Z" fill="#E4E3FF"/>
<path d="M15.0001 16.7065C11.7575 16.7065 9.11963 14.0686 9.11963 10.826V8.51506C9.11963 8.34924 9.25381 8.21506 9.41963 8.21506C9.58545 8.21506 9.71963 8.34924 9.71963 8.51506V10.826C9.71963 13.7375 12.0886 16.1065 15.0001 16.1065C17.9116 16.1065 20.2806 13.7375 20.2806 10.826V8.51506C20.2806 8.34924 20.4147 8.21506 20.5806 8.21506C20.7464 8.21506 20.8806 8.34924 20.8806 8.51506V10.826C20.8806 14.0686 18.2427 16.7065 15.0001 16.7065Z" fill="#474646"/>
<path d="M5.19628 5.23772L7.87851 3.38427L5.17585 0.600006H24.8773L22.0971 3.38427L24.7956 5.23772L26.3307 6.29101H3.66943L5.19628 5.23772Z" fill="#E5A320"/>
<path d="M5.1759 0.600006L7.87856 3.38427L5.19634 5.23772H5.1759V0.600006Z" fill="#FFC261"/>
<path d="M24.8772 0.600006V5.23772H24.7956L22.097 3.38427L24.8772 0.600006Z" fill="#FFC261"/>
<path d="M3.66943 6.29101L7.87851 3.38428V6.29101H3.66943Z" fill="#ECB021"/>
<path d="M26.3307 6.29101L22.1216 3.38428V6.29101H26.3307Z" fill="#ECB021"/>
<path d="M19.6444 23.6018L15.6647 27.5815C15.492 27.758 15.2579 27.8539 15.0085 27.8539C14.7591 27.8539 14.5249 27.758 14.3523 27.5815L10.2997 23.5289C9.70485 22.9379 9.37866 22.1474 9.37866 21.3031C9.37866 20.4626 9.70485 19.6721 10.2997 19.0811C10.8945 18.4862 11.6851 18.1562 12.5255 18.1562H12.5294C13.366 18.1562 14.1565 18.4824 14.7514 19.0772C14.8435 19.1693 14.9279 19.2653 15.0085 19.3651C15.0814 19.2653 15.1658 19.1732 15.2579 19.0811C15.8988 18.4402 16.7815 18.1063 17.6872 18.1639C18.589 18.2176 19.4256 18.6666 19.9859 19.3842C20.9492 20.6315 20.8033 22.4428 19.6444 23.6018Z" fill="#FC6559"/>
<g opacity="0.3">
<path d="M11.8002 19.6248C11.721 19.6248 11.6457 19.5769 11.6152 19.4982C11.5753 19.396 11.6257 19.2811 11.7282 19.2412C11.9819 19.1423 12.25 19.0922 12.5253 19.0922C12.635 19.0922 12.7237 19.1811 12.7237 19.2908C12.7237 19.4005 12.635 19.4894 12.5253 19.4894C12.2993 19.4894 12.08 19.5304 11.8722 19.6112C11.8484 19.6204 11.8241 19.6248 11.8002 19.6248Z" fill="white"/>
</g>
<g opacity="0.3">
<path d="M10.5251 21.7245C10.4254 21.7245 10.3395 21.6497 10.3279 21.5484C10.3185 21.4675 10.3146 21.3855 10.3146 21.303C10.3146 20.7609 10.5107 20.2422 10.8669 19.842C10.9394 19.76 11.0652 19.7525 11.1471 19.8259C11.2291 19.8987 11.2363 20.0242 11.1638 20.1062C10.8718 20.4336 10.7112 20.8584 10.7112 21.303C10.7112 21.3706 10.7151 21.4376 10.7223 21.5035C10.7345 21.6126 10.6564 21.711 10.5472 21.7231C10.54 21.724 10.5323 21.7245 10.5251 21.7245Z" fill="white"/>
</g>
<path d="M19.6438 23.5997L15.6675 27.5817C15.4916 27.7575 15.2591 27.8539 15.0095 27.8539C14.7598 27.8539 14.5273 27.7575 14.3515 27.5817L14.306 27.5363C14.4819 27.5022 14.6407 27.4171 14.7655 27.2867L18.7475 23.3104C19.9047 22.1532 20.0522 20.3381 19.0879 19.0901C18.7929 18.7158 18.4243 18.4095 18.0044 18.2053C18.7816 18.3244 19.4963 18.7498 19.9842 19.3851C20.9485 20.633 20.801 22.4425 19.6438 23.5997Z" fill="#E24B40"/>
<g opacity="0.3">
<path d="M5.43207 19.8343C5.15667 19.8343 4.93323 19.6108 4.93323 19.3354V16.3556C4.93323 16.0802 5.15667 15.8567 5.43207 15.8567C5.70748 15.8567 5.93092 16.0802 5.93092 16.3556V19.3354C5.93092 19.6108 5.70748 19.8343 5.43207 19.8343Z" fill="white"/>
</g>
<g opacity="0.3">
<path d="M5.43207 14.95C5.15667 14.95 4.93323 14.7266 4.93323 14.4512V14.116C4.93323 13.8406 5.15667 13.6172 5.43207 13.6172C5.70748 13.6172 5.93092 13.8406 5.93092 14.116V14.4512C5.93092 14.7266 5.70748 14.95 5.43207 14.95Z" fill="white"/>
</g>
</svg>
